<svg width="32" height="32" viewBox="0 0 32 32" fill="none" xmlns="http://www.w3.org/2000/svg">
<g clip-path="url(#clip0)">
<path fill-rule="evenodd" clip-rule="evenodd" d="M3 28.5C3 28.7762 3.22386 29 3.5 29H8V26.5C8 25.6716 8.67158 25 9.5 25H14.5C15.3284 25 16 25.6716 16 26.5V29H20.5C20.7762 29 21 28.7762 21 28.5V3.5C21 3.22386 20.7762 3 20.5 3H3.5C3.22386 3 3 3.22386 3 3.5V28.5ZM3.5 32C1.567 32 0 30.433 0 28.5V3.5C0 1.567 1.567 0 3.5 0H20.5C22.433 0 24 1.567 24 3.5V28.5C24 28.6698 23.988 28.8368 23.9646 29.0002H28.5C28.7762 29.0002 29 28.7764 29 28.5002V16.5705C29 16.4034 28.9164 16.2472 28.7774 16.1545L26.668 14.7482C25.9786 14.2887 25.7924 13.3574 26.252 12.6681C26.7114 11.9788 27.6428 11.7926 28.332 12.2521L30.4414 13.6584C31.4152 14.3075 32 15.4003 32 16.5705V28.5002C32 30.4332 30.433 32.0002 28.5 32.0002H21.5C21.3636 32.0002 21.2314 31.982 21.1056 31.9478C20.909 31.9822 20.7066 32 20.5 32H14.5C13.6716 32 13 31.3284 13 30.5V28H11V30.5C11 31.3284 10.3284 32 9.5 32H3.5ZM6 7.5C6 6.67158 6.67158 6 7.5 6H8.5C9.32842 6 10 6.67158 10 7.5C10 8.32842 9.32842 9 8.5 9H7.5C6.67158 9 6 8.32842 6 7.5ZM7.5 12C6.67158 12 6 12.6716 6 13.5C6 14.3284 6.67158 15 7.5 15H8.5C9.32842 15 10 14.3284 10 13.5C10 12.6716 9.32842 12 8.5 12H7.5ZM6 19.5C6 18.6716 6.67158 18 7.5 18H8.5C9.32842 18 10 18.6716 10 19.5C10 20.3284 9.32842 21 8.5 21H7.5C6.67158 21 6 20.3284 6 19.5ZM15.5 18C14.6716 18 14 18.6716 14 19.5C14 20.3284 14.6716 21 15.5 21H16.5C17.3284 21 18 20.3284 18 19.5C18 18.6716 17.3284 18 16.5 18H15.5ZM14 13.5C14 12.6716 14.6716 12 15.5 12H16.5C17.3284 12 18 12.6716 18 13.5C18 14.3284 17.3284 15 16.5 15H15.5C14.6716 15 14 14.3284 14 13.5ZM15.5 6C14.6716 6 14 6.67158 14 7.5C14 8.32842 14.6716 9 15.5 9H16.5C17.3284 9 18 8.32842 18 7.5C18 6.67158 17.3284 6 16.5 6H15.5Z" fill="black"/>
</g>
<defs>
<clipPath id="clip0">
<rect width="32" height="32" fill="white"/>
</clipPath>
</defs>
</svg>
