<svg width="30" height="37" viewBox="0 0 30 37" fill="none" xmlns="http://www.w3.org/2000/svg">
<path fill-rule="evenodd" clip-rule="evenodd" d="M11.25 4.31667C11.25 3.97609 11.5298 3.7 11.875 3.7H18.125C18.4702 3.7 18.75 3.97609 18.75 4.31667V7.4H11.25V4.31667ZM22.5 4.31667V7.4H28.125C29.1605 7.4 30 8.22828 30 9.25C30 10.2717 29.1605 11.1 28.125 11.1H1.875C0.839475 11.1 0 10.2717 0 9.25C0 8.22828 0.839475 7.4 1.875 7.4H7.5V4.31667C7.5 1.93264 9.45875 0 11.875 0H18.125C20.5413 0 22.5 1.93264 22.5 4.31667ZM6.24068 16.4659C6.13765 15.4493 5.21882 14.7075 4.18843 14.8092C3.15803 14.9108 2.40625 15.8174 2.5093 16.8341L4.15917 33.1128C4.38283 35.3195 6.2648 37 8.51245 37H21.4875C23.7353 37 25.6173 35.3195 25.8407 33.1128L27.4907 16.8341C27.5938 15.8174 26.842 14.9108 25.8115 14.8092C24.7812 14.7075 23.8623 15.4493 23.7593 16.4659L22.1095 32.7448C22.0775 33.06 21.8085 33.3 21.4875 33.3H8.51245C8.19138 33.3 7.9225 33.06 7.89055 32.7448L6.24068 16.4659Z" fill="#24292E"/>
</svg>
