<svg width="32" height="32" viewBox="0 0 32 32" fill="none" xmlns="http://www.w3.org/2000/svg">
<path d="M22.666 14.6667H21.3327C20.9791 14.6667 20.6399 14.8071 20.3899 15.0572C20.1398 15.3072 19.9993 15.6464 19.9993 16C19.9993 16.3536 20.1398 16.6928 20.3899 16.9428C20.6399 17.1929 20.9791 17.3333 21.3327 17.3333H22.666C23.0196 17.3333 23.3588 17.1929 23.6088 16.9428C23.8589 16.6928 23.9993 16.3536 23.9993 16C23.9993 15.6464 23.8589 15.3072 23.6088 15.0572C23.3588 14.8071 23.0196 14.6667 22.666 14.6667ZM22.666 20H21.3327C20.9791 20 20.6399 20.1405 20.3899 20.3905C20.1398 20.6406 19.9993 20.9797 19.9993 21.3333C19.9993 21.687 20.1398 22.0261 20.3899 22.2761C20.6399 22.5262 20.9791 22.6667 21.3327 22.6667H22.666C23.0196 22.6667 23.3588 22.5262 23.6088 22.2761C23.8589 22.0261 23.9993 21.687 23.9993 21.3333C23.9993 20.9797 23.8589 20.6406 23.6088 20.3905C23.3588 20.1405 23.0196 20 22.666 20ZM14.666 12H22.666C23.0196 12 23.3588 11.8595 23.6088 11.6095C23.8589 11.3594 23.9993 11.0203 23.9993 10.6667C23.9993 10.313 23.8589 9.97391 23.6088 9.72386C23.3588 9.47381 23.0196 9.33333 22.666 9.33333H14.666C14.3124 9.33333 13.9733 9.47381 13.7232 9.72386C13.4732 9.97391 13.3327 10.313 13.3327 10.6667C13.3327 11.0203 13.4732 11.3594 13.7232 11.6095C13.9733 11.8595 14.3124 12 14.666 12ZM27.9993 4H9.33268C8.97906 4 8.63992 4.14048 8.38987 4.39052C8.13983 4.64057 7.99935 4.97971 7.99935 5.33333V9.33333H3.99935C3.64573 9.33333 3.30659 9.47381 3.05654 9.72386C2.80649 9.97391 2.66602 10.313 2.66602 10.6667V24C2.66602 25.0609 3.08744 26.0783 3.83759 26.8284C4.58773 27.5786 5.60515 28 6.66602 28H23.9993C25.4138 28 26.7704 27.4381 27.7706 26.4379C28.7708 25.4377 29.3327 24.0812 29.3327 22.6667V5.33333C29.3327 4.97971 29.1922 4.64057 28.9422 4.39052C28.6921 4.14048 28.353 4 27.9993 4ZM7.99935 24C7.99935 24.3536 7.85887 24.6928 7.60882 24.9428C7.35878 25.1929 7.01964 25.3333 6.66602 25.3333C6.31239 25.3333 5.97326 25.1929 5.72321 24.9428C5.47316 24.6928 5.33268 24.3536 5.33268 24V12H7.99935V24ZM26.666 22.6667C26.666 23.3739 26.3851 24.0522 25.885 24.5523C25.3849 25.0524 24.7066 25.3333 23.9993 25.3333H10.426C10.5812 24.9058 10.6624 24.4549 10.666 24V6.66667H26.666V22.6667ZM14.666 17.3333H15.9993C16.353 17.3333 16.6921 17.1929 16.9422 16.9428C17.1922 16.6928 17.3327 16.3536 17.3327 16C17.3327 15.6464 17.1922 15.3072 16.9422 15.0572C16.6921 14.8071 16.353 14.6667 15.9993 14.6667H14.666C14.3124 14.6667 13.9733 14.8071 13.7232 15.0572C13.4732 15.3072 13.3327 15.6464 13.3327 16C13.3327 16.3536 13.4732 16.6928 13.7232 16.9428C13.9733 17.1929 14.3124 17.3333 14.666 17.3333ZM14.666 22.6667H15.9993C16.353 22.6667 16.6921 22.5262 16.9422 22.2761C17.1922 22.0261 17.3327 21.687 17.3327 21.3333C17.3327 20.9797 17.1922 20.6406 16.9422 20.3905C16.6921 20.1405 16.353 20 15.9993 20H14.666C14.3124 20 13.9733 20.1405 13.7232 20.3905C13.4732 20.6406 13.3327 20.9797 13.3327 21.3333C13.3327 21.687 13.4732 22.0261 13.7232 22.2761C13.9733 22.5262 14.3124 22.6667 14.666 22.6667Z" fill="black"/>
</svg>
