<svg width="32" height="32" viewBox="0 0 32 32" fill="none" xmlns="http://www.w3.org/2000/svg">
<path d="M20.666 25.333H18.666V27.333C18.666 28.4397 19.5593 29.333 20.666 29.333C21.7727 29.333 22.666 28.4397 22.666 27.333C22.666 26.2263 21.7727 25.333 20.666 25.333Z" stroke="black" stroke-width="2" stroke-linecap="round" stroke-linejoin="round"/>
<path d="M12.666 18.667C13.7727 18.667 14.666 19.5603 14.666 20.667V27.3337C14.666 28.4403 13.7727 29.3337 12.666 29.3337C11.5593 29.3337 10.666 28.4403 10.666 27.3337V20.667C10.666 19.5603 11.5593 18.667 12.666 18.667Z" stroke="black" stroke-width="2" stroke-linecap="round" stroke-linejoin="round"/>
<path d="M4.66602 18.667H6.66602V20.667C6.66602 21.7737 5.77268 22.667 4.66602 22.667C3.55935 22.667 2.66602 21.7737 2.66602 20.667C2.66602 19.5603 3.55935 18.667 4.66602 18.667Z" stroke="black" stroke-width="2" stroke-linecap="round" stroke-linejoin="round"/>
<path d="M18.666 19.333C18.666 18.2263 19.5593 17.333 20.666 17.333H27.3327C28.4394 17.333 29.3327 18.2263 29.3327 19.333C29.3327 20.4397 28.4394 21.333 27.3327 21.333H20.666C19.5593 21.333 18.666 20.4397 18.666 19.333Z" stroke="black" stroke-width="2" stroke-linecap="round" stroke-linejoin="round"/>
<path d="M13.3327 12.667C13.3327 11.5603 12.4393 10.667 11.3327 10.667H4.66602C3.55935 10.667 2.66602 11.5603 2.66602 12.667C2.66602 13.7737 3.55935 14.667 4.66602 14.667H11.3327C12.4393 14.667 13.3327 13.7737 13.3327 12.667Z" stroke="black" stroke-width="2" stroke-linecap="round" stroke-linejoin="round"/>
<path d="M27.334 13.333H25.334V11.333C25.334 10.2263 26.2273 9.33301 27.334 9.33301C28.4407 9.33301 29.334 10.2263 29.334 11.333C29.334 12.4397 28.4407 13.333 27.334 13.333Z" stroke="black" stroke-width="2" stroke-linecap="round" stroke-linejoin="round"/>
<path d="M19.334 13.3337C18.2273 13.3337 17.334 12.4403 17.334 11.3337V4.66699C17.334 3.56033 18.2273 2.66699 19.334 2.66699C20.4407 2.66699 21.334 3.56033 21.334 4.66699V11.3337C21.334 12.4403 20.4407 13.3337 19.334 13.3337Z" stroke="black" stroke-width="2" stroke-linecap="round" stroke-linejoin="round"/>
<path d="M11.334 6.66699H13.334V4.66699C13.334 3.56033 12.4407 2.66699 11.334 2.66699C10.2273 2.66699 9.33398 3.56033 9.33398 4.66699C9.33398 5.77366 10.2273 6.66699 11.334 6.66699Z" stroke="black" stroke-width="2" stroke-linecap="round" stroke-linejoin="round"/>
</svg>
