<svg width="32" height="32" viewBox="0 0 32 32" fill="none" xmlns="http://www.w3.org/2000/svg">
<path d="M17.6 22.4019H8.00001C7.57566 22.4019 7.1687 22.5704 6.86864 22.8704C6.56858 23.1704 6.40001 23.5773 6.40001 24.0016C6.40001 24.4259 6.56858 24.8327 6.86864 25.1327C7.1687 25.4327 7.57566 25.6013 8.00001 25.6013H17.6C18.0244 25.6013 18.4313 25.4327 18.7314 25.1327C19.0314 24.8327 19.2 24.4259 19.2 24.0016C19.2 23.5773 19.0314 23.1704 18.7314 22.8704C18.4313 22.5704 18.0244 22.4019 17.6 22.4019ZM11.2 12.8038H14.4C14.8244 12.8038 15.2313 12.6353 15.5314 12.3353C15.8314 12.0353 16 11.6284 16 11.2041C16 10.7799 15.8314 10.373 15.5314 10.073C15.2313 9.77299 14.8244 9.60445 14.4 9.60445H11.2C10.7757 9.60445 10.3687 9.77299 10.0686 10.073C9.76858 10.373 9.60001 10.7799 9.60001 11.2041C9.60001 11.6284 9.76858 12.0353 10.0686 12.3353C10.3687 12.6353 10.7757 12.8038 11.2 12.8038ZM30.4 16.0032H25.6V1.60604C25.6011 1.32416 25.5277 1.04699 25.3872 0.802593C25.2468 0.558198 25.0442 0.355256 24.8 0.214317C24.5568 0.0739155 24.2809 0 24 0C23.7191 0 23.4432 0.0739155 23.2 0.214317L18.4 2.96577L13.6 0.214317C13.3568 0.0739155 13.0809 0 12.8 0C12.5191 0 12.2432 0.0739155 12 0.214317L7.20001 2.96577L2.40001 0.214317C2.15678 0.0739155 1.88087 0 1.60001 0C1.31915 0 1.04324 0.0739155 0.800012 0.214317C0.555845 0.355256 0.353263 0.558198 0.212778 0.802593C0.0722924 1.04699 -0.00110669 1.32416 1.26126e-05 1.60604V27.201C1.26126e-05 28.4737 0.505725 29.6944 1.4059 30.5944C2.30607 31.4944 3.52697 32 4.80001 32H27.2C28.473 32 29.6939 31.4944 30.5941 30.5944C31.4943 29.6944 32 28.4737 32 27.201V17.6029C32 17.1786 31.8314 16.7717 31.5314 16.4717C31.2313 16.1717 30.8243 16.0032 30.4 16.0032ZM4.80001 28.8006C4.37566 28.8006 3.9687 28.6321 3.66864 28.3321C3.36858 28.0321 3.20001 27.6252 3.20001 27.201V4.37349L6.40001 6.19713C6.64695 6.32608 6.92142 6.39343 7.20001 6.39343C7.47861 6.39343 7.75307 6.32608 8.00001 6.19713L12.8 3.44567L17.6 6.19713C17.8469 6.32608 18.1214 6.39343 18.4 6.39343C18.6786 6.39343 18.9531 6.32608 19.2 6.19713L22.4 4.37349V27.201C22.4043 27.7467 22.5017 28.2877 22.688 28.8006H4.80001ZM28.8 27.201C28.8 27.6252 28.6314 28.0321 28.3314 28.3321C28.0313 28.6321 27.6243 28.8006 27.2 28.8006C26.7757 28.8006 26.3687 28.6321 26.0686 28.3321C25.7686 28.0321 25.6 27.6252 25.6 27.201V19.2025H28.8V27.201ZM17.6 16.0032H8.00001C7.57566 16.0032 7.1687 16.1717 6.86864 16.4717C6.56858 16.7717 6.40001 17.1786 6.40001 17.6029C6.40001 18.0271 6.56858 18.434 6.86864 18.734C7.1687 19.034 7.57566 19.2025 8.00001 19.2025H17.6C18.0244 19.2025 18.4313 19.034 18.7314 18.734C19.0314 18.434 19.2 18.0271 19.2 17.6029C19.2 17.1786 19.0314 16.7717 18.7314 16.4717C18.4313 16.1717 18.0244 16.0032 17.6 16.0032Z" fill="black"/>
</svg>
