<svg width="31" height="32" viewBox="0 0 31 32" fill="none" xmlns="http://www.w3.org/2000/svg">
<path d="M15.5 21C18.1751 21 20.3438 18.7614 20.3438 16C20.3438 13.2386 18.1751 11 15.5 11C12.8249 11 10.6562 13.2386 10.6562 16C10.6562 18.7614 12.8249 21 15.5 21Z" stroke="black" stroke-width="2" stroke-miterlimit="10"/>
<path d="M20.8281 4.5H10.1719C6.96172 4.5 4.35938 7.18629 4.35938 10.5V21.5C4.35938 24.8137 6.96172 27.5 10.1719 27.5H20.8281C24.0383 27.5 26.6406 24.8137 26.6406 21.5V10.5C26.6406 7.18629 24.0383 4.5 20.8281 4.5Z" stroke="black" stroke-width="2" stroke-linecap="round" stroke-linejoin="round"/>
<path d="M21.7969 11C22.5994 11 23.25 10.3284 23.25 9.5C23.25 8.67157 22.5994 8 21.7969 8C20.9943 8 20.3438 8.67157 20.3438 9.5C20.3438 10.3284 20.9943 11 21.7969 11Z" fill="black"/>
</svg>
