<svg width="32" height="32" viewBox="0 0 32 32" fill="none" xmlns="http://www.w3.org/2000/svg">
<path d="M3 27H21" stroke="black" stroke-width="2" stroke-linecap="round" stroke-linejoin="round"/>
<path d="M2.11684 17.5462L6.82876 21.9636C7.45656 22.5522 8.25742 22.9226 9.11245 23.0198C9.96747 23.1171 10.8311 22.936 11.575 22.5035L30.5009 11.5L28.171 8.65236C27.5666 7.9136 26.7179 7.41534 25.7782 7.24757C24.8386 7.07981 23.8699 7.25361 23.0471 7.73757L17.5009 11L10.0009 8.50003L7.93857 9.38391C7.78428 9.45003 7.64911 9.55394 7.54553 9.68605C7.44196 9.81815 7.37331 9.97421 7.3459 10.1398C7.3185 10.3054 7.33324 10.4753 7.38874 10.6337C7.44425 10.7921 7.53875 10.934 7.66353 11.0463L11.5009 14.5L8.00095 16.5L4.50095 15L2.40686 15.8975C2.25415 15.9629 2.12015 16.0654 2.01697 16.1956C1.91379 16.3259 1.84469 16.4798 1.8159 16.6434C1.78712 16.807 1.79956 16.9753 1.8521 17.1329C1.90464 17.2905 1.99563 17.4325 2.11684 17.5462V17.5462Z" stroke="black" stroke-width="2" stroke-linecap="round" stroke-linejoin="round"/>
</svg>
