<svg width="22" height="43" viewBox="0 0 22 43" fill="none" xmlns="http://www.w3.org/2000/svg">
<path fill-rule="evenodd" clip-rule="evenodd" d="M7.61538 5.05865C7.61538 7.85251 5.91059 10.1173 3.80769 10.1173C1.7048 10.1173 0 7.85251 0 5.05865C0 2.26484 1.7048 0 3.80769 0C5.91059 0 7.61538 2.26484 7.61538 5.05865ZM3.80769 26.5586C5.91059 26.5586 7.61538 24.2939 7.61538 21.5C7.61538 18.7061 5.91059 16.4413 3.80769 16.4413C1.7048 16.4413 0 18.7061 0 21.5C0 24.2939 1.7048 26.5586 3.80769 26.5586ZM3.80769 43C5.91059 43 7.61538 40.7352 7.61538 37.9413C7.61538 35.1475 5.91059 32.8827 3.80769 32.8827C1.7048 32.8827 0 35.1475 0 37.9413C0 40.7352 1.7048 43 3.80769 43Z" fill="black" fill-opacity="0.65"/>
<path d="M7.36538 5.05865C7.36538 6.4065 6.95385 7.61718 6.30038 8.48532C5.647 9.35336 4.7632 9.8673 3.80769 9.8673C2.85219 9.8673 1.96838 9.35336 1.315 8.48532C0.661536 7.61718 0.25 6.4065 0.25 5.05865C0.25 3.71082 0.661535 2.50014 1.315 1.63199C1.96839 0.763955 2.85219 0.25 3.80769 0.25C4.76319 0.25 5.647 0.763955 6.30038 1.63199C6.95385 2.50014 7.36538 3.71082 7.36538 5.05865ZM7.36538 21.5C7.36538 22.8479 6.95385 24.0585 6.30038 24.9267C5.647 25.7947 4.7632 26.3086 3.80769 26.3086C2.85219 26.3086 1.96838 25.7947 1.315 24.9267C0.661536 24.0585 0.25 22.8479 0.25 21.5C0.25 20.1521 0.661536 18.9415 1.315 18.0733C1.96838 17.2053 2.85219 16.6913 3.80769 16.6913C4.7632 16.6913 5.647 17.2053 6.30038 18.0733C6.95385 18.9415 7.36538 20.1521 7.36538 21.5ZM7.36538 37.9413C7.36538 39.2892 6.95385 40.4999 6.30038 41.368C5.647 42.2361 4.7632 42.75 3.80769 42.75C2.85219 42.75 1.96838 42.2361 1.315 41.368C0.661536 40.4999 0.25 39.2892 0.25 37.9413C0.25 36.5935 0.661536 35.3828 1.315 34.5147C1.96838 33.6466 2.85219 33.1327 3.80769 33.1327C4.7632 33.1327 5.647 33.6466 6.30038 34.5147C6.95385 35.3828 7.36538 36.5935 7.36538 37.9413Z" stroke="black" stroke-opacity="0.65" stroke-width="0.5"/>
<path fill-rule="evenodd" clip-rule="evenodd" d="M22.0002 5.05865C22.0002 7.8525 20.2954 10.1173 18.1925 10.1173C16.0896 10.1173 14.3848 7.8525 14.3848 5.05865C14.3848 2.26484 16.0896 0 18.1925 0C20.2954 0 22.0002 2.26484 22.0002 5.05865ZM18.1925 26.5586C20.2954 26.5586 22.0002 24.2939 22.0002 21.5C22.0002 18.7061 20.2954 16.4413 18.1925 16.4413C16.0896 16.4413 14.3848 18.7061 14.3848 21.5C14.3848 24.2939 16.0896 26.5586 18.1925 26.5586ZM18.1925 43C20.2954 43 22.0002 40.7352 22.0002 37.9413C22.0002 35.1475 20.2954 32.8827 18.1925 32.8827C16.0896 32.8827 14.3848 35.1475 14.3848 37.9413C14.3848 40.7352 16.0896 43 18.1925 43Z" fill="black" fill-opacity="0.65"/>
<path d="M21.7502 5.05865C21.7502 6.4065 21.3386 7.61718 20.6851 8.48532C20.0318 9.35336 19.148 9.8673 18.1925 9.8673C17.237 9.8673 16.3531 9.35336 15.6998 8.48532C15.0463 7.61718 14.6348 6.4065 14.6348 5.05865C14.6348 3.71082 15.0463 2.50014 15.6998 1.63199C16.3532 0.763955 17.237 0.25 18.1925 0.25C19.148 0.25 20.0318 0.763955 20.6851 1.63199C21.3386 2.50014 21.7502 3.71082 21.7502 5.05865ZM21.7502 21.5C21.7502 22.8479 21.3386 24.0585 20.6852 24.9267C20.0318 25.7947 19.148 26.3086 18.1925 26.3086C17.237 26.3086 16.3531 25.7947 15.6998 24.9267C15.0463 24.0585 14.6348 22.8479 14.6348 21.5C14.6348 20.1521 15.0463 18.9415 15.6998 18.0733C16.3531 17.2053 17.237 16.6913 18.1925 16.6913C19.148 16.6913 20.0318 17.2053 20.6851 18.0733C21.3386 18.9415 21.7502 20.1521 21.7502 21.5ZM21.7502 37.9413C21.7502 39.2892 21.3386 40.4999 20.6851 41.368C20.0318 42.236 19.148 42.75 18.1925 42.75C17.237 42.75 16.3531 42.236 15.6998 41.368C15.0463 40.4999 14.6348 39.2892 14.6348 37.9413C14.6348 36.5935 15.0463 35.3828 15.6998 34.5147C16.3531 33.6466 17.237 33.1327 18.1925 33.1327C19.148 33.1327 20.0318 33.6466 20.6851 34.5147C21.3386 35.3828 21.7502 36.5935 21.7502 37.9413Z" stroke="black" stroke-opacity="0.65" stroke-width="0.5"/>
</svg>
