<svg width="32" height="32" viewBox="0 0 32 32" fill="none" xmlns="http://www.w3.org/2000/svg">
<path d="M28.5476 11.52C28.5476 11.52 28.5476 11.52 28.5476 11.4533C27.6081 8.8883 25.9035 6.67372 23.6642 5.10916C21.425 3.5446 18.7592 2.70557 16.0276 2.70557C13.2959 2.70557 10.6302 3.5446 8.39092 5.10916C6.15169 6.67372 4.44705 8.8883 3.50758 11.4533C3.50758 11.4533 3.50758 11.4533 3.50758 11.52C2.45841 14.4145 2.45841 17.5855 3.50758 20.48C3.50758 20.48 3.50758 20.48 3.50758 20.5467C4.44705 23.1117 6.15169 25.3263 8.39092 26.8909C10.6302 28.4554 13.2959 29.2944 16.0276 29.2944C18.7592 29.2944 21.425 28.4554 23.6642 26.8909C25.9035 25.3263 27.6081 23.1117 28.5476 20.5467C28.5476 20.5467 28.5476 20.5467 28.5476 20.48C29.5967 17.5855 29.5967 14.4145 28.5476 11.52ZM5.68091 18.6667C5.21855 16.919 5.21855 15.0811 5.68091 13.3333H8.16091C7.94762 15.1047 7.94762 16.8953 8.16091 18.6667H5.68091ZM6.77424 21.3333H8.64091C8.95387 22.5225 9.40119 23.6721 9.97424 24.76C8.66664 23.8692 7.57357 22.6987 6.77424 21.3333ZM8.64091 10.6667H6.77424C7.56207 9.30545 8.64117 8.13529 9.93424 7.24C9.37498 8.32966 8.9411 9.47923 8.64091 10.6667ZM14.6676 26.2667C13.0299 25.0649 11.8798 23.3136 11.4276 21.3333H14.6676V26.2667ZM14.6676 18.6667H10.8542C10.6054 16.8976 10.6054 15.1024 10.8542 13.3333H14.6676V18.6667ZM14.6676 10.6667H11.4276C11.8798 8.68636 13.0299 6.9351 14.6676 5.73334V10.6667ZM25.2276 10.6667H23.3609C23.048 9.47755 22.6006 8.32792 22.0276 7.24C23.3352 8.13076 24.4282 9.30126 25.2276 10.6667ZM17.3342 5.73334C18.9719 6.9351 20.122 8.68636 20.5742 10.6667H17.3342V5.73334ZM17.3342 26.2667V21.3333H20.5742C20.122 23.3136 18.9719 25.0649 17.3342 26.2667ZM21.1476 18.6667H17.3342V13.3333H21.1476C21.3964 15.1024 21.3964 16.8976 21.1476 18.6667ZM22.0676 24.76C22.6406 23.6721 23.088 22.5225 23.4009 21.3333H25.2676C24.4682 22.6987 23.3752 23.8692 22.0676 24.76ZM26.3209 18.6667H23.8409C23.9493 17.7819 24.0028 16.8913 24.0009 16C24.0024 15.1087 23.9489 14.2181 23.8409 13.3333H26.3209C26.7833 15.0811 26.7833 16.919 26.3209 18.6667Z" fill="black"/>
</svg>
