<svg width="20" height="30" viewBox="0 0 20 30" fill="none" xmlns="http://www.w3.org/2000/svg">
<path d="M9.99937 0.333008C8.16394 0.335309 6.36994 0.878726 4.84174 1.89529C3.31354 2.91185 2.119 4.35644 1.40751 6.04835C0.696022 7.74027 0.499181 9.60441 0.841608 11.4076C1.18403 13.2108 2.05052 14.873 3.3327 16.1863V28.333C3.33339 28.5603 3.39217 28.7836 3.50345 28.9818C3.61474 29.18 3.77484 29.3464 3.96855 29.4653C4.16225 29.5842 4.38314 29.6516 4.61023 29.6611C4.83731 29.6706 5.06306 29.622 5.26604 29.5197L9.99937 27.1597L14.7327 29.5197C14.9185 29.6149 15.124 29.6651 15.3327 29.6663C15.5823 29.6671 15.8272 29.5978 16.0394 29.4663C16.2315 29.3462 16.3899 29.1792 16.4995 28.9809C16.6092 28.7826 16.6665 28.5596 16.666 28.333V16.1863C17.9482 14.873 18.8147 13.2108 19.1571 11.4076C19.4996 9.60441 19.3027 7.74027 18.5912 6.04835C17.8797 4.35644 16.6852 2.91185 15.157 1.89529C13.6288 0.878726 11.8348 0.335309 9.99937 0.333008ZM13.9994 26.173L10.5994 24.4797C10.4133 24.3859 10.2078 24.337 9.99937 24.337C9.79097 24.337 9.58547 24.3859 9.39937 24.4797L5.99937 26.173V18.093C6.84326 18.4915 7.74215 18.7612 8.66604 18.893V20.333C8.66604 20.6866 8.80651 21.0258 9.05656 21.2758C9.30661 21.5259 9.64575 21.6663 9.99937 21.6663C10.353 21.6663 10.6921 21.5259 10.9422 21.2758C11.1922 21.0258 11.3327 20.6866 11.3327 20.333V18.893C12.2566 18.7612 13.1555 18.4915 13.9994 18.093V26.173ZM9.99937 16.333C8.68083 16.333 7.3919 15.942 6.29557 15.2095C5.19924 14.4769 4.34476 13.4357 3.84017 12.2176C3.33559 10.9994 3.20357 9.65895 3.4608 8.36574C3.71804 7.07253 4.35297 5.88465 5.28532 4.9523C6.21767 4.01995 7.40556 3.38501 8.69877 3.12777C9.99197 2.87054 11.3324 3.00256 12.5506 3.50714C13.7688 4.01173 14.81 4.86621 15.5425 5.96254C16.275 7.05887 16.666 8.3478 16.666 9.66634C16.666 11.4345 15.9637 13.1301 14.7134 14.3804C13.4632 15.6306 11.7675 16.333 9.99937 16.333Z" fill="black"/>
</svg>
