<svg width="24" height="22" viewBox="0 0 24 22" fill="none" xmlns="http://www.w3.org/2000/svg">
<path fill-rule="evenodd" clip-rule="evenodd" d="M11.5398 0.59843C11.8326 0.46719 12.1674 0.46719 12.4602 0.59843L23.3352 5.47343C23.7397 5.65475 24 6.05672 24 6.5C24 6.94328 23.7397 7.34525 23.3352 7.52657L19.5 9.2458V13.4375C19.5 14.9734 18.2841 16.061 17.0109 16.6976C15.6704 17.3679 13.8972 17.75 12 17.75C11.5831 17.75 11.1738 17.7316 10.7752 17.6961C10.1564 17.6409 9.69934 17.0947 9.75443 16.4757C9.80954 15.8568 10.3559 15.3998 10.9748 15.455C11.3065 15.4845 11.6492 15.5 12 15.5C13.6236 15.5 15.0379 15.1685 16.0047 14.6852C17.0388 14.1682 17.25 13.662 17.25 13.4375V10.2544L12.4602 12.4016C12.1674 12.5328 11.8326 12.5328 11.5398 12.4016L6 9.91821V12.4125C6.44406 12.5705 6.86216 12.8259 7.21739 13.1811C7.87461 13.8383 8.25 14.7692 8.25 15.875V20.375C8.25 20.6735 8.13147 20.9596 7.92048 21.1706C7.70949 21.3815 7.42334 21.5002 7.12496 21.5L2.62495 21.4998C2.00365 21.4998 1.5 20.9961 1.5 20.3748V15.8748C1.5 14.7692 1.8754 13.8382 2.53264 13.181C2.88786 12.8258 3.30594 12.5705 3.75 12.4125V8.90958L0.664812 7.52657C0.260312 7.34525 0 6.94328 0 6.5C0 6.05672 0.260312 5.65475 0.664812 5.47343L11.5398 0.59843ZM3.87523 6.5L12 10.1421L20.1248 6.5L12 2.85786L3.87523 6.5ZM3.75 15.8748C3.75 15.2931 3.93709 14.9585 4.1236 14.772C4.3207 14.575 4.59076 14.4688 4.87498 14.4688C5.1592 14.4688 5.42927 14.575 5.62637 14.772C5.81289 14.9586 6 15.2933 6 15.875V19.25H3.75V15.8748Z" fill="#24292E"/>
</svg>
