<svg width="23" height="23" viewBox="0 0 23 23" fill="none" xmlns="http://www.w3.org/2000/svg">
<path fill-rule="evenodd" clip-rule="evenodd" d="M16.3491 0.836941C17.465 -0.278982 19.2742 -0.278979 20.3901 0.836941L22.1631 2.60987C23.279 3.72578 23.279 5.53505 22.1631 6.65097L8.1048 20.7093C7.76141 21.0526 7.33618 21.3028 6.86925 21.4362L1.56111 22.9528C1.13346 23.0751 0.673213 22.9557 0.358725 22.6413C0.044238 22.3268 -0.0750306 21.8666 0.0471443 21.439L1.56377 16.1307C1.69717 15.6639 1.94738 15.2386 2.29076 14.8952L16.3491 0.836941ZM18.6583 2.56884C18.4988 2.40943 18.2403 2.40943 18.081 2.56884L16.0193 4.63041L18.3696 6.98064L20.4313 4.91907C20.5906 4.75965 20.5906 4.50119 20.4313 4.34177L18.6583 2.56884ZM16.6377 8.71254L14.2875 6.36231L4.02267 16.6271C3.97362 16.6761 3.93787 16.7369 3.9188 16.8036L3.00777 19.9923L6.19638 19.0811C6.26309 19.0622 6.32383 19.0264 6.3729 18.9773L16.6377 8.71254Z" fill="#4267B2"/>
</svg>
