<svg width="86" height="79" viewBox="0 0 86 79" fill="none" xmlns="http://www.w3.org/2000/svg">
<rect width="86" height="78.5467" rx="16" fill="#E6EDF7"/>
<path d="M34.0298 38.6652C34.4674 44.1225 40.0607 47.7128 43.3288 49.0679C43.7352 49.2364 44.1895 49.2454 44.6006 49.0888C48.0066 47.7919 53.4022 44.188 53.9217 38.6652C54.9149 31.3135 46.1743 29.1956 43.9608 33.6214C41.6241 29.1381 33.4456 31.3798 34.0298 38.6652Z" fill="#14142B"/>
<path fill-rule="evenodd" clip-rule="evenodd" d="M37.6199 31.0342C35.0521 32.0673 32.9637 34.7551 33.2821 38.7252C33.521 41.7047 35.1636 44.1281 37.1042 45.9515C39.0457 47.7758 41.3436 49.0567 43.0414 49.7608C43.6221 50.0015 44.2746 50.0155 44.8674 49.7898C46.6495 49.1112 48.939 47.8366 50.861 46.0046C52.7811 44.1744 54.381 41.7407 54.6668 38.7506C55.2053 34.7191 53.0528 32.0377 50.4119 31.0264C48.2069 30.182 45.5167 30.4846 43.9563 32.2844C42.3877 30.4709 39.7903 30.1611 37.6199 31.0342ZM38.1798 32.4259C40.1886 31.6177 42.3526 32.1588 43.2957 33.9681C43.4259 34.218 43.6852 34.3738 43.967 34.3714C44.2488 34.3691 44.5055 34.209 44.6315 33.957C45.5086 32.2033 47.7647 31.6189 49.8755 32.4272C51.9066 33.205 53.6258 35.253 53.1783 38.5649C53.177 38.5749 53.1758 38.5849 53.1749 38.595C52.9373 41.1207 51.5818 43.2453 49.826 44.9189C48.0688 46.5938 45.9575 47.7696 44.3336 48.388L44.6005 49.0889L44.3336 48.388C44.1041 48.4753 43.8481 48.4714 43.616 48.3752C42.0457 47.724 39.9128 46.5323 38.1313 44.8583C36.3488 43.1835 34.976 41.0831 34.7773 38.6053C34.5114 35.29 36.2202 33.2142 38.1798 32.4259Z" fill="#14142B"/>
</svg>
