<svg width="32" height="33" viewBox="0 0 32 33" fill="none" xmlns="http://www.w3.org/2000/svg">
<path d="M30.4 12.5719C30.6101 12.572 30.8182 12.5314 31.0124 12.4524C31.2065 12.3735 31.3829 12.2577 31.5315 12.1118C31.6801 11.9658 31.7979 11.7926 31.8783 11.6019C31.9587 11.4112 32.0001 11.2068 32 11.0005V6.28607C32.0001 5.95634 31.8946 5.63493 31.6982 5.36746C31.5019 5.09999 31.2248 4.90002 30.9063 4.79594L16.5063 0.0815446C16.1776 -0.0258795 15.8224 -0.0258795 15.4937 0.0815446L1.09374 4.79594C0.775189 4.90002 0.498094 5.09999 0.301769 5.36746C0.105445 5.63493 -0.000137811 5.95634 1.34999e-07 6.28607V11.0005C-5.45202e-05 11.2068 0.0412936 11.4112 0.121682 11.6019C0.20207 11.7926 0.319923 11.9658 0.468508 12.1118C0.617092 12.2577 0.793496 12.3735 0.987642 12.4524C1.18179 12.5314 1.38987 12.572 1.6 12.5719H3.2V23.8618C2.26678 24.1846 1.45818 24.7833 0.885228 25.5755C0.312271 26.3678 0.00304396 27.3148 1.34999e-07 28.2866V31.4295C-5.45202e-05 31.6359 0.0412936 31.8403 0.121682 32.0309C0.20207 32.2216 0.319923 32.3949 0.468508 32.5408C0.617092 32.6868 0.793496 32.8025 0.987642 32.8815C1.18179 32.9604 1.38987 33.001 1.6 33.001H30.4C30.6101 33.001 30.8182 32.9604 31.0124 32.8815C31.2065 32.8025 31.3829 32.6868 31.5315 32.5408C31.6801 32.3949 31.7979 32.2216 31.8783 32.0309C31.9587 31.8403 32.0001 31.6359 32 31.4295V28.2866C31.997 27.3148 31.6877 26.3678 31.1148 25.5755C30.5418 24.7833 29.7332 24.1846 28.8 23.8618V12.5719H30.4ZM28.8 29.858H3.2V28.2866C3.20042 27.8699 3.36913 27.4705 3.6691 27.1758C3.96906 26.8812 4.37578 26.7155 4.8 26.7151H27.2C27.6242 26.7155 28.0309 26.8812 28.3309 27.1758C28.6309 27.4705 28.7996 27.8699 28.8 28.2866V29.858ZM6.4 23.5722V12.5719H9.6V23.5722H6.4ZM12.8 23.5722V12.5719H19.2V23.5722H12.8ZM22.4 23.5722V12.5719H25.6V23.5722H22.4ZM3.2 9.429V7.41862L16 3.22752L28.8 7.41862V9.429H3.2Z" fill="black"/>
</svg>
