<svg width="22" height="28" viewBox="0 0 22 28" fill="none" xmlns="http://www.w3.org/2000/svg">
<path d="M21.6673 9.91935C21.6534 9.79686 21.6266 9.67619 21.5873 9.55935V9.43935C21.5232 9.30226 21.4377 9.17624 21.334 9.06602L13.334 1.06602C13.2238 0.962304 13.0977 0.87679 12.9607 0.812682H12.8273C12.6977 0.743353 12.5583 0.693912 12.414 0.666016H4.33398C3.27312 0.666016 2.2557 1.08744 1.50556 1.83759C0.755412 2.58773 0.333984 3.60515 0.333984 4.66602V23.3327C0.333984 24.3935 0.755412 25.411 1.50556 26.1611C2.2557 26.9113 3.27312 27.3327 4.33398 27.3327H17.6673C18.7282 27.3327 19.7456 26.9113 20.4957 26.1611C21.2459 25.411 21.6673 24.3935 21.6673 23.3327V9.99935C21.6673 9.99935 21.6673 9.99935 21.6673 9.91935ZM13.6673 5.21268L17.1206 8.66602H15.0007C14.647 8.66602 14.3079 8.52554 14.0578 8.27549C13.8078 8.02544 13.6673 7.6863 13.6673 7.33268V5.21268ZM19.0007 23.3327C19.0007 23.6863 18.8602 24.0254 18.6101 24.2755C18.3601 24.5255 18.0209 24.666 17.6673 24.666H4.33398C3.98036 24.666 3.64122 24.5255 3.39118 24.2755C3.14113 24.0254 3.00065 23.6863 3.00065 23.3327V4.66602C3.00065 4.31239 3.14113 3.97326 3.39118 3.72321C3.64122 3.47316 3.98036 3.33268 4.33398 3.33268H11.0007V7.33268C11.0007 8.39355 11.4221 9.41096 12.1722 10.1611C12.9224 10.9113 13.9398 11.3327 15.0007 11.3327H19.0007V23.3327ZM11.0007 13.1193C10.174 12.6691 9.21229 12.5336 8.29346 12.7379C7.37463 12.9422 6.56092 13.4725 6.00295 14.2306C5.44497 14.9886 5.18052 15.9232 5.25854 16.8612C5.33657 17.7992 5.75177 18.6772 6.42732 19.3327L10.054 22.9593C10.1779 23.0843 10.3254 23.1835 10.4879 23.2512C10.6504 23.3189 10.8246 23.3537 11.0007 23.3537C11.1767 23.3537 11.3509 23.3189 11.5134 23.2512C11.6759 23.1835 11.8234 23.0843 11.9473 22.9593L15.574 19.3327C16.2495 18.6772 16.6647 17.7992 16.7428 16.8612C16.8208 15.9232 16.5563 14.9886 15.9984 14.2306C15.4404 13.4725 14.6267 12.9422 13.7078 12.7379C12.789 12.5336 11.8273 12.6691 11.0007 13.1193ZM13.6673 15.6927C13.8969 15.9227 14.0259 16.2344 14.0259 16.5593C14.0259 16.8843 13.8969 17.196 13.6673 17.426L11.0007 20.0927L8.33398 17.426C8.10438 17.196 7.97542 16.8843 7.97542 16.5593C7.97542 16.2344 8.10438 15.9227 8.33398 15.6927C8.56397 15.4631 8.87567 15.3341 9.20065 15.3341C9.52563 15.3341 9.83733 15.4631 10.0673 15.6927C10.1913 15.8177 10.3387 15.9168 10.5012 15.9845C10.6637 16.0522 10.838 16.0871 11.014 16.0871C11.19 16.0871 11.3643 16.0522 11.5268 15.9845C11.6892 15.9168 11.8367 15.8177 11.9607 15.6927C12.1895 15.4711 12.4955 15.3472 12.814 15.3472C13.1325 15.3472 13.4385 15.4711 13.6673 15.6927Z" fill="black"/>
</svg>
