<svg width="30" height="32" viewBox="0 0 30 32" fill="none" xmlns="http://www.w3.org/2000/svg">
<path d="M15 26.1818C15.2967 26.1818 15.5867 26.0965 15.8334 25.9367C16.08 25.7769 16.2723 25.5497 16.3858 25.2839C16.4994 25.0181 16.5291 24.7257 16.4712 24.4435C16.4133 24.1614 16.2704 23.9022 16.0607 23.6988C15.8509 23.4953 15.5836 23.3568 15.2926 23.3007C15.0017 23.2446 14.7001 23.2734 14.426 23.3834C14.1519 23.4935 13.9176 23.68 13.7528 23.9192C13.588 24.1584 13.5 24.4396 13.5 24.7273C13.5 25.113 13.658 25.483 13.9393 25.7558C14.2206 26.0286 14.6022 26.1818 15 26.1818ZM22.5 26.1818C22.7967 26.1818 23.0867 26.0965 23.3334 25.9367C23.58 25.7769 23.7723 25.5497 23.8858 25.2839C23.9994 25.0181 24.0291 24.7257 23.9712 24.4435C23.9133 24.1614 23.7704 23.9022 23.5607 23.6988C23.3509 23.4953 23.0836 23.3568 22.7926 23.3007C22.5017 23.2446 22.2001 23.2734 21.926 23.3834C21.6519 23.4935 21.4176 23.68 21.2528 23.9192C21.088 24.1584 21 24.4396 21 24.7273C21 25.113 21.158 25.483 21.4393 25.7558C21.7206 26.0286 22.1022 26.1818 22.5 26.1818ZM22.5 20.3636C22.7967 20.3636 23.0867 20.2783 23.3334 20.1185C23.58 19.9587 23.7723 19.7315 23.8858 19.4657C23.9994 19.1999 24.0291 18.9075 23.9712 18.6253C23.9133 18.3432 23.7704 18.084 23.5607 17.8806C23.3509 17.6772 23.0836 17.5386 22.7926 17.4825C22.5017 17.4264 22.2001 17.4552 21.926 17.5653C21.6519 17.6754 21.4176 17.8618 21.2528 18.101C21.088 18.3402 21 18.6214 21 18.9091C21 19.2949 21.158 19.6648 21.4393 19.9376C21.7206 20.2104 22.1022 20.3636 22.5 20.3636ZM15 20.3636C15.2967 20.3636 15.5867 20.2783 15.8334 20.1185C16.08 19.9587 16.2723 19.7315 16.3858 19.4657C16.4994 19.1999 16.5291 18.9075 16.4712 18.6253C16.4133 18.3432 16.2704 18.084 16.0607 17.8806C15.8509 17.6772 15.5836 17.5386 15.2926 17.4825C15.0017 17.4264 14.7001 17.4552 14.426 17.5653C14.1519 17.6754 13.9176 17.8618 13.7528 18.101C13.588 18.3402 13.5 18.6214 13.5 18.9091C13.5 19.2949 13.658 19.6648 13.9393 19.9376C14.2206 20.2104 14.6022 20.3636 15 20.3636ZM25.5 2.90909H24V1.45455C24 1.06878 23.842 0.698807 23.5607 0.426026C23.2794 0.153246 22.8978 0 22.5 0C22.1022 0 21.7206 0.153246 21.4393 0.426026C21.158 0.698807 21 1.06878 21 1.45455V2.90909H9V1.45455C9 1.06878 8.84196 0.698807 8.56066 0.426026C8.27936 0.153246 7.89782 0 7.5 0C7.10218 0 6.72064 0.153246 6.43934 0.426026C6.15804 0.698807 6 1.06878 6 1.45455V2.90909H4.5C3.30653 2.90909 2.16193 3.36883 1.31802 4.18717C0.474106 5.00551 0 6.11542 0 7.27273V27.6364C0 28.7937 0.474106 29.9036 1.31802 30.7219C2.16193 31.5403 3.30653 32 4.5 32H25.5C26.6935 32 27.8381 31.5403 28.682 30.7219C29.5259 29.9036 30 28.7937 30 27.6364V7.27273C30 6.11542 29.5259 5.00551 28.682 4.18717C27.8381 3.36883 26.6935 2.90909 25.5 2.90909ZM27 27.6364C27 28.0221 26.842 28.3921 26.5607 28.6649C26.2794 28.9377 25.8978 29.0909 25.5 29.0909H4.5C4.10218 29.0909 3.72064 28.9377 3.43934 28.6649C3.15804 28.3921 3 28.0221 3 27.6364V14.5455H27V27.6364ZM27 11.6364H3V7.27273C3 6.88696 3.15804 6.51699 3.43934 6.24421C3.72064 5.97143 4.10218 5.81818 4.5 5.81818H6V7.27273C6 7.6585 6.15804 8.02847 6.43934 8.30125C6.72064 8.57403 7.10218 8.72727 7.5 8.72727C7.89782 8.72727 8.27936 8.57403 8.56066 8.30125C8.84196 8.02847 9 7.6585 9 7.27273V5.81818H21V7.27273C21 7.6585 21.158 8.02847 21.4393 8.30125C21.7206 8.57403 22.1022 8.72727 22.5 8.72727C22.8978 8.72727 23.2794 8.57403 23.5607 8.30125C23.842 8.02847 24 7.6585 24 7.27273V5.81818H25.5C25.8978 5.81818 26.2794 5.97143 26.5607 6.24421C26.842 6.51699 27 6.88696 27 7.27273V11.6364ZM7.5 20.3636C7.79667 20.3636 8.08668 20.2783 8.33335 20.1185C8.58003 19.9587 8.77229 19.7315 8.88582 19.4657C8.99935 19.1999 9.02906 18.9075 8.97118 18.6253C8.9133 18.3432 8.77044 18.084 8.56066 17.8806C8.35088 17.6772 8.08361 17.5386 7.79264 17.4825C7.50166 17.4264 7.20006 17.4552 6.92597 17.5653C6.65189 17.6754 6.41762 17.8618 6.2528 18.101C6.08797 18.3402 6 18.6214 6 18.9091C6 19.2949 6.15804 19.6648 6.43934 19.9376C6.72064 20.2104 7.10218 20.3636 7.5 20.3636ZM7.5 26.1818C7.79667 26.1818 8.08668 26.0965 8.33335 25.9367C8.58003 25.7769 8.77229 25.5497 8.88582 25.2839C8.99935 25.0181 9.02906 24.7257 8.97118 24.4435C8.9133 24.1614 8.77044 23.9022 8.56066 23.6988C8.35088 23.4953 8.08361 23.3568 7.79264 23.3007C7.50166 23.2446 7.20006 23.2734 6.92597 23.3834C6.65189 23.4935 6.41762 23.68 6.2528 23.9192C6.08797 24.1584 6 24.4396 6 24.7273C6 25.113 6.15804 25.483 6.43934 25.7558C6.72064 26.0286 7.10218 26.1818 7.5 26.1818Z" fill="black"/>
</svg>
