<svg width="22" height="20" viewBox="0 0 22 20" fill="none" xmlns="http://www.w3.org/2000/svg">
<path d="M1.02977 8.66523C1.46736 14.1225 7.06072 17.7128 10.3288 19.0679C10.7352 19.2364 11.1895 19.2454 11.6006 19.0888C15.0066 17.7919 20.4022 14.188 20.9217 8.66523C21.9149 1.31346 13.1743 -0.804415 10.9608 3.62144C8.62412 -0.861932 0.445591 1.37975 1.02977 8.66523Z" fill="#14142B"/>
<path fill-rule="evenodd" clip-rule="evenodd" d="M4.61995 1.03425C2.05209 2.0673 -0.036272 4.75507 0.282072 8.72521C0.520979 11.7047 2.16362 14.1281 4.10418 15.9515C6.04575 17.7758 8.34359 19.0567 10.0414 19.7608C10.6221 20.0015 11.2746 20.0155 11.8674 19.7898C13.6495 19.1112 15.939 17.8366 17.861 16.0046C19.7811 14.1744 21.381 11.7407 21.6668 8.75063C22.2053 4.71912 20.0528 2.03768 17.4119 1.02636C15.2069 0.18195 12.5167 0.484553 10.9563 2.28445C9.38766 0.470911 6.79032 0.161109 4.61995 1.03425ZM5.17979 2.42586C7.18859 1.61772 9.35265 2.1588 10.2957 3.96812C10.4259 4.21801 10.6852 4.3738 10.967 4.37145C11.2488 4.36909 11.5055 4.20899 11.6315 3.95695C12.5086 2.20334 14.7647 1.61886 16.8755 2.42716C18.9066 3.205 20.6258 5.25296 20.1783 8.56485C20.177 8.57489 20.1758 8.58495 20.1749 8.59503C19.9373 11.1207 18.5818 13.2453 16.826 14.9189C15.0688 16.5938 12.9575 17.7696 11.3336 18.388L11.6005 19.0889L11.3336 18.388C11.1041 18.4753 10.8481 18.4714 10.616 18.3752C9.04572 17.724 6.91285 16.5323 5.13132 14.8583C3.34879 13.1835 1.97596 11.0831 1.77727 8.60532C1.51144 5.28999 3.22025 3.21418 5.17979 2.42586Z" fill="#14142B"/>
</svg>
