<svg width="32" height="32" viewBox="0 0 32 32" fill="none" xmlns="http://www.w3.org/2000/svg">
<path d="M27.2 5.33333H22.4V3.55556C22.4 2.61256 22.0629 1.70819 21.4627 1.0414C20.8626 0.374602 20.0487 0 19.2 0H12.8C11.9513 0 11.1374 0.374602 10.5373 1.0414C9.93714 1.70819 9.6 2.61256 9.6 3.55556V5.33333H4.8C3.52696 5.33333 2.30606 5.89524 1.40589 6.89543C0.505713 7.89562 0 9.25218 0 10.6667V26.6667C0 28.0812 0.505713 29.4377 1.40589 30.4379C2.30606 31.4381 3.52696 32 4.8 32H27.2C28.473 32 29.6939 31.4381 30.5941 30.4379C31.4943 29.4377 32 28.0812 32 26.6667V10.6667C32 9.25218 31.4943 7.89562 30.5941 6.89543C29.6939 5.89524 28.473 5.33333 27.2 5.33333ZM12.8 3.55556H19.2V5.33333H12.8V3.55556ZM28.8 26.6667C28.8 27.1382 28.6314 27.5903 28.3314 27.9237C28.0313 28.2571 27.6243 28.4444 27.2 28.4444H4.8C4.37565 28.4444 3.96869 28.2571 3.66863 27.9237C3.36857 27.5903 3.2 27.1382 3.2 26.6667V17.7778H9.6V19.5556C9.6 20.0271 9.76857 20.4792 10.0686 20.8126C10.3687 21.146 10.7757 21.3333 11.2 21.3333C11.6243 21.3333 12.0313 21.146 12.3314 20.8126C12.6314 20.4792 12.8 20.0271 12.8 19.5556V17.7778H19.2V19.5556C19.2 20.0271 19.3686 20.4792 19.6686 20.8126C19.9687 21.146 20.3757 21.3333 20.8 21.3333C21.2243 21.3333 21.6313 21.146 21.9314 20.8126C22.2314 20.4792 22.4 20.0271 22.4 19.5556V17.7778H28.8V26.6667ZM28.8 14.2222H3.2V10.6667C3.2 10.1952 3.36857 9.74299 3.66863 9.40959C3.96869 9.07619 4.37565 8.88889 4.8 8.88889H27.2C27.6243 8.88889 28.0313 9.07619 28.3314 9.40959C28.6314 9.74299 28.8 10.1952 28.8 10.6667V14.2222Z" fill="black"/>
</svg>
