<svg width="32" height="32" viewBox="0 0 32 32" fill="none" xmlns="http://www.w3.org/2000/svg">
<path d="M29.3854 17.0559C29.1243 16.7639 28.9804 16.3886 28.9804 16C28.9804 15.6114 29.1243 15.2361 29.3854 14.9441L31.47 12.6405C31.6997 12.3888 31.8424 12.0721 31.8775 11.7358C31.9126 11.3995 31.8384 11.061 31.6655 10.7687L28.4083 5.23346C28.2371 4.94154 27.9765 4.71014 27.6636 4.57225C27.3507 4.43437 27.0015 4.39703 26.6657 4.46557L23.6039 5.07349C23.2143 5.15256 22.8088 5.08883 22.4637 4.89431C22.1187 4.69979 21.8581 4.38795 21.7311 4.01763L20.7376 1.09003C20.6284 0.772277 20.4202 0.496292 20.1426 0.301082C19.8649 0.105872 19.5319 0.0013099 19.1904 0.00217564H12.6761C12.3209 -0.0160331 11.9695 0.0804472 11.6754 0.276881C11.3813 0.473314 11.1608 0.758903 11.0475 1.09003L10.1355 4.01763C10.0084 4.38795 9.74782 4.69979 9.40279 4.89431C9.05775 5.08883 8.65217 5.15256 8.26259 5.07349L5.1194 4.46557C4.8011 4.42138 4.4766 4.47072 4.18678 4.60737C3.89697 4.74402 3.65481 4.96187 3.49081 5.23346L0.233623 10.7687C0.0563673 11.0577 -0.0233328 11.3944 0.00591757 11.7305C0.0351679 12.0667 0.171871 12.3852 0.396482 12.6405L2.4648 14.9441C2.72589 15.2361 2.86988 15.6114 2.86988 16C2.86988 16.3886 2.72589 16.7639 2.4648 17.0559L0.396482 19.3595C0.171871 19.6148 0.0351679 19.9333 0.00591757 20.2695C-0.0233328 20.6056 0.0563673 20.9423 0.233623 21.2313L3.49081 26.7665C3.66197 27.0585 3.92258 27.2899 4.23549 27.4277C4.54839 27.5656 4.89763 27.603 5.2334 27.5344L8.29516 26.9265C8.68475 26.8474 9.09033 26.9112 9.43536 27.1057C9.78039 27.3002 10.041 27.612 10.168 27.9824L11.1615 30.91C11.2748 31.2411 11.4953 31.5267 11.7894 31.7231C12.0835 31.9196 12.4349 32.016 12.7901 31.9978H19.3044C19.6459 31.9987 19.9789 31.8941 20.2566 31.6989C20.5342 31.5037 20.7424 31.2277 20.8516 30.91L21.8451 27.9824C21.9721 27.612 22.2327 27.3002 22.5777 27.1057C22.9228 26.9112 23.3283 26.8474 23.7179 26.9265L26.7797 27.5344C27.1155 27.603 27.4647 27.5656 27.7776 27.4277C28.0905 27.2899 28.3511 27.0585 28.5223 26.7665L31.7795 21.2313C31.9524 20.939 32.0266 20.6005 31.9915 20.2642C31.9564 19.9279 31.8137 19.6112 31.584 19.3595L29.3854 17.0559ZM26.9588 19.1996L28.2617 20.6394L26.1771 24.1909L24.2554 23.8069C23.0824 23.5714 21.8623 23.7671 20.8265 24.3569C19.7908 24.9468 19.0115 25.8896 18.6367 27.0065L18.0179 28.7983H13.8487L13.2624 26.9745C12.8876 25.8576 12.1083 24.9148 11.0726 24.325C10.0368 23.7351 8.81667 23.5394 7.64372 23.7749L5.72198 24.1589L3.60481 20.6234L4.90769 19.1836C5.70888 18.3037 6.15182 17.1645 6.15182 15.984C6.15182 14.8035 5.70888 13.6644 4.90769 12.7844L3.60481 11.3446L5.68941 7.82511L7.61115 8.20906C8.7841 8.44458 10.0043 8.24886 11.04 7.65905C12.0757 7.06924 12.855 6.1264 13.2298 5.00949L13.8487 3.20174H18.0179L18.6367 5.02549C19.0115 6.14239 19.7908 7.08524 20.8265 7.67505C21.8623 8.26486 23.0824 8.46058 24.2554 8.22506L26.1771 7.84111L28.2617 11.3926L26.9588 12.8324C26.1666 13.7103 25.7292 14.8428 25.7292 16.016C25.7292 17.1891 26.1666 18.3217 26.9588 19.1996ZM15.9333 9.60087C14.6448 9.60087 13.3854 9.97617 12.3141 10.6793C11.2428 11.3825 10.4078 12.3819 9.91477 13.5512C9.42171 14.7204 9.2927 16.0071 9.54406 17.2484C9.79542 18.4897 10.4159 19.6299 11.3269 20.5249C12.238 21.4198 13.3987 22.0293 14.6624 22.2762C15.926 22.5231 17.2359 22.3964 18.4262 21.912C19.6165 21.4277 20.634 20.6075 21.3498 19.5552C22.0656 18.5028 22.4476 17.2656 22.4476 16C22.4476 14.3028 21.7613 12.6752 20.5396 11.4751C19.3179 10.2751 17.661 9.60087 15.9333 9.60087ZM15.9333 19.1996C15.2891 19.1996 14.6593 19.0119 14.1237 18.6603C13.588 18.3088 13.1705 17.8091 12.924 17.2244C12.6775 16.6398 12.613 15.9965 12.7387 15.3758C12.8643 14.7551 13.1746 14.185 13.6301 13.7376C14.0856 13.2901 14.666 12.9854 15.2978 12.8619C15.9296 12.7385 16.5846 12.8018 17.1797 13.044C17.7749 13.2862 18.2836 13.6963 18.6415 14.2224C18.9994 14.7486 19.1904 15.3672 19.1904 16C19.1904 16.8486 18.8473 17.6624 18.2364 18.2624C17.6256 18.8625 16.7971 19.1996 15.9333 19.1996Z" fill="black"/>
</svg>
