<svg width="35" height="34" viewBox="0 0 35 34" fill="none" xmlns="http://www.w3.org/2000/svg">
<path d="M21 14H29" stroke="black" stroke-width="2" stroke-linecap="round" stroke-linejoin="round"/>
<path d="M21 20H29" stroke="black" stroke-width="2" stroke-linecap="round" stroke-linejoin="round"/>
<path d="M11 20C13.2091 20 15 17.9853 15 15.5C15 13.0147 13.2091 11 11 11C8.79086 11 7 13.0147 7 15.5C7 17.9853 8.79086 20 11 20Z" stroke="black" stroke-width="2" stroke-linecap="round" stroke-linejoin="round"/>
<path d="M6 25C6.28646 23.5689 6.93298 22.3012 7.83799 21.3962C8.743 20.4912 9.85521 20.0001 10.9999 20C12.1445 19.9999 13.2568 20.491 14.1618 21.3959C15.0669 22.3009 15.7135 23.5685 16 24.9996" stroke="black" stroke-width="2" stroke-linecap="round" stroke-linejoin="round"/>
<path d="M32.625 1H2.375C1.61561 1 1 1.71634 1 2.6V31.4C1 32.2837 1.61561 33 2.375 33H32.625C33.3844 33 34 32.2837 34 31.4V2.6C34 1.71634 33.3844 1 32.625 1Z" stroke="black" stroke-width="2" stroke-linecap="round" stroke-linejoin="round"/>
</svg>
