<svg width="32" height="32" viewBox="0 0 32 32" fill="none" xmlns="http://www.w3.org/2000/svg">
<path d="M31.7464 24.6406L26.9331 16.9528C27.918 15.2797 28.4311 13.404 28.425 11.499C28.425 8.44925 27.1151 5.52444 24.7835 3.36797C22.4519 1.21149 19.2896 0 15.9922 0C12.6948 0 9.53242 1.21149 7.20081 3.36797C4.8692 5.52444 3.55931 8.44925 3.55931 11.499C3.55319 13.404 4.06631 15.2797 5.05125 16.9528L0.237964 24.6406C0.0817736 24.8908 -0.00030774 25.1747 8.67014e-07 25.4636C0.000309474 25.7525 0.0829967 26.0363 0.239721 26.2862C0.396445 26.5361 0.621663 26.7434 0.892652 26.8871C1.16364 27.0308 1.47082 27.1058 1.78319 27.1047H6.88066L9.47379 31.1458C9.56121 31.2797 9.66887 31.4014 9.7935 31.5072C10.1227 31.8007 10.5617 31.9654 11.019 31.9671H11.2677C11.5358 31.9332 11.792 31.843 12.0167 31.7035C12.2414 31.564 12.4287 31.3789 12.5642 31.1622L15.9922 25.7084L19.4201 31.2115C19.5576 31.4251 19.7457 31.607 19.9703 31.7436C20.1949 31.8802 20.4501 31.9678 20.7166 32H20.9653C21.4287 32.0025 21.8749 31.8375 22.2086 31.54C22.328 31.4403 22.4299 31.3239 22.5105 31.195L25.1037 27.154H30.2011C30.5141 27.1551 30.8218 27.0798 31.0932 26.9355C31.3645 26.7913 31.5899 26.5833 31.7464 26.3326C31.9123 26.0771 32 25.7847 32 25.4866C32 25.1886 31.9123 24.8961 31.7464 24.6406ZM11.0013 27.154L9.42051 24.7063C9.26486 24.4635 9.04417 24.2619 8.77973 24.1209C8.51529 23.9799 8.21602 23.9043 7.91081 23.9014H4.83812L7.37797 19.8275C9.12696 21.3862 11.3313 22.437 13.7187 22.8501L11.0013 27.154ZM15.9922 19.7125C14.2357 19.7125 12.5188 19.2308 11.0584 18.3283C9.59795 17.4258 8.4597 16.143 7.78755 14.6421C7.1154 13.1413 6.93953 11.4899 7.28219 9.89658C7.62485 8.30331 8.47065 6.83979 9.71262 5.69111C10.9546 4.54242 12.537 3.76016 14.2596 3.44324C15.9823 3.12632 17.7679 3.28897 19.3906 3.91064C21.0133 4.5323 22.4003 5.58505 23.3761 6.93576C24.3519 8.28647 24.8728 9.87448 24.8728 11.499C24.8728 13.6773 23.9371 15.7665 22.2717 17.3068C20.6063 18.8472 18.3474 19.7125 15.9922 19.7125ZM24.0735 23.9014C23.7683 23.9043 23.469 23.9799 23.2046 24.1209C22.9402 24.2619 22.7195 24.4635 22.5638 24.7063L20.9831 27.154L18.2834 22.8008C20.6624 22.3793 22.8586 21.3295 24.6063 19.7782L27.1462 23.8521L24.0735 23.9014Z" fill="black"/>
</svg>
