<svg width="34" height="34" viewBox="0 0 34 34" fill="none" xmlns="http://www.w3.org/2000/svg">
<path d="M1.00021 32.9998L0.000209987 32.9999C0.000226915 33.5521 0.447923 33.9998 1.00019 33.9998L1.00021 32.9998ZM7.85715 33L7.85713 34C8.12235 34 8.37671 33.8946 8.56426 33.7071L7.85715 33ZM33 7.85713L33.7071 8.56424C33.8946 8.3767 34 8.12234 34 7.85713C34 7.59191 33.8946 7.33756 33.7071 7.15002L33 7.85713ZM26.1428 1L26.85 0.292892C26.4594 -0.0976311 25.8263 -0.0976305 25.4357 0.292893L26.1428 1ZM1 26.1428L0.292893 25.4357C0.105349 25.6233 -8.10623e-06 25.8776 0 26.1429L1 26.1428ZM19.9928 7.15002C19.6023 6.7595 18.9691 6.7595 18.5786 7.15002C18.1881 7.54055 18.1881 8.17371 18.5786 8.56424L19.9928 7.15002ZM25.4357 15.4214C25.8263 15.8119 26.4594 15.8119 26.85 15.4214C27.2405 15.0309 27.2405 14.3977 26.85 14.0072L25.4357 15.4214ZM1.00019 33.9998L7.85713 34L7.85717 32L1.00023 31.9998L1.00019 33.9998ZM8.56426 33.7071L33.7071 8.56424L32.2929 7.15002L7.15004 32.2929L8.56426 33.7071ZM33.7071 7.15002L26.85 0.292892L25.4357 1.70711L32.2929 8.56424L33.7071 7.15002ZM25.4357 0.292893L0.292893 25.4357L1.70711 26.8499L26.85 1.70711L25.4357 0.292893ZM0 26.1429L0.000209987 32.9999L2.00021 32.9998L2 26.1428L0 26.1429ZM18.5786 8.56424L25.4357 15.4214L26.85 14.0072L19.9928 7.15002L18.5786 8.56424Z" fill="black" fill-opacity="0.85"/>
</svg>
