<svg width="32" height="32" viewBox="0 0 32 32" fill="none" xmlns="http://www.w3.org/2000/svg">
<path d="M27.9993 18.6665H26.666V3.99984C26.666 3.64622 26.5255 3.30708 26.2755 3.05703C26.0254 2.80698 25.6863 2.6665 25.3327 2.6665H6.66602C6.31239 2.6665 5.97326 2.80698 5.72321 3.05703C5.47316 3.30708 5.33268 3.64622 5.33268 3.99984V18.6665H3.99935C3.64573 18.6665 3.30659 18.807 3.05654 19.057C2.80649 19.3071 2.66602 19.6462 2.66602 19.9998C2.66602 20.3535 2.80649 20.6926 3.05654 20.9426C3.30659 21.1927 3.64573 21.3332 3.99935 21.3332H14.666V22.8665L8.59935 26.8665C8.35046 27.0206 8.15919 27.2523 8.05504 27.5258C7.95089 27.7994 7.93966 28.0996 8.02307 28.3802C8.10649 28.6607 8.27991 28.9061 8.51659 29.0783C8.75327 29.2505 9.04005 29.3401 9.33268 29.3332C9.59482 29.3362 9.85129 29.2569 10.066 29.1065L14.666 26.0665V27.9998C14.666 28.3535 14.8065 28.6926 15.0565 28.9426C15.3066 29.1927 15.6457 29.3332 15.9993 29.3332C16.353 29.3332 16.6921 29.1927 16.9422 28.9426C17.1922 28.6926 17.3327 28.3535 17.3327 27.9998V26.0665L21.9327 29.1065C22.1474 29.2569 22.4039 29.3362 22.666 29.3332C22.9509 29.331 23.2276 29.2376 23.4555 29.0667C23.6834 28.8958 23.8506 28.6565 23.9326 28.3836C24.0146 28.1108 24.0071 27.8189 23.9111 27.5507C23.8152 27.2825 23.6358 27.052 23.3993 26.8932L17.3327 22.8932V21.3332H27.9993C28.353 21.3332 28.6921 21.1927 28.9422 20.9426C29.1922 20.6926 29.3327 20.3535 29.3327 19.9998C29.3327 19.6462 29.1922 19.3071 28.9422 19.057C28.6921 18.807 28.353 18.6665 27.9993 18.6665ZM23.9993 18.6665H7.99935V5.33317H23.9993V18.6665ZM11.9993 15.9998C12.219 15.9987 12.4349 15.9433 12.628 15.8387C12.821 15.734 12.9852 15.5833 13.106 15.3998L14.8793 12.7332L16.386 14.2532C16.5259 14.3939 16.6955 14.5017 16.8823 14.5686C17.0691 14.6355 17.2686 14.6598 17.466 14.6398C17.6626 14.6183 17.8519 14.5532 18.0203 14.4495C18.1886 14.3457 18.3318 14.2058 18.4393 14.0398L21.106 10.0398C21.2631 9.74708 21.3051 9.40624 21.224 9.08408C21.1429 8.76191 20.9445 8.48163 20.6676 8.29812C20.3906 8.11461 20.0552 8.04109 19.7269 8.09197C19.3986 8.14285 19.1011 8.31445 18.8927 8.57317L17.1193 11.2398L15.6127 9.71984C15.4728 9.57907 15.3032 9.47131 15.1164 9.40442C14.9295 9.33753 14.7301 9.31318 14.5327 9.33317C14.3361 9.35474 14.1468 9.41977 13.9784 9.52354C13.8101 9.62731 13.6669 9.76724 13.5593 9.93317L10.8927 13.9332C10.6997 14.2271 10.6307 14.5854 10.7006 14.93C10.7705 15.2746 10.9737 15.5777 11.266 15.7732C11.4807 15.9236 11.7372 16.0028 11.9993 15.9998Z" fill="black"/>
</svg>
