<svg width="23" height="26" viewBox="0 0 23 26" fill="none" xmlns="http://www.w3.org/2000/svg">
<path fill-rule="evenodd" clip-rule="evenodd" d="M8.625 3.03333C8.625 2.79401 8.83953 2.6 9.10417 2.6H13.8958C14.1605 2.6 14.375 2.79401 14.375 3.03333V5.2H8.625V3.03333ZM17.25 3.03333V5.2H21.5625C22.3564 5.2 23 5.78204 23 6.5C23 7.21796 22.3564 7.8 21.5625 7.8H1.4375C0.643597 7.8 0 7.21796 0 6.5C0 5.78204 0.643597 5.2 1.4375 5.2H5.75V3.03333C5.75 1.35807 7.25171 0 9.10417 0H13.8958C15.7483 0 17.25 1.35807 17.25 3.03333ZM4.78452 11.5706C4.70553 10.8562 4.0011 10.335 3.21113 10.4064C2.42115 10.4779 1.84479 11.1149 1.9238 11.8293L3.1887 23.2684C3.36017 24.8191 4.80301 26 6.52621 26H16.4738C18.197 26 19.6399 24.8191 19.8112 23.2684L21.0762 11.8293C21.1552 11.1149 20.5789 10.4779 19.7888 10.4064C18.999 10.335 18.2944 10.8562 18.2154 11.5706L16.9506 23.0098C16.9261 23.2313 16.7199 23.4 16.4738 23.4H6.52621C6.28005 23.4 6.07392 23.2313 6.04942 23.0098L4.78452 11.5706Z" fill="white"/>
</svg>
