<svg width="22" height="22" viewBox="0 0 22 22" fill="none" xmlns="http://www.w3.org/2000/svg">
<path d="M1.00367 5.00146C1.0038 2.79232 2.79477 1.00157 5.00391 1.00171L17.001 1.00243C19.2102 1.00256 21.0009 2.79353 21.0008 5.00267L21.0001 16.9998C20.9999 19.2089 19.209 20.9997 16.9998 20.9995L5.0027 20.9988C2.79356 20.9987 1.00281 19.2077 1.00294 16.9986L1.00367 5.00146Z" fill="#14142B"/>
<path fill-rule="evenodd" clip-rule="evenodd" d="M0.25362 5.00146C0.253778 2.37811 2.38055 0.251593 5.00391 0.251751L17.001 0.252474C19.6244 0.252632 21.7509 2.37941 21.7507 5.00276L21.75 16.9999C21.7499 19.6232 19.6231 21.7497 16.9997 21.7496L5.00261 21.7489C2.37925 21.7487 0.252739 19.6219 0.252897 16.9986L0.25362 5.00146ZM5.00382 1.75175C3.20889 1.75164 1.75373 3.20663 1.75362 5.00155L1.7529 16.9987C1.75279 18.7936 3.20777 20.2488 5.0027 20.2489L16.9998 20.2496C18.7947 20.2497 20.2499 18.7947 20.25 16.9998L20.2507 5.00267C20.2508 3.20774 18.7959 1.75258 17.0009 1.75247L5.00382 1.75175Z" fill="#14142B"/>
<path fill-rule="evenodd" clip-rule="evenodd" d="M4.53711 8.14307C4.53711 7.72885 4.8729 7.39307 5.28711 7.39307H16.7133C17.1276 7.39307 17.4633 7.72885 17.4633 8.14307C17.4633 8.55728 17.1276 8.89307 16.7133 8.89307H5.28711C4.8729 8.89307 4.53711 8.55728 4.53711 8.14307Z" fill="white"/>
<path fill-rule="evenodd" clip-rule="evenodd" d="M4.53711 13.856C4.53711 13.4417 4.8729 13.106 5.28711 13.106H16.7133C17.1276 13.106 17.4633 13.4417 17.4633 13.856C17.4633 14.2702 17.1276 14.606 16.7133 14.606H5.28711C4.8729 14.606 4.53711 14.2702 4.53711 13.856Z" fill="white"/>
<path fill-rule="evenodd" clip-rule="evenodd" d="M8.14258 17.4624C7.72836 17.4624 7.39258 17.1266 7.39258 16.7124L7.39258 5.28617C7.39258 4.87195 7.72836 4.53617 8.14258 4.53617C8.55679 4.53617 8.89258 4.87195 8.89258 5.28617L8.89258 16.7124C8.89258 17.1266 8.55679 17.4624 8.14258 17.4624Z" fill="white"/>
<path fill-rule="evenodd" clip-rule="evenodd" d="M13.8555 17.4624C13.4413 17.4624 13.1055 17.1266 13.1055 16.7124L13.1055 5.28617C13.1055 4.87195 13.4413 4.53617 13.8555 4.53617C14.2697 4.53617 14.6055 4.87195 14.6055 5.28617L14.6055 16.7124C14.6055 17.1266 14.2697 17.4624 13.8555 17.4624Z" fill="white"/>
</svg>
