<svg width="86" height="79" viewBox="0 0 86 79" fill="none" xmlns="http://www.w3.org/2000/svg">
<rect width="86" height="78.5467" rx="16" fill="#E6EDF7"/>
<path d="M41 35H47C47.2652 35 47.5196 34.8946 47.7071 34.7071C47.8946 34.5196 48 34.2652 48 34C48 33.7348 47.8946 33.4804 47.7071 33.2929C47.5196 33.1054 47.2652 33 47 33H41C40.7348 33 40.4804 33.1054 40.2929 33.2929C40.1054 33.4804 40 33.7348 40 34C40 34.2652 40.1054 34.5196 40.2929 34.7071C40.4804 34.8946 40.7348 35 41 35ZM39 39H47C47.2652 39 47.5196 38.8946 47.7071 38.7071C47.8946 38.5196 48 38.2652 48 38C48 37.7348 47.8946 37.4804 47.7071 37.2929C47.5196 37.1054 47.2652 37 47 37H39C38.7348 37 38.4804 37.1054 38.2929 37.2929C38.1054 37.4804 38 37.7348 38 38C38 38.2652 38.1054 38.5196 38.2929 38.7071C38.4804 38.8946 38.7348 39 39 39ZM39 43H47C47.2652 43 47.5196 42.8946 47.7071 42.7071C47.8946 42.5196 48 42.2652 48 42C48 41.7348 47.8946 41.4804 47.7071 41.2929C47.5196 41.1054 47.2652 41 47 41H39C38.7348 41 38.4804 41.1054 38.2929 41.2929C38.1054 41.4804 38 41.7348 38 42C38 42.2652 38.1054 42.5196 38.2929 42.7071C38.4804 42.8946 38.7348 43 39 43ZM51 29H35C34.7348 29 34.4804 29.1054 34.2929 29.2929C34.1054 29.4804 34 29.7348 34 30V48C34 48.1857 34.0517 48.3678 34.1493 48.5257C34.247 48.6837 34.3867 48.8114 34.5528 48.8944C34.7189 48.9775 34.9048 49.0126 35.0898 48.996C35.2748 48.9793 35.4514 48.9114 35.6 48.8L37.67 47.25L39.73 48.8C39.9031 48.9298 40.1136 49 40.33 49C40.5464 49 40.7569 48.9298 40.93 48.8L43 47.25L45.07 48.8C45.2431 48.9298 45.4536 49 45.67 49C45.8864 49 46.0969 48.9298 46.27 48.8L48.33 47.25L50.4 48.8C50.5493 48.9113 50.7267 48.9786 50.9122 48.9945C51.0977 49.0104 51.284 48.9742 51.45 48.89C51.6149 48.8069 51.7536 48.6798 51.8507 48.5227C51.9478 48.3656 51.9994 48.1847 52 48V30C52 29.7348 51.8946 29.4804 51.7071 29.2929C51.5196 29.1054 51.2652 29 51 29ZM50 46L48.93 45.2C48.7569 45.0702 48.5464 45 48.33 45C48.1136 45 47.9031 45.0702 47.73 45.2L45.67 46.75L43.6 45.2C43.4269 45.0702 43.2164 45 43 45C42.7836 45 42.5731 45.0702 42.4 45.2L40.33 46.75L38.27 45.2C38.0969 45.0702 37.8864 45 37.67 45C37.4536 45 37.2431 45.0702 37.07 45.2L36 46V31H50V46Z" fill="black"/>
</svg>
