<svg width="34" height="38" viewBox="0 0 34 38" fill="none" xmlns="http://www.w3.org/2000/svg">
<path d="M21 1H5C3.93913 1 2.92172 1.37928 2.17157 2.05442C1.42143 2.72955 1 3.64522 1 4.6V33.4C1 34.3548 1.42143 35.2705 2.17157 35.9456C2.92172 36.6207 3.93913 37 5 37H29C30.0609 37 31.0783 36.6207 31.8284 35.9456C32.5786 35.2705 33 34.3548 33 33.4V11.8L21 1Z" stroke="black" stroke-width="2" stroke-linecap="round" stroke-linejoin="round"/>
<path d="M25 28H9" stroke="black" stroke-width="2" stroke-linecap="round" stroke-linejoin="round"/>
<path d="M25 20.8H9" stroke="black" stroke-width="2" stroke-linecap="round" stroke-linejoin="round"/>
<path d="M13 13.6H11H9" stroke="black" stroke-width="2" stroke-linecap="round" stroke-linejoin="round"/>
<path d="M21 1V11.8H33" stroke="black" stroke-width="2" stroke-linecap="round" stroke-linejoin="round"/>
</svg>
