<svg width="32" height="32" viewBox="0 0 32 32" fill="none" xmlns="http://www.w3.org/2000/svg">
<path fill-rule="evenodd" clip-rule="evenodd" d="M15.9998 0.5C16.2799 0.49982 16.5543 0.578028 16.7922 0.725774C17.0301 0.87352 17.2219 1.0849 17.3458 1.336L21.1098 8.966L29.5298 10.19C29.8068 10.2302 30.0668 10.3471 30.2808 10.5274C30.4948 10.7078 30.654 10.9444 30.7406 11.2105C30.8272 11.4766 30.8376 11.7616 30.7706 12.0333C30.7036 12.305 30.562 12.5526 30.3618 12.748L24.2698 18.688L25.7078 27.072C25.7552 27.3478 25.7246 27.6314 25.6192 27.8908C25.5138 28.1502 25.338 28.3748 25.1116 28.5394C24.8852 28.704 24.6172 28.802 24.338 28.8222C24.0588 28.8424 23.7796 28.7842 23.5318 28.654L15.9998 24.694L8.46785 28.654C8.22021 28.784 7.94117 28.8422 7.66223 28.822C7.38327 28.8018 7.11553 28.704 6.88921 28.5398C6.66289 28.3754 6.48703 28.151 6.38147 27.892C6.27591 27.633 6.24487 27.3498 6.29185 27.074L7.73185 18.686L1.63584 12.748C1.43497 12.5526 1.29284 12.3049 1.22554 12.0329C1.15825 11.7609 1.16848 11.4755 1.25509 11.2091C1.3417 10.9426 1.50121 10.7057 1.71555 10.5252C1.9299 10.3448 2.19051 10.2279 2.46785 10.188L10.8878 8.966L14.6538 1.336C14.7778 1.0849 14.9696 0.87352 15.2074 0.725774C15.4453 0.578028 15.7198 0.49982 15.9998 0.5Z" fill="#FFD700"/>
</svg>
