<svg width="86" height="86" viewBox="0 0 86 86" fill="none" xmlns="http://www.w3.org/2000/svg">
<path d="M0 25.6C0 16.6392 0 12.1587 1.7439 8.73615C3.27787 5.72556 5.72556 3.27787 8.73615 1.7439C12.1587 0 16.6392 0 25.6 0H60.4C69.3608 0 73.8413 0 77.2638 1.7439C80.2744 3.27787 82.7221 5.72556 84.2561 8.73615C86 12.1587 86 16.6392 86 25.6V60.4C86 69.3608 86 73.8413 84.2561 77.2638C82.7221 80.2744 80.2744 82.7221 77.2638 84.2561C73.8413 86 69.3608 86 60.4 86H25.6C16.6392 86 12.1587 86 8.73615 84.2561C5.72556 82.7221 3.27787 80.2744 1.7439 77.2638C0 73.8413 0 69.3608 0 60.4V25.6Z" fill="#E6EDF7"/>
<path fill-rule="evenodd" clip-rule="evenodd" d="M44.0006 33.75C42.0478 33.75 40.4648 35.333 40.4648 37.2857C40.4648 39.2384 42.0478 40.8214 44.0006 40.8214C45.9533 40.8214 47.5363 39.2384 47.5363 37.2857C47.5363 35.333 45.9533 33.75 44.0006 33.75ZM38.9648 37.2857C38.9648 34.5046 41.2194 32.25 44.0006 32.25C46.7817 32.25 49.0363 34.5046 49.0363 37.2857C49.0363 40.0669 46.7817 42.3214 44.0006 42.3214C41.2194 42.3214 38.9648 40.0669 38.9648 37.2857Z" fill="#14142B"/>
<path fill-rule="evenodd" clip-rule="evenodd" d="M36.3096 47.1661C37.8668 45.5023 40.3994 44.25 44.2857 44.25C48.172 44.25 50.7046 45.5023 52.2618 47.1661C53.7995 48.8088 54.3214 50.7847 54.3214 52.1429C54.3214 52.5571 53.9856 52.8929 53.5714 52.8929H35C34.5858 52.8929 34.25 52.5571 34.25 52.1429C34.25 50.7847 34.772 48.8088 36.3096 47.1661ZM35.8138 51.3929H52.7576C52.6016 50.4301 52.14 49.2309 51.1667 48.1911C49.9382 46.8786 47.828 45.75 44.2857 45.75C40.7434 45.75 38.6332 46.8786 37.4047 48.1911C36.4314 49.2309 35.9699 50.4301 35.8138 51.3929Z" fill="#14142B"/>
</svg>
