<svg width="32" height="32" viewBox="0 0 32 32" fill="none" xmlns="http://www.w3.org/2000/svg">
<path d="M29.334 26.6666H28.0006V10.6666H29.334C29.6876 10.6666 30.0267 10.5262 30.2768 10.2761C30.5268 10.0261 30.6673 9.68691 30.6673 9.33329C30.6673 8.97967 30.5268 8.64053 30.2768 8.39048C30.0267 8.14044 29.6876 7.99996 29.334 7.99996H28.0006V3.99996C28.0006 3.64634 27.8602 3.3072 27.6101 3.05715C27.3601 2.8071 27.0209 2.66663 26.6673 2.66663H5.33398C4.98036 2.66663 4.64122 2.8071 4.39118 3.05715C4.14113 3.3072 4.00065 3.64634 4.00065 3.99996V7.99996H2.66732C2.3137 7.99996 1.97456 8.14044 1.72451 8.39048C1.47446 8.64053 1.33398 8.97967 1.33398 9.33329C1.33398 9.68691 1.47446 10.0261 1.72451 10.2761C1.97456 10.5262 2.3137 10.6666 2.66732 10.6666H4.00065V26.6666H2.66732C2.3137 26.6666 1.97456 26.8071 1.72451 27.0571C1.47446 27.3072 1.33398 27.6463 1.33398 28C1.33398 28.3536 1.47446 28.6927 1.72451 28.9428C1.97456 29.1928 2.3137 29.3333 2.66732 29.3333H29.334C29.6876 29.3333 30.0267 29.1928 30.2768 28.9428C30.5268 28.6927 30.6673 28.3536 30.6673 28C30.6673 27.6463 30.5268 27.3072 30.2768 27.0571C30.0267 26.8071 29.6876 26.6666 29.334 26.6666ZM20.0007 26.6666H12.0007V21.96C11.9974 20.5309 12.3641 19.1254 13.0651 17.88C13.766 16.6347 14.7773 15.592 16.0007 14.8533C17.224 15.592 18.2353 16.6347 18.9362 17.88C19.6372 19.1254 20.0039 20.5309 20.0007 21.96V26.6666ZM25.334 26.6666H22.6673V21.96C22.6762 19.9203 22.1123 17.9191 21.0398 16.1842C19.9673 14.4493 18.4292 13.0504 16.6006 12.1466C16.4145 12.0528 16.209 12.004 16.0007 12.004C15.7923 12.004 15.5868 12.0528 15.4007 12.1466C13.5721 13.0504 12.034 14.4493 10.9615 16.1842C9.88897 17.9191 9.32507 19.9203 9.33398 21.96V26.6666H6.66732V10.6666H25.334V26.6666ZM25.334 7.99996H6.66732V5.33329H25.334V7.99996Z" fill="black"/>
</svg>
