<svg width="33" height="34" viewBox="0 0 33 34" fill="none" xmlns="http://www.w3.org/2000/svg">
<path d="M32 5.11678C30.784 7.35486 29.2669 9.29577 27.5201 10.8481L27.5201 10.8481C27.4096 14.7739 26.5182 18.5977 24.931 21.9546C23.3439 25.3115 21.114 28.0893 18.4541 30.0229C15.7943 31.9566 12.7933 32.9815 9.73764 32.9998C6.68202 33.018 3.67374 32.0291 1 30.1274L1.00091 30.1253C4.49237 30.0631 7.89234 28.6809 10.7768 26.1511L10.7767 26.1513C7.68898 23.4458 5.33726 19.5658 4.05126 15.0553C2.76526 10.5448 2.60947 5.63004 3.60572 1L3.60567 1.00005C5.03256 3.8251 6.92523 6.21219 9.14958 7.99223C11.3739 9.77226 13.8756 10.9017 16.4772 11.3005L16.4768 11.3006C16.2028 9.62156 16.4054 7.87192 17.048 6.36831C17.6905 4.8647 18.7305 3.70646 19.9797 3.10321C21.2289 2.49996 22.6048 2.49156 23.8585 3.07952C25.1121 3.66748 26.1606 4.81297 26.8142 6.30866L26.8142 6.30945C28.579 6.24175 30.3264 5.83987 32 5.11678" stroke="black" stroke-width="2" stroke-linecap="round" stroke-linejoin="round"/>
</svg>
