<svg width="32" height="32" viewBox="0 0 32 32" fill="none" xmlns="http://www.w3.org/2000/svg">
<path fill-rule="evenodd" clip-rule="evenodd" d="M13 1.5C13 0.671572 12.3284 0 11.5 0C10.6716 0 10 0.671572 10 1.5V4H7.5C5.567 4 4 5.567 4 7.5V10H1.5C0.671572 10 0 10.6716 0 11.5C0 12.3284 0.671572 13 1.5 13H4V19H1.5C0.671572 19 0 19.6716 0 20.5C0 21.3284 0.671572 22 1.5 22H4V24.5C4 26.433 5.567 28 7.5 28H10V30.5C10 31.3284 10.6716 32 11.5 32C12.3284 32 13 31.3284 13 30.5V28H19V30.5C19 31.3284 19.6716 32 20.5 32C21.3284 32 22 31.3284 22 30.5V28H24.5C26.433 28 28 26.433 28 24.5V22H30.5C31.3284 22 32 21.3284 32 20.5C32 19.6716 31.3284 19 30.5 19H28V13H30.5C31.3284 13 32 12.3284 32 11.5C32 10.6716 31.3284 10 30.5 10H28V7.5C28 5.567 26.433 4 24.5 4H22V1.5C22 0.671572 21.3284 0 20.5 0C19.6716 0 19 0.671572 19 1.5V4H13V1.5ZM24.5 25H20.5H11.5H7.5C7.22386 25 7 24.7762 7 24.5V20.5V11.5V7.5C7 7.22386 7.22386 7 7.5 7H11.5H20.5H24.5C24.7762 7 25 7.22386 25 7.5V11.5V20.5V24.5C25 24.7762 24.7762 25 24.5 25ZM11.5 10C10.6716 10 10 10.6716 10 11.5V20.5C10 21.3284 10.6716 22 11.5 22H20.5C21.3284 22 22 21.3284 22 20.5V11.5C22 10.6716 21.3284 10 20.5 10H11.5ZM13 19V13H19V19H13Z" fill="#24292E"/>
</svg>
