<svg width="32" height="32" viewBox="0 0 32 32" fill="none" xmlns="http://www.w3.org/2000/svg">
<path fill-rule="evenodd" clip-rule="evenodd" d="M9.5 3C8.11928 3 7 4.11928 7 5.5C7 6.88072 8.11928 8 9.5 8H14.1175C13.6516 6.36488 13.0332 5.19784 12.3611 4.41368C11.501 3.41026 10.5322 3 9.5 3ZM4 5.5C4 6.40022 4.21628 7.24994 4.5997 8H3.5C1.567 8 0 9.567 0 11.5V15.5C0 16.8962 0.817526 18.1015 2 18.6632V28.5C2 30.433 3.567 32 5.5 32H26.5C28.433 32 30 30.433 30 28.5V18.6632C31.1824 18.1015 32 16.8962 32 15.5V11.5C32 9.567 30.433 8 28.5 8H27.4002C27.7838 7.24994 28 6.40022 28 5.5C28 2.46244 25.5376 0 22.5 0C20.5322 0 18.751 0.83973 17.3611 2.46132C16.8495 3.0582 16.3955 3.75446 16 4.54608C15.6045 3.75446 15.1505 3.0582 14.6389 2.46132C13.249 0.83973 11.4678 0 9.5 0C6.46244 0 4 2.46244 4 5.5ZM17.8825 8H22.5C23.8808 8 25 6.88072 25 5.5C25 4.11928 23.8808 3 22.5 3C21.4678 3 20.499 3.41026 19.6389 4.41368C18.9668 5.19784 18.3484 6.36488 17.8825 8ZM3.5 11C3.22386 11 3 11.2239 3 11.5V15.5C3 15.7761 3.22386 16 3.5 16H14.5V11H3.5ZM17.5 11V16H28.5C28.7762 16 29 15.7761 29 15.5V11.5C29 11.2239 28.7762 11 28.5 11H17.5ZM17.5 19H27V28.5C27 28.7762 26.7762 29 26.5 29H17.5V19ZM14.5 19V29H5.5C5.22386 29 5 28.7762 5 28.5V19H14.5Z" fill="#24292E"/>
</svg>
