<svg width="32" height="33" viewBox="0 0 32 33" fill="none" xmlns="http://www.w3.org/2000/svg">
<path fill-rule="evenodd" clip-rule="evenodd" d="M3.2 3.61521C3.2 3.32998 3.43879 3.09875 3.73334 3.09875H21.8667C22.1613 3.09875 22.4 3.32998 22.4 3.61521V19.5974C22.4 20.4531 23.1164 21.1469 24 21.1469C24.8836 21.1469 25.6 20.4531 25.6 19.5974V3.61521C25.6 1.61858 23.9285 0 21.8667 0H3.73334C1.67147 0 0 1.61858 0 3.61521V27.3723C0 29.3689 1.67147 30.9875 3.73334 30.9875H10.4978C11.3814 30.9875 12.0978 30.2938 12.0978 29.4381C12.0978 28.5824 11.3814 27.8887 10.4978 27.8887H3.73334C3.43879 27.8887 3.2 27.6576 3.2 27.3723V3.61521ZM8 8.26333C7.11636 8.26333 6.4 8.95701 6.4 9.8127C6.4 10.6684 7.11636 11.3621 8 11.3621H17.6C18.4837 11.3621 19.2 10.6684 19.2 9.8127C19.2 8.95701 18.4837 8.26333 17.6 8.26333H8ZM6.4 16.0102C6.4 15.1545 7.11636 14.4608 8 14.4608H12.2667C13.1503 14.4608 13.8667 15.1545 13.8667 16.0102C13.8667 16.8659 13.1503 17.5596 12.2667 17.5596H8C7.11636 17.5596 6.4 16.8659 6.4 16.0102ZM31.5179 23.3162C32.15 22.7184 32.1622 21.7373 31.5448 21.1252C30.9274 20.513 29.9143 20.5014 29.2822 21.0992L20.694 29.2206L17.6667 26.2786C17.043 25.6725 16.0299 25.6709 15.404 26.2747C14.778 26.8787 14.7762 27.8598 15.4 28.4659L19.5452 32.4943C20.1645 33.0961 21.1689 33.1027 21.7965 32.5092L31.5179 23.3162Z" fill="#24292E"/>
</svg>
