<svg width="32" height="32" viewBox="0 0 32 32" fill="none" xmlns="http://www.w3.org/2000/svg">
<path d="M30.666 28V25.3333C30.6651 24.1516 30.2718 23.0037 29.5478 22.0698C28.8238 21.1358 27.8102 20.4688 26.666 20.1733" stroke="black" stroke-width="2" stroke-linecap="round" stroke-linejoin="round"/>
<path d="M22.6673 28V25.3333C22.6673 23.9188 22.1054 22.5623 21.1052 21.5621C20.105 20.5619 18.7485 20 17.334 20H6.66732C5.25283 20 3.89628 20.5619 2.89608 21.5621C1.89589 22.5623 1.33398 23.9188 1.33398 25.3333V28" stroke="black" stroke-width="2" stroke-linecap="round" stroke-linejoin="round"/>
<path d="M21.334 4.17334C22.4812 4.46707 23.498 5.13427 24.2242 6.06975C24.9503 7.00523 25.3444 8.15578 25.3444 9.34001C25.3444 10.5242 24.9503 11.6748 24.2242 12.6103C23.498 13.5457 22.4812 14.2129 21.334 14.5067" stroke="black" stroke-width="2" stroke-linecap="round" stroke-linejoin="round"/>
<path d="M11.9993 14.6667C14.9449 14.6667 17.3327 12.2789 17.3327 9.33333C17.3327 6.38781 14.9449 4 11.9993 4C9.05383 4 6.66602 6.38781 6.66602 9.33333C6.66602 12.2789 9.05383 14.6667 11.9993 14.6667Z" stroke="black" stroke-width="2" stroke-linecap="round" stroke-linejoin="round"/>
</svg>
