<svg width="36" height="42" viewBox="0 0 36 42" fill="none" xmlns="http://www.w3.org/2000/svg">
<path fill-rule="evenodd" clip-rule="evenodd" d="M17.4696 0.206452L8.78026 8.37289C8.30779 8.81692 8.64244 9.57615 9.31061 9.57615H15.75C15.75 9.57618 15.75 9.57618 15.75 9.57618V25.788C15.75 26.9559 16.7574 27.9026 18 27.9026C19.2427 27.9026 20.25 26.9559 20.25 25.788V9.57618C20.25 9.57618 20.25 9.57618 20.25 9.57615H26.6892C27.3576 9.57615 27.6921 8.81692 27.2196 8.37289L18.5303 0.206449C18.2374 -0.0688173 17.7625 -0.0688164 17.4696 0.206452ZM5.25001 18.0347C4.8358 18.0347 4.50001 18.3503 4.50001 18.7396V37.0659C4.50001 37.4553 4.8358 37.7708 5.25001 37.7708H30.75C31.1643 37.7708 31.5 37.4553 31.5 37.0659V18.7396C31.5 18.3503 31.1643 18.0347 30.75 18.0347H27.75C26.5074 18.0347 25.5 17.088 25.5 15.9201C25.5 14.7522 26.5074 13.8055 27.75 13.8055H30.75C33.6495 13.8055 36 16.0146 36 18.7396V37.0659C36 39.791 33.6495 42 30.75 42H5.25001C2.3505 42 0 39.791 0 37.0659V18.7396C0 16.0146 2.3505 13.8055 5.25001 13.8055H8.25001C9.49268 13.8055 10.5 14.7522 10.5 15.9201C10.5 17.088 9.49268 18.0347 8.25001 18.0347H5.25001Z" fill="#24292E"/>
</svg>
