<svg width="32" height="30" viewBox="0 0 32 30" fill="none" xmlns="http://www.w3.org/2000/svg">
<path fill-rule="evenodd" clip-rule="evenodd" d="M0 3.75C0 1.67893 1.567 0 3.5 0H28.5C30.433 0 32 1.67893 32 3.75V26.25C32 28.3211 30.433 30 28.5 30H3.5C1.567 30 0 28.3211 0 26.25V3.75ZM3.5 3.21429C3.22386 3.21429 3 3.45414 3 3.75V26.25C3 26.5459 3.22386 26.7857 3.5 26.7857H28.5C28.7762 26.7857 29 26.5459 29 26.25V3.75C29 3.45414 28.7762 3.21429 28.5 3.21429H3.5ZM14.5 15C14.5 15.4262 14.342 15.835 14.0607 16.1364L9.56068 20.9578C8.9749 21.5854 8.02514 21.5854 7.43936 20.9578C6.85358 20.3301 6.85358 19.3127 7.43936 18.685L10.8787 15L7.43938 11.3151C6.85358 10.6875 6.85356 9.66992 7.43934 9.0423C8.02512 8.41466 8.97486 8.41463 9.56066 9.04226L14.0607 13.8636C14.342 14.1649 14.5 14.5737 14.5 15ZM17.5 18.2143C16.6716 18.2143 16 18.9338 16 19.8214C16 20.709 16.6716 21.4286 17.5 21.4286H23.5C24.3284 21.4286 25 20.709 25 19.8214C25 18.9338 24.3284 18.2143 23.5 18.2143H17.5Z" fill="#24292E"/>
</svg>
