<svg width="32" height="32" viewBox="0 0 32 32" fill="none" xmlns="http://www.w3.org/2000/svg">
<path d="M20.566 15.7273C19.9836 15.3533 19.3515 15.063 18.6882 14.8651C18.2813 14.742 17.8307 14.6216 17.364 14.5056C16.958 14.3924 16.4748 14.2763 15.8772 14.1449C15.1655 13.9958 14.467 13.7896 13.7884 13.5284C13.4388 13.3924 13.1303 13.1683 12.8929 12.8778C12.7196 12.6403 12.6374 12.3484 12.6613 12.0554C12.6605 11.7411 12.765 11.4355 12.9582 11.1875C13.2292 10.8697 13.5807 10.6307 13.976 10.4957C14.6417 10.2671 15.3433 10.1607 16.0469 10.1818C16.5904 10.1731 17.1323 10.2449 17.6548 10.3949C18.0018 10.492 18.3286 10.6503 18.62 10.8622C18.8083 10.9964 18.9689 11.1657 19.093 11.3608C19.1831 11.5296 19.3057 11.6789 19.4536 11.8003C19.6016 11.9216 19.772 12.0125 19.9552 12.0679C20.1384 12.1232 20.3306 12.1419 20.521 12.1227C20.7114 12.1036 20.8961 12.0471 21.0646 11.9565C21.2331 11.8658 21.3821 11.7428 21.503 11.5945C21.6238 11.4461 21.7142 11.2754 21.769 11.0921C21.8238 10.9087 21.8418 10.7164 21.8221 10.5261C21.8024 10.3358 21.7453 10.1512 21.6541 9.98298C21.3472 9.4404 20.9327 8.96622 20.4361 8.58953C19.8626 8.14897 19.2121 7.81901 18.5178 7.61652C17.7159 7.37943 16.8831 7.26356 16.0469 7.27277C14.9844 7.25019 13.9269 7.42304 12.9269 7.78271C12.0221 8.11112 11.2271 8.68574 10.6314 9.44179C10.0614 10.1939 9.7526 11.1117 9.75216 12.0554C9.7286 12.995 10.0262 13.9144 10.5959 14.662C11.1458 15.3547 11.8667 15.8922 12.6875 16.2216C13.3078 16.4602 13.9428 16.6584 14.5887 16.8149C14.6009 16.8189 14.6091 16.8287 14.6215 16.8324C14.8999 16.9162 15.3452 17.0284 15.9887 17.1676C16.2394 17.2214 16.4756 17.2809 16.7118 17.3399C16.7347 17.3467 16.7678 17.3539 16.7898 17.3608L16.8161 17.3647C17.1773 17.4568 17.5245 17.552 17.8423 17.6491C18.234 17.7634 18.6078 17.9317 18.9531 18.1491C19.1679 18.2844 19.3483 18.4677 19.4801 18.6846C19.6083 18.9492 19.6677 19.2419 19.6527 19.5355C19.673 19.9157 19.5633 20.2914 19.3416 20.6009C19.042 20.9905 18.6367 21.2859 18.174 21.4518C17.4852 21.7175 16.75 21.8421 16.0121 21.8182C15.158 21.8512 14.3085 21.6798 13.5341 21.3182C13.1767 21.1277 12.8698 20.8551 12.6385 20.5227C12.4763 20.3099 12.375 20.0571 12.3452 19.7912C12.3452 19.4054 12.1919 19.0354 11.9192 18.7627C11.6464 18.4899 11.2764 18.3366 10.8906 18.3366C10.5049 18.3366 10.1349 18.4899 9.86213 18.7627C9.58935 19.0354 9.4361 19.4054 9.4361 19.7912C9.46049 20.6489 9.74236 21.4794 10.2451 22.1747C10.7475 22.8988 11.4169 23.4912 12.1967 23.902C13.3832 24.4811 14.6923 24.7642 16.0121 24.7272C17.1335 24.7542 18.2487 24.5537 19.2905 24.1378C20.2588 23.7663 21.0996 23.1238 21.7123 22.2869C22.2945 21.4709 22.5927 20.4863 22.561 19.4844C22.5746 18.7077 22.3867 17.9409 22.0155 17.2585C21.6573 16.6428 21.1611 16.1187 20.566 15.7273ZM31.071 18.4602C31.4636 16.0694 31.2813 13.6194 30.5392 11.313C29.797 9.00663 28.5163 6.9101 26.8031 5.19688C25.0899 3.48365 22.9934 2.203 20.687 1.46085C18.3806 0.718706 15.9306 0.536409 13.5398 0.929041C11.7749 0.0828832 9.79084 -0.19458 7.86152 0.134949C5.9322 0.464478 4.15273 1.38475 2.76874 2.76874C1.38475 4.15273 0.464478 5.9322 0.134949 7.86152C-0.19458 9.79084 0.0828832 11.7749 0.929041 13.5398C0.536409 15.9306 0.718706 18.3806 1.46085 20.687C2.203 22.9934 3.48365 25.0899 5.19688 26.8031C6.9101 28.5163 9.00663 29.797 11.313 30.5392C13.6194 31.2813 16.0694 31.4636 18.4602 31.071C20.2251 31.9171 22.2092 32.1946 24.1385 31.8651C26.0678 31.5355 27.8473 30.6153 29.2313 29.2313C30.6153 27.8473 31.5355 26.0678 31.8651 24.1385C32.1946 22.2092 31.9171 20.2251 31.071 18.4602ZM22.5454 29.0909C21.4421 29.0904 20.3567 28.8114 19.3899 28.2798C19.0899 28.1142 18.7412 28.0594 18.4048 28.125C16.6122 28.4825 14.7625 28.4378 12.9893 27.9939C11.216 27.5501 9.56337 26.7182 8.15056 25.5583C6.73776 24.3983 5.60001 22.9393 4.81938 21.2864C4.03876 19.6335 3.63472 17.828 3.63642 16C3.63791 15.1921 3.71783 14.3862 3.87505 13.5938C3.94073 13.2577 3.88617 12.9093 3.72094 12.6095C3.03727 11.3674 2.77545 9.93691 2.97485 8.53321C3.17425 7.12951 3.8241 5.82853 4.82663 4.82599C5.82915 3.82345 7.13013 3.17359 8.53383 2.97418C9.93752 2.77476 11.368 3.03657 12.6101 3.72023C12.9099 3.88634 13.2588 3.94117 13.5952 3.87505C15.3878 3.51747 17.2375 3.56222 19.0107 4.00608C20.784 4.44993 22.4366 5.28183 23.8494 6.44175C25.2622 7.60167 26.4 9.0607 27.1806 10.7136C27.9612 12.3665 28.3653 14.172 28.3636 16C28.3621 16.8079 28.2822 17.6138 28.125 18.4062C28.0593 18.7423 28.1139 19.0907 28.2791 19.3906C28.8279 20.3871 29.1075 21.5094 29.0902 22.6469C29.0729 23.7843 28.7593 24.8976 28.1805 25.877C27.6016 26.8563 26.7774 27.6678 25.7892 28.2314C24.8011 28.795 23.683 29.0912 22.5454 29.0909Z" fill="black"/>
</svg>
