<svg width="32" height="32" viewBox="0 0 32 32" fill="none" xmlns="http://www.w3.org/2000/svg">
<path d="M13.3327 14.6667H3.99935C3.64573 14.6667 3.30659 14.8071 3.05654 15.0572C2.80649 15.3072 2.66602 15.6464 2.66602 16C2.66602 16.3536 2.80649 16.6928 3.05654 16.9428C3.30659 17.1929 3.64573 17.3333 3.99935 17.3333H13.3327C13.6863 17.3333 14.0254 17.1929 14.2755 16.9428C14.5255 16.6928 14.666 16.3536 14.666 16C14.666 15.6464 14.5255 15.3072 14.2755 15.0572C14.0254 14.8071 13.6863 14.6667 13.3327 14.6667ZM13.3327 25.3333H3.99935C3.64573 25.3333 3.30659 25.4738 3.05654 25.7239C2.80649 25.9739 2.66602 26.313 2.66602 26.6667C2.66602 27.0203 2.80649 27.3594 3.05654 27.6095C3.30659 27.8595 3.64573 28 3.99935 28H13.3327C13.6863 28 14.0254 27.8595 14.2755 27.6095C14.5255 27.3594 14.666 27.0203 14.666 26.6667C14.666 26.313 14.5255 25.9739 14.2755 25.7239C14.0254 25.4738 13.6863 25.3333 13.3327 25.3333ZM18.666 6.66667H27.9993C28.353 6.66667 28.6921 6.52619 28.9422 6.27614C29.1922 6.02609 29.3327 5.68696 29.3327 5.33333C29.3327 4.97971 29.1922 4.64057 28.9422 4.39052C28.6921 4.14048 28.353 4 27.9993 4H18.666C18.3124 4 17.9733 4.14048 17.7232 4.39052C17.4732 4.64057 17.3327 4.97971 17.3327 5.33333C17.3327 5.68696 17.4732 6.02609 17.7232 6.27614C17.9733 6.52619 18.3124 6.66667 18.666 6.66667ZM13.3327 9.33333H3.99935C3.64573 9.33333 3.30659 9.47381 3.05654 9.72386C2.80649 9.97391 2.66602 10.313 2.66602 10.6667C2.66602 11.0203 2.80649 11.3594 3.05654 11.6095C3.30659 11.8595 3.64573 12 3.99935 12H13.3327C13.6863 12 14.0254 11.8595 14.2755 11.6095C14.5255 11.3594 14.666 11.0203 14.666 10.6667C14.666 10.313 14.5255 9.97391 14.2755 9.72386C14.0254 9.47381 13.6863 9.33333 13.3327 9.33333ZM13.3327 20H3.99935C3.64573 20 3.30659 20.1405 3.05654 20.3905C2.80649 20.6406 2.66602 20.9797 2.66602 21.3333C2.66602 21.687 2.80649 22.0261 3.05654 22.2761C3.30659 22.5262 3.64573 22.6667 3.99935 22.6667H13.3327C13.6863 22.6667 14.0254 22.5262 14.2755 22.2761C14.5255 22.0261 14.666 21.687 14.666 21.3333C14.666 20.9797 14.5255 20.6406 14.2755 20.3905C14.0254 20.1405 13.6863 20 13.3327 20ZM13.3327 4H9.33268C8.97906 4 8.63992 4.14048 8.38987 4.39052C8.13983 4.64057 7.99935 4.97971 7.99935 5.33333C7.99935 5.68696 8.13983 6.02609 8.38987 6.27614C8.63992 6.52619 8.97906 6.66667 9.33268 6.66667H13.3327C13.6863 6.66667 14.0254 6.52619 14.2755 6.27614C14.5255 6.02609 14.666 5.68696 14.666 5.33333C14.666 4.97971 14.5255 4.64057 14.2755 4.39052C14.0254 4.14048 13.6863 4 13.3327 4ZM27.9993 9.33333H18.666C18.3124 9.33333 17.9733 9.47381 17.7232 9.72386C17.4732 9.97391 17.3327 10.313 17.3327 10.6667C17.3327 11.0203 17.4732 11.3594 17.7232 11.6095C17.9733 11.8595 18.3124 12 18.666 12H27.9993C28.353 12 28.6921 11.8595 28.9422 11.6095C29.1922 11.3594 29.3327 11.0203 29.3327 10.6667C29.3327 10.313 29.1922 9.97391 28.9422 9.72386C28.6921 9.47381 28.353 9.33333 27.9993 9.33333ZM27.9993 14.6667H18.666C18.3124 14.6667 17.9733 14.8071 17.7232 15.0572C17.4732 15.3072 17.3327 15.6464 17.3327 16C17.3327 16.3536 17.4732 16.6928 17.7232 16.9428C17.9733 17.1929 18.3124 17.3333 18.666 17.3333H27.9993C28.353 17.3333 28.6921 17.1929 28.9422 16.9428C29.1922 16.6928 29.3327 16.3536 29.3327 16C29.3327 15.6464 29.1922 15.3072 28.9422 15.0572C28.6921 14.8071 28.353 14.6667 27.9993 14.6667ZM22.666 25.3333H18.666C18.3124 25.3333 17.9733 25.4738 17.7232 25.7239C17.4732 25.9739 17.3327 26.313 17.3327 26.6667C17.3327 27.0203 17.4732 27.3594 17.7232 27.6095C17.9733 27.8595 18.3124 28 18.666 28H22.666C23.0196 28 23.3588 27.8595 23.6088 27.6095C23.8589 27.3594 23.9993 27.0203 23.9993 26.6667C23.9993 26.313 23.8589 25.9739 23.6088 25.7239C23.3588 25.4738 23.0196 25.3333 22.666 25.3333ZM27.9993 20H18.666C18.3124 20 17.9733 20.1405 17.7232 20.3905C17.4732 20.6406 17.3327 20.9797 17.3327 21.3333C17.3327 21.687 17.4732 22.0261 17.7232 22.2761C17.9733 22.5262 18.3124 22.6667 18.666 22.6667H27.9993C28.353 22.6667 28.6921 22.5262 28.9422 22.2761C29.1922 22.0261 29.3327 21.687 29.3327 21.3333C29.3327 20.9797 29.1922 20.6406 28.9422 20.3905C28.6921 20.1405 28.353 20 27.9993 20Z" fill="black"/>
</svg>
