<svg width="30" height="30" viewBox="0 0 30 30" fill="none" xmlns="http://www.w3.org/2000/svg">
<path fill-rule="evenodd" clip-rule="evenodd" d="M30 0.500001V8.792C30.0002 8.89102 29.971 8.98786 29.916 9.07026C29.861 9.15264 29.783 9.21686 29.6914 9.25478C29.6 9.2927 29.4994 9.3026 29.4022 9.28324C29.305 9.26388 29.216 9.2161 29.146 9.146L26.06 6.06L18.56 13.56C18.4226 13.7074 18.257 13.8256 18.073 13.9076C17.8891 13.9895 17.6905 14.0336 17.489 14.0372C17.2876 14.0407 17.0876 14.0037 16.9008 13.9282C16.714 13.8528 16.5444 13.7405 16.4019 13.5981C16.2595 13.4556 16.1472 13.286 16.0718 13.0992C15.9963 12.9124 15.9593 12.7124 15.9628 12.511C15.9664 12.3096 16.0105 12.1109 16.0924 11.9269C16.1744 11.7429 16.2926 11.5773 16.44 11.44L23.94 3.94L20.854 0.854001C20.7838 0.784081 20.7362 0.694901 20.7168 0.597801C20.6974 0.500681 20.7072 0.400021 20.7452 0.308541C20.7832 0.217061 20.8474 0.138901 20.9298 0.0839809C21.0122 0.0290609 21.109 -0.00017521 21.208 7.89979e-07H29.5C29.6326 7.89979e-07 29.7598 0.0526808 29.8536 0.146441C29.9474 0.240221 30 0.367401 30 0.500001ZM3.5 5C3.3674 5 3.24022 5.05268 3.14644 5.14644C3.05268 5.24022 3 5.3674 3 5.5V20.5C3 20.776 3.224 21 3.5 21H7.5C7.89782 21 8.27936 21.158 8.56066 21.4394C8.84196 21.7206 9 22.1022 9 22.5V26.88L14.44 21.44C14.721 21.1586 15.1023 21.0004 15.5 21H24.5C24.6326 21 24.7598 20.9474 24.8536 20.8536C24.9474 20.7598 25 20.6326 25 20.5V15.5C25 15.1022 25.158 14.7206 25.4394 14.4393C25.7206 14.158 26.1022 14 26.5 14C26.8978 14 27.2794 14.158 27.5606 14.4393C27.842 14.7206 28 15.1022 28 15.5V20.5C28 21.4282 27.6312 22.3184 26.9748 22.9748C26.3184 23.6312 25.4282 24 24.5 24H16.12L10.974 29.146C10.5665 29.5534 10.0473 29.8306 9.48222 29.943C8.91708 30.0554 8.33134 29.9976 7.799 29.7772C7.26666 29.5568 6.81162 29.1834 6.49142 28.7044C6.17122 28.2254 6.0002 27.6622 6 27.086V24H3.5C2.57174 24 1.6815 23.6312 1.02512 22.9748C0.36874 22.3184 0 21.4282 0 20.5V5.5C0 3.568 1.568 2 3.5 2H14.5C14.8978 2 15.2794 2.15804 15.5607 2.43934C15.842 2.72064 16 3.10218 16 3.5C16 3.89782 15.842 4.27936 15.5607 4.56066C15.2794 4.84196 14.8978 5 14.5 5H3.5Z" fill="#24292E"/>
</svg>
