<?xml version="1.0" encoding="UTF-8"?>
<svg width="523px" height="523px" viewBox="0 0 523 523" version="1.1" xmlns="http://www.w3.org/2000/svg" xmlns:xlink="http://www.w3.org/1999/xlink">
    <title>xhdpi/Payment</title>
    <g id="Payment" stroke="none" stroke-width="1" fill="none" fill-rule="evenodd">
        <g id="wallet" transform="translate(40.000000, 41.000000)" fill="#000000" fill-rule="nonzero">
            <path d="M448.004,236.639 L448.004,170.674 C448.004,148.306 430.654,130.115 408.733,128.351 L347.473,21.351 C341.796,11.455 332.629,4.382 321.66,1.445 C310.743,-1.472 299.327,0.06 289.556,5.747 L79.553,128.007 L42.67,128.007 C19.139,128.007 0.003,147.142 0.003,170.674 L0.003,426.674 C0.003,450.205 19.138,469.341 42.67,469.341 L405.337,469.341 C428.868,469.341 448.004,450.206 448.004,426.674 L448.004,360.709 C460.393,356.291 469.337,344.562 469.337,330.674 L469.337,266.674 C469.337,252.786 460.393,241.057 448.004,236.639 Z M383.944,128.007 L290.973,128.007 L360.702,87.411 L383.944,128.007 Z M350.103,68.898 L248.574,128.007 L206.461,128.007 L339.573,50.507 L350.103,68.898 Z M300.295,24.184 C305.118,21.361 310.753,20.611 316.139,22.049 C321.587,23.507 326.129,27.028 328.952,31.955 L328.974,31.994 L164.064,128.007 L121.953,128.007 L300.295,24.184 Z M426.67,426.674 C426.67,438.434 417.097,448.007 405.337,448.007 L42.67,448.007 C30.91,448.007 21.337,438.434 21.337,426.674 L21.337,170.674 C21.337,158.914 30.91,149.341 42.67,149.341 L405.337,149.341 C417.097,149.341 426.67,158.914 426.67,170.674 L426.67,234.674 L362.67,234.674 C327.378,234.674 298.67,263.382 298.67,298.674 C298.67,333.966 327.378,362.674 362.67,362.674 L426.67,362.674 L426.67,426.674 Z M448.004,330.674 C448.004,336.559 443.223,341.341 437.337,341.341 L362.67,341.341 C339.139,341.341 320.003,322.206 320.003,298.674 C320.003,275.143 339.138,256.007 362.67,256.007 L437.337,256.007 C443.222,256.007 448.004,260.788 448.004,266.674 L448.004,330.674 L448.004,330.674 Z" id="Shape"></path>
            <path d="M362.67,277.341 C350.91,277.341 341.337,286.914 341.337,298.674 C341.337,310.434 350.91,320.007 362.67,320.007 C374.43,320.007 384.003,310.434 384.003,298.674 C384.004,286.914 374.431,277.341 362.67,277.341 Z" id="Path"></path>
        </g>
        <g id="rupee" transform="translate(96.000000, 214.000000)" fill="#000000" fill-rule="nonzero">
            <path d="M166,0 L0,0 L0,33.0360508 L58.5397647,33.0360508 C80.0378398,33.0360508 98.3737571,46.845293 105.180314,66.0721016 L0,66.0721016 L0,99.1081523 L105.180314,99.1081523 C98.3737571,118.334961 80.0378398,132.144203 58.5397647,132.144203 L0,132.144203 L0,165.180254 L96.654238,262 L119.974513,238.639527 L46.6410606,165.181277 L58.5397647,165.181277 C98.3568991,165.181277 131.671942,136.761441 139.332129,99.1086641 L166,99.1086641 L166,66.0726133 L139.332129,66.0726133 C136.850423,53.8732383 131.674497,42.6445938 124.458238,33.0365625 L166,33.0365625 L166,0 Z" id="Path"></path>
        </g>
    </g>
</svg>