<?xml version="1.0" encoding="iso-8859-1"?>
<!-- Generator: Adobe Illustrator 19.0.0, SVG Export Plug-In . SVG Version: 6.00 Build 0)  -->
<svg version="1.1" id="Capa_1" xmlns="http://www.w3.org/2000/svg" xmlns:xlink="http://www.w3.org/1999/xlink" x="0px" y="0px"
	 viewBox="0 0 512 512" style="enable-background:new 0 0 512 512;" xml:space="preserve">
<g>
	<g>
		<path d="M409.601,340.834h-33.705c15.084-25.214,23.009-53.875,23.009-83.58c0-90.193-74.894-164.194-165.081-163.148
			c-40.236,0.466-77.013,15.575-105.253,40.23c-3.238,2.827-3.399,7.81-0.36,10.849c0.035,0.035,0.071,0.071,0.106,0.106
			c2.747,2.747,7.164,2.932,10.09,0.376c25.549-22.316,58.8-36.023,95.186-36.544c81.596-1.168,150.077,66.119,150.296,147.723
			c0.081,30.197-8.864,59.207-25.836,83.988H113.445c-16.904-24.67-25.842-53.476-25.842-83.581
			c0-29.502,8.672-57.014,23.597-80.129c1.911-2.96,1.542-6.84-0.95-9.331c-0.038-0.038-0.075-0.075-0.112-0.112
			c-3.326-3.326-8.9-2.783-11.456,1.166c-16.5,25.49-26.094,55.846-26.094,88.405c0,29.759,7.92,58.378,23.007,83.581H63.893
			c-4.111,0-7.695,3.167-7.819,7.276c-0.127,4.252,3.281,7.739,7.504,7.739v0.001h346.337c4.223,0,7.632-3.487,7.504-7.739
			C417.297,344.001,413.712,340.834,409.601,340.834z"/>
	</g>
</g>
<g>
	<g>
		<path d="M243.755,391.883H124.638c-4.146,0-7.507,3.361-7.507,7.507c0,4.146,3.361,7.507,7.507,7.507h119.116
			c4.146,0,7.507-3.361,7.507-7.507C251.262,395.244,247.9,391.883,243.755,391.883z"/>
	</g>
</g>
<g>
	<g>
		<path d="M347.856,391.883h-62.561c-4.146,0-7.507,3.361-7.507,7.507c0,4.146,3.361,7.507,7.507,7.507h62.561
			c4.146,0,7.507-3.361,7.507-7.507C355.363,395.244,352.002,391.883,347.856,391.883z"/>
	</g>
</g>
<g>
	<g>
		<path d="M297.307,441.931h-72.571c-4.146,0-7.507,3.361-7.507,7.507s3.361,7.507,7.507,7.507h72.571
			c4.146,0,7.507-3.361,7.507-7.507S301.453,441.931,297.307,441.931z"/>
	</g>
</g>
<g>
	<g>
		<path d="M191.203,441.931h-15.515c-4.146,0-7.507,3.361-7.507,7.507s3.361,7.507,7.507,7.507h15.515
			c4.146,0,7.507-3.361,7.507-7.507S195.349,441.931,191.203,441.931z"/>
	</g>
</g>
<g>
	<g>
		<path d="M269.279,496.985h-62.061c-4.146,0-7.507,3.361-7.507,7.507s3.361,7.507,7.507,7.507h62.061
			c4.146,0,7.507-3.361,7.507-7.507S273.425,496.985,269.279,496.985z"/>
	</g>
</g>
<g>
	<g>
		<path d="M384.623,4.954c-2.076-3.59-6.669-4.814-10.258-2.74c-7.325,4.237-13.238,9.038-17.852,14.516
			c-4.558-5.277-10.824-10.427-18.899-15.558c-3.501-2.224-8.139-1.188-10.363,2.311c-2.223,3.498-1.188,8.138,2.311,10.362
			c10.638,6.759,17.364,13.311,19.99,19.476c1.147,2.695,3.757,4.475,6.684,4.562c0.075,0.002,0.149,0.003,0.224,0.003
			c2.841,0,5.447-1.607,6.72-4.161c3.62-7.271,9.74-13.327,18.705-18.514C385.472,13.135,386.699,8.543,384.623,4.954z"/>
	</g>
</g>
<g>
	<g>
		<path d="M410.814,89.3c-2.077-3.59-6.671-4.814-10.258-2.739c-3.397,1.965-6.314,4.134-8.782,6.535
			c-2.501-2.401-5.566-4.751-9.218-7.071c-3.501-2.222-8.14-1.187-10.364,2.311c-2.223,3.499-1.189,8.139,2.311,10.363
			c6.987,4.439,9.49,7.805,10.36,9.846c1.147,2.694,3.757,4.475,6.685,4.562c0.075,0.002,0.149,0.003,0.224,0.003
			c2.841,0,5.447-1.607,6.72-4.161c1.811-3.637,4.945-6.71,9.583-9.392C411.664,97.482,412.89,92.888,410.814,89.3z"/>
	</g>
</g>
<g>
	<g>
		<path d="M454.918,42.331c-2.076-3.589-6.669-4.816-10.258-2.739c-3.397,1.965-6.314,4.133-8.781,6.534
			c-2.502-2.402-5.566-4.751-9.218-7.07c-3.498-2.224-8.139-1.188-10.362,2.311c-2.223,3.5-1.189,8.139,2.311,10.363
			c6.986,4.438,9.489,7.805,10.36,9.847c1.147,2.694,3.757,4.475,6.685,4.561c0.075,0.002,0.149,0.003,0.223,0.003
			c2.841,0,5.447-1.607,6.72-4.161c1.811-3.637,4.945-6.71,9.582-9.392C455.768,50.512,456.994,45.919,454.918,42.331z"/>
	</g>
</g>
<g>
</g>
<g>
</g>
<g>
</g>
<g>
</g>
<g>
</g>
<g>
</g>
<g>
</g>
<g>
</g>
<g>
</g>
<g>
</g>
<g>
</g>
<g>
</g>
<g>
</g>
<g>
</g>
<g>
</g>
</svg>
