<?xml version="1.0" encoding="utf-8"?>
<!-- Generator: Adobe Illustrator 24.1.2, SVG Export Plug-In . SVG Version: 6.00 Build 0)  -->
<svg version="1.1" id="Layer_1" xmlns="http://www.w3.org/2000/svg" xmlns:xlink="http://www.w3.org/1999/xlink" x="0px" y="0px"
	 viewBox="0 0 80 40" style="enable-background:new 0 0 80 40;" xml:space="preserve">
<style type="text/css">
	.st0{clip-path:url(#SVGID_2_);}
	.st1{clip-path:url(#SVGID_4_);fill:#32ad6b;}
	.st2{fill:none;stroke:#32ad6b;stroke-width:0.5628;stroke-miterlimit:10;}
	.st3{fill:#FFFFFF;}
	.st4{fill:#32ad6b;}
	.st5{fill:#010101;}
</style>
<g>
	<defs>
		<rect id="SVGID_1_" x="5.9" y="-3.3" width="65.5" height="43.1"/>
	</defs>
	<clipPath id="SVGID_2_">
		<use xlink:href="#SVGID_1_"  style="overflow:visible;"/>
	</clipPath>
	<g class="st0">
		<g>
			<path d="M39.5,35.7l1.9,2.4h-0.4l-1.8-2.2l-0.6,0.7v1.5h-0.3v-4.7h0.3v2.7l2.4-2.7h0.4L39.5,35.7z"/>
			<path d="M43.4,34.7c0.7,0,1.2,0.4,1.5,1l0-0.9h0.3v3.3h-0.3l0-0.9c-0.2,0.6-0.8,1-1.5,1c-1,0-1.7-0.8-1.7-1.7
				C41.7,35.5,42.5,34.7,43.4,34.7z M43.5,37.8c0.8,0,1.4-0.6,1.4-1.4c0-0.8-0.6-1.4-1.4-1.4c-0.8,0-1.4,0.6-1.4,1.4
				C42,37.2,42.7,37.8,43.5,37.8z"/>
			<path d="M49.1,36.2v1.9h-0.3v-1.8c0-0.9-0.4-1.3-1-1.3c-1,0-1.3,0.9-1.3,1.3v1.8h-0.3v-3.3h0.3l0,0.7c0.3-0.4,0.7-0.8,1.4-0.8
				C48.6,34.7,49.1,35.2,49.1,36.2z"/>
			<path d="M52.7,38.6c0,0.6-0.6,1-1.4,1c-0.8,0-1.4-0.4-1.4-1c0-0.4,0.3-0.7,0.5-0.8c-0.2-0.1-0.3-0.2-0.3-0.4
				c0-0.2,0.2-0.4,0.4-0.4c-0.4-0.2-0.6-0.6-0.6-1c0-0.7,0.6-1.2,1.3-1.2c0.2,0,0.4,0.1,0.6,0.1l0.8-0.1v0.3h-0.5
				c0.2,0.2,0.4,0.5,0.4,0.9c0,0.7-0.6,1.2-1.3,1.2c-0.2,0-0.4,0-0.5-0.1c-0.2,0.1-0.3,0.2-0.3,0.3c0,0.2,0.3,0.3,0.7,0.3
				C52.1,37.6,52.7,38,52.7,38.6z M51.2,36.9c0.6,0,1-0.4,1-1c0-0.5-0.4-1-1-1c-0.6,0-1,0.4-1,1C50.2,36.5,50.7,36.9,51.2,36.9z
				 M52.4,38.7c0-0.5-0.6-0.7-1.3-0.7c-0.1,0-0.2,0-0.3,0c-0.2,0.1-0.6,0.4-0.6,0.8c0,0.5,0.5,0.7,1.1,0.7
				C51.9,39.4,52.4,39.1,52.4,38.7z"/>
			<path d="M55,34.7c0.7,0,1.2,0.4,1.5,1l0-0.9h0.3v3.3h-0.3l0-0.9c-0.2,0.6-0.8,1-1.5,1c-1,0-1.7-0.8-1.7-1.7
				C53.3,35.5,54,34.7,55,34.7z M55,37.8c0.8,0,1.4-0.6,1.4-1.4c0-0.8-0.6-1.4-1.4-1.4c-0.8,0-1.4,0.6-1.4,1.4
				C53.6,37.2,54.2,37.8,55,37.8z"/>
			<path d="M59.3,34.9l-0.1,0.3c-0.1,0-0.2-0.1-0.4-0.1c-0.6,0-0.8,0.7-0.8,1.2v1.8h-0.3v-3.3h0.3l0,0.5c0.2-0.3,0.4-0.6,0.8-0.6
				C59.1,34.7,59.2,34.8,59.3,34.9z"/>
			<path d="M59.6,36.4c0-0.9,0.8-1.7,1.8-1.7c1,0,1.7,0.8,1.7,1.7c0,1-0.8,1.7-1.7,1.7C60.4,38.2,59.6,37.4,59.6,36.4z M62.8,36.4
				c0-0.8-0.6-1.4-1.4-1.4c-0.8,0-1.4,0.6-1.4,1.4c0,0.8,0.6,1.4,1.4,1.4C62.1,37.8,62.8,37.2,62.8,36.4z"/>
			<path d="M63.7,36.4c0-0.9,0.8-1.7,1.8-1.7c1,0,1.7,0.8,1.7,1.7c0,1-0.8,1.7-1.7,1.7C64.4,38.2,63.7,37.4,63.7,36.4z M66.8,36.4
				c0-0.8-0.6-1.4-1.4-1.4c-0.8,0-1.4,0.6-1.4,1.4c0,0.8,0.6,1.4,1.4,1.4C66.2,37.8,66.8,37.2,66.8,36.4z"/>
		</g>
		<g>
			<defs>
				
					<rect id="SVGID_3_" x="12.4" y="4.9" transform="matrix(-1 -1.224647e-16 1.224647e-16 -1 79.3306 37.0169)" width="54.5" height="27.3"/>
			</defs>
			<clipPath id="SVGID_4_">
				<use xlink:href="#SVGID_3_"  style="overflow:visible;"/>
			</clipPath>
			<circle class="st1" cx="39.9" cy="32.1" r="27"/>
		</g>
		<g>
			<path class="st2" d="M37.2,38.5c-0.7-0.2-0.9-0.7-0.9-1.2c0-1.9-1.1-3.1-2.5-4.1c-0.6-0.4-0.7-0.8-0.5-1.5
				c0.6-2.2,0.3-4.1-1.4-5.7c-0.3-0.3-0.6-0.6-0.9-0.8c-0.8-0.7-1.5-1.3-1.8-2.5c-0.7,0.3-1.5,0.5-2.1,0.9c-1.3,0.8-2.5,1.6-3.7,2.5
				c-1.8,1.3-3.7,2.6-5.9,3.3c-2.7,0.9-5.1,0.7-7.3-1.3c-0.1-0.1-0.1-0.1-0.2-0.2c2,1.2,4.1,1.2,6.2,0.2c0.9-0.4,1.7-0.9,2.5-1.4
				c1.6-1.1,2.8-2.5,4-3.9c2.3-2.9,4.9-5.4,8.2-7.3c2.3-1.3,4.7-2.2,7.4-2.1c2.9,0.2,5.3,1.3,6.8,3.9c0.3,0.6,0.7,1.1,1.1,1.6
				c0.2,0.4,0.5,0.7,0.8,1c1.1,1.3,2.3,1.5,3.1-0.4c0.2,0.1,0.4,0.2,0.6,0.3c-1-0.8-1-1.9-0.7-3c0.9,0.3,1.6,0.7,2,1.6
				c0.9-0.9,1.7-2,3.3-2c-0.3,1-0.7,1.9-1,2.8c-0.3,1-0.2,2,0.5,2.8c0.4,0.5,0.7,0.9,1.1,1.4c0.4,0.5,0.1,0.9-0.1,1.3
				c-0.3,0.3-0.6,0.6-1.1,0.4c-0.7-0.3-1.5-0.6-2.2-1c-0.8-0.4-1.7-0.6-2.6-0.4c-0.3,0.1-0.7,0.2-0.9,0.4c-0.9,1.1-2.1,1.4-3.4,1.5
				c-2.1,0.2-2.1,0.2-2.5,2.2c-0.1,0.5-0.3,1-0.4,1.5c-0.1,0.4-0.5,0.7-0.9,0.6c-0.5-0.1-0.9-0.3-1.3-0.6c-0.1,0,0-0.5,0.1-0.7
				c0-0.1,0.4,0,0.5,0.1c0.7,0.4,0.9,0.4,1-0.4c0.1-0.7,0-1.4-0.1-2c-0.1-0.9-0.2-1.7,0.6-2.4c-0.7,0.3-0.9,0.9-1,1.7
				c-1.2-0.1-2.4-0.2-3.5-0.4c-0.5-0.1-0.8,0-1,0.4c-0.2,0.5-0.4,0.9-0.6,1.4c-0.4,1-0.8,2-1.2,3c-0.4,0.9-0.4,1.8,0.1,2.7
				c0.4,0.8,0.8,1.5,1.3,2.3C37.6,36.3,37.4,37.4,37.2,38.5z"/>
			<path class="st3" d="M37.2,38.5c-0.7-0.2-0.9-0.7-0.9-1.2c0-1.9-1.1-3.1-2.5-4.1c-0.6-0.4-0.7-0.8-0.5-1.5
				c0.6-2.2,0.3-4.1-1.4-5.7c-0.3-0.3-0.6-0.6-0.9-0.8c-0.8-0.7-1.5-1.3-1.8-2.5c-0.7,0.3-1.5,0.5-2.1,0.9c-1.3,0.8-2.5,1.6-3.7,2.5
				c-1.8,1.3-3.7,2.6-5.9,3.3c-2.7,0.9-5.1,0.7-7.3-1.3c-0.1-0.1-0.1-0.1-0.2-0.2c2,1.2,4.1,1.2,6.2,0.2c0.9-0.4,1.7-0.9,2.5-1.4
				c1.6-1.1,2.8-2.5,4-3.9c2.3-2.9,4.9-5.4,8.2-7.3c2.3-1.3,4.7-2.2,7.4-2.1c2.9,0.2,5.3,1.3,6.8,3.9c0.3,0.6,0.7,1.1,1.1,1.6
				c0.2,0.4,0.5,0.7,0.8,1c1.1,1.3,2.3,1.5,3.1-0.4c0.2,0.1,0.4,0.2,0.6,0.3c-1-0.8-1-1.9-0.7-3c0.9,0.3,1.6,0.7,2,1.6
				c0.9-0.9,1.7-2,3.3-2c-0.3,1-0.7,1.9-1,2.8c-0.3,1-0.2,2,0.5,2.8c0.4,0.5,0.7,0.9,1.1,1.4c0.4,0.5,0.1,0.9-0.1,1.3
				c-0.3,0.3-0.6,0.6-1.1,0.4c-0.7-0.3-1.5-0.6-2.2-1c-0.8-0.4-1.7-0.6-2.6-0.4c-0.3,0.1-0.7,0.2-0.9,0.4c-0.9,1.1-2.1,1.4-3.4,1.5
				c-2.1,0.2-2.1,0.2-2.5,2.2c-0.1,0.5-0.3,1-0.4,1.5c-0.1,0.4-0.5,0.7-0.9,0.6c-0.5-0.1-0.9-0.3-1.3-0.6c-0.1,0,0-0.5,0.1-0.7
				c0-0.1,0.4,0,0.5,0.1c0.7,0.4,0.9,0.4,1-0.4c0.1-0.7,0-1.4-0.1-2c-0.1-0.9-0.2-1.7,0.6-2.4c-0.7,0.3-0.9,0.9-1,1.7
				c-1.2-0.1-2.4-0.2-3.5-0.4c-0.5-0.1-0.8,0-1,0.4c-0.2,0.5-0.4,0.9-0.6,1.4c-0.4,1-0.8,2-1.2,3c-0.4,0.9-0.4,1.8,0.1,2.7
				c0.4,0.8,0.8,1.5,1.3,2.3C37.6,36.3,37.4,37.4,37.2,38.5z"/>
		</g>
		<g>
			<path class="st4" d="M16.7,33.3v4.7h-0.8V36h-2.2v1.9h-0.8v-4.7h0.8v2h2.2v-2H16.7z"/>
			<path class="st4" d="M20.6,36.5H18c0,0.4,0.3,0.8,0.9,0.8c0.4,0,0.7-0.2,0.8-0.5l0.7,0.1c-0.1,0.5-0.6,1.1-1.5,1.1
				c-1,0-1.7-0.8-1.7-1.7c0-0.9,0.7-1.7,1.7-1.7c1,0,1.7,0.8,1.7,1.8V36.5z M18,36h1.7c0-0.4-0.3-0.7-0.9-0.7
				C18.4,35.3,18.1,35.6,18,36z"/>
			<path class="st4" d="M22.6,34.5c0.6,0,1,0.3,1.2,0.7l0-0.6h0.8v3.3h-0.8l0-0.6c-0.2,0.4-0.6,0.7-1.2,0.7c-1,0-1.6-0.8-1.6-1.7
				C21,35.3,21.7,34.5,22.6,34.5z M22.8,37.2c0.6,0,1-0.4,1-1c0-0.5-0.4-1-1-1c-0.6,0-1,0.4-1,1C21.8,36.8,22.2,37.2,22.8,37.2z"/>
			<path class="st4" d="M26.1,37.9h-0.8V33h0.8V37.9z"/>
			<path class="st4" d="M28.7,35.4H28v2.6h-0.8v-2.6h-0.5v-0.8h0.5v-1H28v1h0.7V35.4z"/>
			<path class="st4" d="M32.5,36v2h-0.8v-1.6c0-0.8-0.3-1-0.7-1c-0.6,0-0.9,0.4-0.9,1v1.7h-0.8V33H30v2.1c0.3-0.3,0.7-0.6,1.2-0.6
				C32.1,34.5,32.5,35.1,32.5,36z"/>
		</g>
		<g>
			<path class="st5" d="M13,20.4c-0.5-0.2-0.7-0.8-0.4-1.2c0.2-0.5,0.8-0.7,1.3-0.4c0.5,0.2,0.7,0.8,0.4,1.2
				C14.1,20.4,13.5,20.6,13,20.4z M13.7,19c-0.3-0.2-0.7,0-0.8,0.3c-0.2,0.3,0,0.7,0.3,0.8c0.3,0.2,0.7,0,0.8-0.3
				C14.2,19.5,14,19.2,13.7,19z"/>
			<path class="st5" d="M14.5,15.7l1.6,1L15.9,17l-1.6,0.1l1.1,0.7L15.3,18l-1.6-1l0.2-0.3l1.6-0.1L14.4,16L14.5,15.7z"/>
			<path class="st5" d="M15.7,14.5l0.4,0.3l0.3-0.5l0.2,0.2L16.3,15l0.4,0.3l0.4-0.6l0.2,0.2l-0.6,0.8l-1.5-1.1l0.6-0.8l0.2,0.2
				L15.7,14.5z"/>
			<path class="st5" d="M18.3,12.5l0.2,0.2l-0.7,0.8l-0.2-0.2L18.3,12.5z"/>
			<path class="st5" d="M19.8,11.4c0.1,0.1,0.3,0.1,0.4,0c0.1-0.1,0.1-0.2,0.1-0.3c-0.1-0.1-0.3-0.1-0.5,0c-0.4,0.1-0.6,0.1-0.8-0.1
				c-0.2-0.2-0.2-0.5,0.1-0.7c0.2-0.2,0.6-0.2,0.8,0l-0.2,0.2c-0.1-0.1-0.3-0.1-0.4,0c-0.1,0.1-0.1,0.2,0,0.3c0.1,0.1,0.2,0.1,0.4,0
				c0.4-0.1,0.6-0.1,0.8,0.1c0.2,0.2,0.1,0.5-0.1,0.8c-0.3,0.3-0.6,0.2-0.8,0L19.8,11.4z"/>
			<path class="st5" d="M21.5,8.5l-0.3,0.3l1,1.2l-0.2,0.2L21,9l-0.3,0.3L20.4,9l0.9-0.7L21.5,8.5z"/>
			<path class="st5" d="M22.8,8.3c-0.3-0.4-0.2-1,0.2-1.3c0.4-0.3,1-0.2,1.3,0.3c0.3,0.4,0.2,1-0.2,1.3C23.7,8.8,23.1,8.7,22.8,8.3z
				 M24.1,7.4c-0.2-0.3-0.6-0.4-0.9-0.2c-0.3,0.2-0.3,0.6-0.2,0.9c0.2,0.3,0.6,0.4,0.9,0.2C24.3,8.1,24.3,7.7,24.1,7.4z"/>
			<path class="st5" d="M26.5,5.7c0.2,0.4,0,0.7-0.3,0.9l-0.3,0.2l0.3,0.5l-0.3,0.2l-0.9-1.6l0.6-0.3C26,5.3,26.4,5.4,26.5,5.7z
				 M26.3,5.9c-0.1-0.2-0.3-0.2-0.5-0.1l-0.3,0.2l0.3,0.6l0.3-0.2C26.3,6.2,26.4,6,26.3,5.9z"/>
			<path class="st5" d="M30.6,3.3l0.6,1.7l-0.3,0.1l-0.3-0.7l-0.8,0.3l0.3,0.7l-0.3,0.1l-0.6-1.7l0.3-0.1l0.3,0.7l0.8-0.3l-0.3-0.7
				L30.6,3.3z"/>
			<path class="st5" d="M32.3,3.2l0.1,0.4l0.5-0.1L33,3.7l-0.5,0.1l0.1,0.5l0.7-0.2l0.1,0.3l-1,0.3L31.9,3l1-0.3L33,3L32.3,3.2z"/>
			<path class="st5" d="M35.6,3.6l-0.7,0.1l-0.1,0.4l-0.3,0.1l0.3-1.9l0.4-0.1l1,1.7L35.8,4L35.6,3.6z M35.4,3.3l-0.4-0.7l-0.1,0.7
				L35.4,3.3z"/>
			<path class="st5" d="M38.3,3.4l0,0.3l-1.1,0.1L37.2,2l0.3,0l0.1,1.5L38.3,3.4z"/>
			<path class="st5" d="M40.5,2.1l-0.4,0l0,1.5l-0.3,0l0-1.5l-0.4,0l0-0.3l1.2,0L40.5,2.1z"/>
			<path class="st5" d="M43.4,2l-0.1,1.8l-0.3,0L42.9,3L42.1,3L42,3.7l-0.3,0l0.1-1.8l0.3,0l-0.1,0.8L43,2.7L43,2L43.4,2z"/>
			<path class="st5" d="M45.6,2.6c-0.3-0.1-0.7,0.2-0.7,0.5c-0.1,0.4,0.2,0.7,0.5,0.7c0.3,0,0.4-0.1,0.5-0.1l-0.1,0.3
				c-0.1,0.1-0.3,0.1-0.6,0.1c-0.5-0.1-0.8-0.6-0.7-1.1c0.1-0.5,0.6-0.9,1.1-0.8c0.3,0,0.4,0.2,0.5,0.3L46,2.9
				C46,2.8,45.9,2.6,45.6,2.6z"/>
			<path class="st5" d="M48.2,4.4l-0.7-0.2l-0.2,0.4l-0.3-0.1L48,2.9l0.3,0.1l0.2,1.9l-0.3-0.1L48.2,4.4z M48.1,4.1l-0.1-0.8
				l-0.4,0.6L48.1,4.1z"/>
			<path class="st5" d="M50.4,4.9l-0.3-0.1l-0.2,0.5l-0.3-0.1l0.6-1.7l0.6,0.2c0.3,0.1,0.5,0.4,0.4,0.8C51.2,4.9,51,5,50.7,5
				l0.1,0.7l-0.3-0.1L50.4,4.9z M50.2,4.5l0.3,0.1c0.2,0.1,0.3,0,0.4-0.2c0.1-0.2,0-0.4-0.2-0.4l-0.3-0.1L50.2,4.5z"/>
			<path class="st5" d="M53,5l-0.2,0.4l0.5,0.2l-0.1,0.3l-0.5-0.2l-0.2,0.4l0.6,0.3l-0.1,0.3L52,6.2l0.8-1.7L53.7,5l-0.1,0.3L53,5z"
				/>
			<path class="st5" d="M56.1,7.9c-0.1,0.2,0,0.3,0.1,0.4c0.1,0.1,0.3,0.1,0.3,0c0.1-0.1,0-0.3-0.1-0.5c-0.2-0.4-0.2-0.6-0.1-0.8
				c0.2-0.2,0.5-0.3,0.7-0.1c0.3,0.2,0.3,0.5,0.2,0.8l-0.3-0.2C57,7.4,57,7.2,56.9,7.2c-0.1-0.1-0.2-0.1-0.3,0
				c-0.1,0.1,0,0.2,0.1,0.4c0.2,0.4,0.3,0.6,0.1,0.8c-0.2,0.3-0.5,0.3-0.8,0.1c-0.3-0.2-0.4-0.6-0.2-0.8L56.1,7.9z"/>
			<path class="st5" d="M58,8.8c0.3-0.4,0.9-0.5,1.3-0.1c0.4,0.3,0.5,0.9,0.1,1.3c-0.3,0.4-0.9,0.5-1.3,0.1
				C57.8,9.7,57.7,9.2,58,8.8z M59.2,9.7c0.2-0.3,0.2-0.7-0.1-0.9c-0.3-0.2-0.7-0.2-0.9,0.1c-0.2,0.3-0.2,0.7,0.1,0.9
				C58.6,10.1,59,10,59.2,9.7z"/>
			<path class="st5" d="M60.8,12l-0.2,0.2l-0.8-0.7l1.3-1.3l0.2,0.2l-1.1,1.1L60.8,12z"/>
			<path class="st5" d="M61.9,13.7c-0.3-0.3-0.3-0.7,0.1-1.1l0.8-0.7l0.2,0.2l-0.8,0.7c-0.3,0.2-0.3,0.5-0.1,0.7
				c0.2,0.2,0.4,0.2,0.7,0l0.8-0.7l0.2,0.2L63,13.7C62.5,14.1,62.2,14,61.9,13.7z"/>
			<path class="st5" d="M65.1,15.2l-0.3-0.4l-1.2,0.9l-0.2-0.3l1.2-0.9l-0.3-0.4l0.2-0.2l0.7,1L65.1,15.2z"/>
			<path class="st5" d="M66,16.2l0.2,0.3l-1.6,1l-0.2-0.3L66,16.2z"/>
			<path class="st5" d="M66.1,18c0.5-0.2,1-0.1,1.3,0.4c0.2,0.5,0,1-0.4,1.3c-0.5,0.2-1,0.1-1.3-0.4C65.4,18.8,65.6,18.3,66.1,18z
				 M66.8,19.4c0.3-0.2,0.5-0.5,0.3-0.8s-0.5-0.4-0.9-0.3c-0.3,0.2-0.5,0.5-0.3,0.8C66.1,19.5,66.5,19.6,66.8,19.4z"/>
			<path class="st5" d="M68.9,22.1l-1.7,0.7l-0.1-0.3l0.9-1.3l-1.2,0.5l-0.1-0.3l1.7-0.7l0.1,0.3l-0.9,1.3l1.2-0.5L68.9,22.1z"/>
		</g>
	</g>
</g>
</svg>
