<svg width="40" height="36" viewBox="0 0 40 36" fill="none" xmlns="http://www.w3.org/2000/svg">
<g clip-path="url(#clip0)">
<path d="M24.5747 10.8259H16.7194C16.3598 10.8259 16.0684 11.1031 16.0684 11.4451C16.0684 11.7869 16.3598 12.0642 16.7194 12.0642H24.5747C24.9343 12.0642 25.2257 11.7869 25.2257 11.4451C25.2257 11.1031 24.9343 10.8259 24.5747 10.8259Z" fill="#989dd6"/>
<path d="M24.5747 13.798H16.7194C16.3598 13.798 16.0684 14.0751 16.0684 14.4171C16.0684 14.7589 16.3598 15.0362 16.7194 15.0362H24.5747C24.9343 15.0362 25.2257 14.7589 25.2257 14.4171C25.2257 14.0751 24.9343 13.798 24.5747 13.798Z" fill="#989dd6"/>
<path d="M16.7194 24.8597H24.5747C24.9343 24.8597 25.2257 24.5824 25.2257 24.2406C25.2257 23.8986 24.9343 23.6215 24.5747 23.6215H16.7194C16.3598 23.6215 16.0684 23.8986 16.0684 24.2406C16.0684 24.5824 16.3598 24.8597 16.7194 24.8597Z" fill="#989dd6"/>
<path d="M30.0433 15.9235H28.9583V8.91518C28.9583 8.00486 28.1797 7.26416 27.2223 7.26416H14.1156C13.1582 7.26416 12.3796 8.00486 12.3796 8.91518V15.9235H11.2946C10.3374 15.9235 9.55859 16.664 9.55859 17.5745V21.289C9.55859 22.1995 10.3374 22.94 11.2946 22.94H12.3796V26.7463C12.3796 27.6566 13.1582 28.3973 14.1156 28.3973H27.2223C28.1797 28.3973 28.9583 27.6566 28.9583 26.7463V22.94H30.0433C31.0005 22.94 31.7793 22.1995 31.7793 21.289V17.5745C31.7793 16.664 31.0005 15.9235 30.0433 15.9235ZM30.4773 21.289C30.4773 21.5167 30.2827 21.7018 30.0433 21.7018H11.2946C11.0552 21.7018 10.8606 21.5167 10.8606 21.289V17.5745C10.8606 17.3469 11.0552 17.1618 11.2946 17.1618H30.0433C30.2827 17.1618 30.4773 17.3469 30.4773 17.5745V21.289ZM13.6816 8.91518C13.6816 8.68752 13.8762 8.50243 14.1156 8.50243H27.2223C27.4617 8.50243 27.6563 8.68752 27.6563 8.91518V15.9235H13.6816V8.91518ZM27.6563 26.7463C27.6563 26.9739 27.4617 27.159 27.2223 27.159H14.1156C13.8762 27.159 13.6816 26.9739 13.6816 26.7463V22.94H27.6563V26.7463Z" fill="#989dd6"/>
<path d="M25.0963 18.8127C24.9249 18.8127 24.7574 18.8788 24.6359 18.994C24.5148 19.1096 24.4453 19.2689 24.4453 19.4319C24.4453 19.5949 24.5148 19.7542 24.6359 19.8698C24.7574 19.9849 24.9249 20.051 25.0963 20.051C25.2677 20.051 25.4352 19.9849 25.5568 19.8698C25.6778 19.7542 25.7473 19.5949 25.7473 19.4319C25.7473 19.2689 25.6778 19.1091 25.5568 18.994C25.4352 18.8788 25.2677 18.8127 25.0963 18.8127Z" fill="#989dd6"/>
<path d="M27.5929 18.994C27.4713 18.8788 27.3038 18.8127 27.1324 18.8127C26.961 18.8127 26.7936 18.8788 26.672 18.994C26.551 19.1096 26.4814 19.2689 26.4814 19.4319C26.4814 19.5949 26.551 19.7542 26.672 19.8698C26.7936 19.9849 26.961 20.051 27.1324 20.051C27.3038 20.051 27.4713 19.9849 27.5929 19.8698C27.7139 19.7542 27.7834 19.5949 27.7834 19.4319C27.7834 19.2689 27.7139 19.1091 27.5929 18.994Z" fill="#989dd6"/>
<path d="M22.9242 18.7922H17.5426C17.183 18.7922 16.8916 19.0694 16.8916 19.4114C16.8916 19.7532 17.183 20.0305 17.5426 20.0305H22.9242C23.2838 20.0305 23.5752 19.7532 23.5752 19.4114C23.5752 19.0694 23.2838 18.7922 22.9242 18.7922Z" fill="#989dd6"/>
</g>
<path d="M40.0006 35.3711H31.1123V31.9898H36.4453V25.6499H40.0006V35.3711Z" fill="#989dd6"/>
<path d="M0.00233459 0.290344L8.89063 0.290344L8.89062 3.67161L3.55765 3.67161L3.55765 10.0115L0.00233459 10.0115L0.00233459 0.290344Z" fill="#989dd6"/>
<path d="M40.0006 0.290344L31.1123 0.290344V3.67161L36.4453 3.67161V10.0115L40.0006 10.0115V0.290344Z" fill="#989dd6"/>
<path d="M0.00721741 35.2815H8.89551V31.9002H3.56253L3.56253 25.5603H0.00721741L0.00721741 35.2815Z" fill="#989dd6"/>
<defs>
<clipPath id="clip0">
<rect width="22.2207" height="21.1331" fill="#989dd6" transform="translate(9.55664 7.26416)"/>
</clipPath>
</defs>
</svg>
