<svg width="28" height="32" viewBox="0 0 28 32" fill="none" xmlns="http://www.w3.org/2000/svg">
<path d="M16.9124 15.6346L26.7338 4.62177C27.1639 4.13838 27.4083 3.48028 27.4133 2.79226C27.4183 2.10424 27.1835 1.44265 26.7605 0.953044C26.3375 0.463434 25.7609 0.185907 25.1577 0.181515C24.5544 0.177123 23.9739 0.446226 23.5438 0.929624L13.7449 11.9684L4.10778 0.788117C3.68476 0.298508 3.10821 0.0209803 2.50497 0.0165883C1.90172 0.0121963 1.32119 0.281299 0.891094 0.764697C0.460993 1.2481 0.21655 1.90619 0.211541 2.59421C0.206532 3.28223 0.441366 3.94382 0.864383 4.43343L10.5244 15.588L0.70299 26.6008C0.488921 26.8395 0.318318 27.124 0.201021 27.438C0.0837236 27.752 0.0220543 28.0892 0.0195711 28.4303C0.0170879 28.7714 0.07384 29.1095 0.186553 29.4252C0.299265 29.7408 0.465707 30.0278 0.676279 30.2695C0.885102 30.5132 1.13424 30.7073 1.40933 30.8404C1.68442 30.9736 1.98001 31.0433 2.27906 31.0455C2.5781 31.0477 2.87468 30.9823 3.15167 30.8531C3.42867 30.724 3.68061 30.5336 3.89296 30.293L13.6919 19.2542L23.329 30.4345C23.5378 30.6782 23.787 30.8722 24.062 31.0054C24.3371 31.1385 24.6327 31.2082 24.9318 31.2104C25.2308 31.2126 25.5274 31.1472 25.8044 31.0181C26.0814 30.8889 26.3333 30.6985 26.5457 30.4579C26.7597 30.2193 26.9303 29.9347 27.0476 29.6207C27.1649 29.3067 27.2266 28.9695 27.2291 28.6284C27.2316 28.2873 27.1748 27.9492 27.0621 27.6335C26.9494 27.3179 26.783 27.0309 26.5724 26.7892L16.9124 15.6346Z" fill="#636363"/>
</svg>
