<svg width="30" height="30" viewBox="0 0 30 30" fill="none" xmlns="http://www.w3.org/2000/svg">
<path d="M15 25.5902C16.3269 26.7778 18.0791 27.5 20 27.5C24.1421 27.5 27.5 24.1421 27.5 20C27.5 16.5053 25.1098 13.5688 21.875 12.7362" stroke="black" stroke-opacity="0.85" stroke-width="2" stroke-linejoin="round"/>
<path d="M8.125 12.7362C4.8902 13.5688 2.5 16.5053 2.5 20C2.5 24.1421 5.85786 27.5 10 27.5C14.1421 27.5 17.5 24.1421 17.5 20C17.5 19.0315 17.3164 18.106 16.9823 17.2562" fill="#D6E1FF"/>
<path d="M8.125 12.7362C4.8902 13.5688 2.5 16.5053 2.5 20C2.5 24.1421 5.85786 27.5 10 27.5C14.1421 27.5 17.5 24.1421 17.5 20C17.5 19.0315 17.3164 18.106 16.9823 17.2562" stroke="black" stroke-opacity="0.85" stroke-width="2" stroke-linejoin="round"/>
<path d="M15 17.5C19.1421 17.5 22.5 14.1421 22.5 10C22.5 5.85786 19.1421 2.5 15 2.5C10.8579 2.5 7.5 5.85786 7.5 10C7.5 14.1421 10.8579 17.5 15 17.5Z" fill="#FFBBBB" fill-opacity="0.46" stroke="black" stroke-opacity="0.85" stroke-width="2" stroke-linejoin="round"/>
</svg>
