<svg width="40" height="40" viewBox="0 0 40 40" fill="none" xmlns="http://www.w3.org/2000/svg">
<path d="M8.28125 40H31.7188C33.6573 40 35.2344 38.423 35.2344 36.4844V11.7188H27.0312C25.0927 11.7188 23.5156 10.1417 23.5156 8.20312V0H8.28125C6.34266 0 4.76562 1.57703 4.76562 3.51562V36.4844C4.76562 38.423 6.34266 40 8.28125 40ZM12.9688 16.4844H27.0312C27.679 16.4844 28.2031 17.0085 28.2031 17.6562C28.2031 18.304 27.679 18.8281 27.0312 18.8281H12.9688C12.321 18.8281 11.7969 18.304 11.7969 17.6562C11.7969 17.0085 12.321 16.4844 12.9688 16.4844ZM12.9688 21.1719H27.0312C27.679 21.1719 28.2031 21.696 28.2031 22.3438C28.2031 22.9915 27.679 23.5156 27.0312 23.5156H12.9688C12.321 23.5156 11.7969 22.9915 11.7969 22.3438C11.7969 21.696 12.321 21.1719 12.9688 21.1719ZM12.9688 25.8594H27.0312C27.679 25.8594 28.2031 26.3835 28.2031 27.0312C28.2031 27.679 27.679 28.2031 27.0312 28.2031H12.9688C12.321 28.2031 11.7969 27.679 11.7969 27.0312C11.7969 26.3835 12.321 25.8594 12.9688 25.8594ZM12.9688 30.5469H22.3438C22.9915 30.5469 23.5156 31.071 23.5156 31.7188C23.5156 32.3665 22.9915 32.8906 22.3438 32.8906H12.9688C12.321 32.8906 11.7969 32.3665 11.7969 31.7188C11.7969 31.071 12.321 30.5469 12.9688 30.5469Z" fill="#6E7191"/>
<path d="M27.0312 9.375H34.5477L25.8594 0.686646V8.20313C25.8594 8.84969 26.3847 9.375 27.0312 9.375Z" fill="#6E7191"/>
</svg>
