<svg width="44" height="44" viewBox="0 0 44 44" fill="none" xmlns="http://www.w3.org/2000/svg">
<g clip-path="url(#clip0)">
<path d="M0.859375 20.6281C1.0853 20.6281 1.30685 20.5367 1.46664 20.3763C1.62643 20.2165 1.71841 19.9956 1.71841 19.7687C1.71841 19.5428 1.62677 19.3209 1.46664 19.1611C1.30685 19.0013 1.0853 18.9093 0.859375 18.9093C0.633453 18.9093 0.41156 19.0013 0.25177 19.1611C0.0919799 19.3209 0 19.5428 0 19.7687C0 19.9956 0.0919799 20.2165 0.25177 20.3763C0.41156 20.5367 0.633453 20.6281 0.859375 20.6281Z" fill="#FD6EB3"/>
<path d="M18.6464 34.4492C19.121 34.4492 19.5057 34.0645 19.5057 33.5902C19.5057 33.1155 19.121 32.7308 18.6464 32.7308H12.6455C12.1708 32.7308 11.7861 33.1155 11.7861 33.5902C11.7861 34.0645 12.1708 34.4492 12.6455 34.4492H18.6464Z" fill="#FD6EB3"/>
<path d="M9.28656 21.1053C9.31711 21.1382 9.34967 21.1694 9.38559 21.1976C11.0365 22.7106 13.235 23.6354 15.6456 23.6354C18.0562 23.6354 20.2547 22.7109 21.9056 21.1976C21.9415 21.1694 21.9744 21.1382 22.0046 21.1053C23.7979 19.4134 24.9191 17.0162 24.9191 14.3619C24.9191 9.24863 20.7592 5.08838 15.6456 5.08838C10.5323 5.08838 6.37207 9.24863 6.37207 14.3619C6.37207 17.0162 7.49329 19.4134 9.28656 21.1053ZM10.9674 20.2903C11.8795 18.5645 13.657 17.4788 15.6456 17.4788C17.6342 17.4788 19.4117 18.5645 20.3238 20.2903C19.0361 21.3084 17.4107 21.917 15.6456 21.917C13.8805 21.917 12.2548 21.3084 10.9674 20.2903ZM13.8369 13.9514V13.2847C13.8369 12.2873 14.6483 11.476 15.6456 11.476C16.6429 11.476 17.4543 12.2873 17.4543 13.2847V13.9514C17.4543 14.9487 16.6429 15.7601 15.6456 15.7601C14.6483 15.7601 13.8369 14.9487 13.8369 13.9514ZM15.6456 6.80679C19.8116 6.80679 23.2007 10.196 23.2007 14.3619C23.2007 16.123 22.5948 17.7454 21.5807 19.0314C20.7941 17.7769 19.6434 16.8202 18.2966 16.2744C18.8414 15.6533 19.1727 14.8406 19.1727 13.9514V13.2843C19.1727 11.3397 17.5906 9.7572 15.6456 9.7572C13.7006 9.7572 12.1185 11.3397 12.1185 13.2843V13.9514C12.1185 14.8406 12.4498 15.6533 12.9946 16.2744C11.6478 16.8202 10.4967 17.7769 9.71021 19.0314C8.69641 17.7454 8.09048 16.123 8.09048 14.3619C8.09048 10.196 11.4796 6.80679 15.6456 6.80679Z" fill="#FD6EB3"/>
<path d="M40.7787 25.224C38.7011 23.1464 35.939 22.0023 33.0013 22.0023C32.4186 22.0023 31.8429 22.048 31.2779 22.1366V2.57779C31.2779 1.15646 30.1214 0 28.7001 0H2.57779C1.15646 0 0 1.15646 0 2.57779V16.3318C0 16.8065 0.384705 17.1912 0.859375 17.1912C1.33371 17.1912 1.71841 16.8065 1.71841 16.3318V2.57779C1.71841 2.10413 2.10413 1.71841 2.57779 1.71841H28.7001C29.1738 1.71841 29.5595 2.10413 29.5595 2.57779V22.5492C27.9428 23.0796 26.4617 23.986 25.2237 25.2237C25.134 25.3136 25.0468 25.4053 24.9605 25.4976C24.892 25.4801 24.8212 25.4697 24.7473 25.4697H6.53058C6.05591 25.4697 5.6712 25.8544 5.6712 26.3291V29.7663C5.6712 30.2409 6.05591 30.6256 6.53058 30.6256H22.2585C22.0896 31.3971 22.0023 32.1923 22.0023 33.0013C22.0023 34.6986 22.385 36.3371 23.1085 37.8192H2.57779C2.10413 37.8192 1.71841 37.4338 1.71841 36.9598V23.2061C1.71841 22.7315 1.33371 22.3468 0.859375 22.3468C0.384705 22.3468 0 22.7315 0 23.2061V36.9598C0 38.3812 1.15646 39.5376 2.57779 39.5376H24.1525C24.4757 39.9734 24.8333 40.3879 25.2237 40.7787C27.3013 42.856 30.0634 44 33.0013 44C35.939 44 38.7011 42.856 40.7787 40.7787C42.856 38.7011 44 35.939 44 33.0013C44 30.0634 42.856 27.3013 40.7787 25.224ZM7.38995 28.9069V27.1885H23.6597C23.3176 27.736 23.0262 28.3107 22.7872 28.9069H7.38995ZM39.5631 39.5635C37.8105 41.3161 35.4801 42.2816 33.0013 42.2816C30.5222 42.2816 28.1919 41.3161 26.4392 39.5631C26.0213 39.1455 25.6487 38.6944 25.3227 38.2167C25.3133 38.2019 25.3032 38.1878 25.2932 38.1737C24.2706 36.657 23.7208 34.8715 23.7208 33.0013C23.7208 30.5222 24.6862 28.1919 26.4392 26.4392C27.5846 25.2938 28.9767 24.4848 30.4957 24.0615C30.5927 24.0528 30.6847 24.0279 30.7697 23.9897C31.4914 23.8124 32.2393 23.7208 33.0013 23.7208C35.4801 23.7208 37.8105 24.6862 39.5631 26.4392C41.3161 28.1919 42.2816 30.5222 42.2816 33.0013C42.2816 35.4801 41.3161 37.8105 39.5631 39.5635Z" fill="#FD6EB3"/>
<path d="M32.9932 38.6692C32.5188 38.6692 32.1338 39.0539 32.1338 39.5286V40.1479C32.1338 40.6223 32.5188 41.007 32.9932 41.007C33.4678 41.007 33.8525 40.6223 33.8525 40.1479V39.5286C33.8525 39.0539 33.4678 38.6692 32.9932 38.6692Z" fill="#FD6EB3"/>
<path d="M32.9932 27.3333C33.4678 27.3333 33.8525 26.9485 33.8525 26.4739V25.8545C33.8525 25.3802 33.4678 24.9955 32.9932 24.9955C32.5188 24.9955 32.1338 25.3802 32.1338 25.8545V26.4739C32.1338 26.9485 32.5188 27.3333 32.9932 27.3333Z" fill="#FD6EB3"/>
<path d="M26.4735 32.1335H25.8545C25.3798 32.1335 24.9951 32.5182 24.9951 32.9929C24.9951 33.4676 25.3798 33.8523 25.8545 33.8523H26.4735C26.9482 33.8523 27.3329 33.4676 27.3329 32.9929C27.3329 32.5182 26.9482 32.1335 26.4735 32.1335Z" fill="#FD6EB3"/>
<path d="M40.1477 32.1499H39.5283C39.0536 32.1499 38.6689 32.5346 38.6689 33.0093C38.6689 33.4839 39.0536 33.8687 39.5283 33.8687H40.1477C40.622 33.8687 41.0067 33.4839 41.0067 33.0093C41.0067 32.5346 40.622 32.1499 40.1477 32.1499Z" fill="#FD6EB3"/>
<path d="M36.9487 27.8235L33.0076 31.7769L31.4259 30.1209C31.0982 29.7775 30.5541 29.7654 30.211 30.0931C29.8679 30.4207 29.8555 30.9649 30.1831 31.308L32.3668 33.5947C32.5293 33.7642 32.7535 33.8602 32.9882 33.8602H33.0006C33.2289 33.8602 33.4477 33.7693 33.6089 33.6078L38.1659 29.0367C38.5009 28.7006 38.5003 28.1565 38.1639 27.8214C37.8279 27.4864 37.2837 27.4871 36.9487 27.8235Z" fill="#FD6EB3"/>
</g>
<defs>
<clipPath id="clip0">
<rect width="44" height="44" fill="white"/>
</clipPath>
</defs>
</svg>
