<svg width="42" height="42" viewBox="0 0 42 42" fill="none" xmlns="http://www.w3.org/2000/svg">
<g clip-path="url(#clip0)">
<path d="M23.9925 42H18.0075L15.5991 36.9141L13.5672 36.0713L8.26753 37.9654L4.03459 33.7325L5.92868 28.4328L5.08594 26.4009L0 23.9925V18.0075L5.08594 15.5991L5.92868 13.5672L4.03459 8.26753L8.26753 4.03459L13.5701 5.92996L15.5978 5.08978L18.0075 0H23.9925L26.4022 5.08978L28.4299 5.92996L33.7325 4.03459L37.9654 8.26753L36.0713 13.5672L36.9141 15.5991L42 18.0075V23.9925L36.9141 26.4009L36.0713 28.4328L37.9654 33.7325L33.7325 37.9654L28.4328 36.0713L26.4009 36.9141L23.9925 42Z" fill="#07DAB1"/>
<path d="M26.25 28.875H15.75V19.6875H10.2715L21 7.17163L31.7284 19.6875H26.25V28.875Z" fill="white"/>
<path d="M23.625 31.5H26.25V34.125H23.625V31.5Z" fill="#07DAB1"/>
<path d="M15.75 31.5H18.375V34.125H15.75V31.5Z" fill="#07DAB1"/>
</g>
<defs>
<clipPath id="clip0">
<rect width="42" height="42" fill="white"/>
</clipPath>
</defs>
</svg>
