<svg width="38" height="38" viewBox="0 0 38 38" fill="none" xmlns="http://www.w3.org/2000/svg">
<path d="M27.6259 0H4.52734V38H33.4738V5.84763L27.6259 0ZM28.2594 3.78226L29.6707 5.19357H28.2594V3.78226ZM6.75391 35.7734V2.22656H26.0328V7.42014H31.2473V35.7734H6.75391Z" fill="#989dd6"/>
<path d="M9.68457 19.6503H17.9878V8.51689H9.68457V19.6503ZM11.9111 10.7435H15.7612V17.4237H11.9111V10.7435Z" fill="#989dd6"/>
<path d="M9.78809 21.8771H17.8843V24.1037H9.78809V21.8771Z" fill="#989dd6"/>
<path d="M9.78809 26.3306H17.8843V28.5571H9.78809V26.3306Z" fill="#989dd6"/>
<path d="M9.78809 30.784H17.8843V33.0105H9.78809V30.784Z" fill="#989dd6"/>
<path d="M20.1172 33.0105H28.4207V21.8771H20.1172V33.0105ZM22.3438 24.1037H26.1941V30.784H22.3438V24.1037Z" fill="#989dd6"/>
<path d="M20.2217 17.4237H28.3176V19.6503H20.2217V17.4237Z" fill="#989dd6"/>
<path d="M20.2217 12.9703H28.3176V15.1969H20.2217V12.9703Z" fill="#989dd6"/>
<path d="M20.2217 8.51689H28.3176V10.7435H20.2217V8.51689Z" fill="#989dd6"/>
</svg>
