<svg width="38" height="38" viewBox="0 0 38 38" fill="none" xmlns="http://www.w3.org/2000/svg">
<path d="M35.3834 13.1859C35.3834 10.976 33.5855 9.17813 31.3756 9.17813C29.1656 9.17813 27.3677 10.976 27.3677 13.1859C27.3677 14.83 28.3635 16.2443 29.7825 16.8618V19.507C29.7825 19.865 29.5697 20.1868 29.2401 20.327L21.079 23.7966V9.18288C22.5557 8.5915 23.6025 7.14869 23.6025 5.46333C23.6025 3.2534 21.8046 1.45552 19.5947 1.45552C17.3847 1.45552 15.5869 3.2534 15.5869 5.46333C15.5869 7.14869 16.6336 8.5915 18.1103 9.18288V23.7966L9.9486 20.3264C9.61937 20.1866 9.40651 19.865 9.40651 19.507V16.8618C10.8259 16.2443 11.8213 14.83 11.8213 13.1859C11.8213 10.976 10.0234 9.17813 7.81348 9.17813C5.60354 9.17813 3.80566 10.976 3.80566 13.1859C3.80566 14.912 4.9044 16.3824 6.43776 16.9453V19.507C6.43776 21.0582 7.35985 22.4523 8.78723 23.0585L18.1103 27.0221V30.0045C16.6336 30.5959 15.5869 32.0387 15.5869 33.7241C15.5869 35.934 17.3847 37.7319 19.5947 37.7319C21.8046 37.7319 23.6025 35.934 23.6025 33.7241C23.6025 32.0387 22.5557 30.5959 21.079 30.0045V27.0221L30.4018 23.0585C31.8292 22.452 32.7516 21.0579 32.7516 19.5067V16.945C34.2846 16.3821 35.3834 14.912 35.3834 13.1859Z" fill="#51ABFF"/>
<path d="M6.62598 15.7094C8.67547 15.7094 10.3369 14.0479 10.3369 11.9984C10.3369 9.94895 8.67547 8.28751 6.62598 8.28751C4.57648 8.28751 2.91504 9.94895 2.91504 11.9984C2.91504 14.0479 4.57648 15.7094 6.62598 15.7094Z" fill="#51ABFF"/>
<path d="M30.1875 15.7094C32.237 15.7094 33.8984 14.0479 33.8984 11.9984C33.8984 9.94895 32.237 8.28751 30.1875 8.28751C28.138 8.28751 26.4766 9.94895 26.4766 11.9984C26.4766 14.0479 28.138 15.7094 30.1875 15.7094Z" fill="#51ABFF"/>
<path d="M19.5938 11.8725C19.4299 11.8725 19.2969 12.0052 19.2969 12.1693V14.213C19.2969 14.3772 19.4299 14.5099 19.5938 14.5099C19.7576 14.5099 19.8906 14.3772 19.8906 14.213V12.1693C19.8906 12.0055 19.7576 11.8725 19.5938 11.8725Z" fill="#51ABFF"/>
<path d="M18.0335 32.0074C17.9884 32.0074 17.9462 32.0198 17.907 32.0448C17.8678 32.0697 17.8364 32.1071 17.8126 32.157L17.378 33.1153L16.9398 32.157C16.9161 32.1071 16.884 32.0697 16.8436 32.0448C16.8033 32.0198 16.7581 32.0074 16.7083 32.0074C16.6394 32.0074 16.577 32.0299 16.5212 32.075C16.4654 32.1202 16.4375 32.1748 16.4375 32.2389C16.4375 32.2698 16.4446 32.3019 16.4589 32.3351L17.1001 33.6497C17.1263 33.7019 17.1631 33.7417 17.2106 33.769C17.2581 33.7963 17.3091 33.81 17.3638 33.81C17.4184 33.81 17.4694 33.7963 17.5169 33.769C17.5644 33.7417 17.6001 33.7019 17.6238 33.6497L18.2651 32.3351C18.2817 32.3019 18.29 32.2674 18.29 32.2318C18.29 32.17 18.2639 32.1172 18.2116 32.0733C18.1594 32.0293 18.1 32.0074 18.0335 32.0074Z" fill="#51ABFF"/>
<path d="M18.8104 32.1073C18.8461 32.1073 18.8817 32.0966 18.9173 32.0752L19.2308 31.8864V33.3435H18.8995C18.7237 33.3435 18.6359 33.4171 18.6359 33.5644C18.6359 33.714 18.7237 33.7888 18.8995 33.7888H20.1179C20.2912 33.7888 20.3779 33.714 20.3779 33.5644C20.3779 33.4171 20.2912 33.3435 20.1179 33.3435H19.7866V31.5337C19.7866 31.4506 19.7616 31.3847 19.7117 31.336C19.6619 31.2873 19.5977 31.263 19.5194 31.263C19.4362 31.263 19.3531 31.2879 19.27 31.3378L18.7071 31.6762C18.6335 31.719 18.5967 31.7819 18.5967 31.865C18.5967 31.9268 18.6175 31.9826 18.659 32.0325C18.7006 32.0824 18.7508 32.1073 18.8104 32.1073Z" fill="#51ABFF"/>
<path d="M18.0081 3.72066C17.963 3.72066 17.9208 3.73313 17.8816 3.75806C17.8425 3.783 17.811 3.82041 17.7872 3.87028L17.3526 4.8286L16.9144 3.87028C16.8907 3.82041 16.8586 3.783 16.8182 3.75806C16.7779 3.73313 16.7327 3.72066 16.6829 3.72066C16.614 3.72066 16.5516 3.74322 16.4958 3.78834C16.44 3.83347 16.4121 3.8881 16.4121 3.95222C16.4121 3.9831 16.4192 4.01516 16.4335 4.04841L17.0747 5.36297C17.1009 5.41522 17.1377 5.455 17.1852 5.48232C17.2327 5.50963 17.2837 5.52329 17.3384 5.52329C17.393 5.52329 17.444 5.50963 17.4915 5.48232C17.539 5.455 17.5747 5.41522 17.5984 5.36297L18.2397 4.04841C18.2563 4.01516 18.2646 3.98072 18.2646 3.9451C18.2646 3.88335 18.2385 3.8305 18.1862 3.78656C18.134 3.74263 18.0746 3.72066 18.0081 3.72066Z" fill="#51ABFF"/>
<path d="M18.6029 5.04242H19.4686V5.24548C19.4686 5.33573 19.4936 5.40461 19.5435 5.45211C19.5933 5.49961 19.6586 5.52336 19.7394 5.52336C19.8201 5.52336 19.8855 5.49961 19.9353 5.45211C19.9852 5.40461 20.0101 5.33573 20.0101 5.24548V5.04242H20.142C20.315 5.04242 20.402 4.97117 20.402 4.82867C20.402 4.68854 20.3153 4.61848 20.142 4.61848H20.0101V3.24692C20.0101 3.16142 19.9828 3.09432 19.9282 3.04563C19.8736 2.99695 19.8095 2.9726 19.7358 2.9726C19.6883 2.9726 19.6432 2.9827 19.6005 3.00288C19.5577 3.02307 19.5221 3.05335 19.4936 3.09373L18.4319 4.61136C18.3868 4.67786 18.3643 4.74436 18.3643 4.81086C18.3643 4.87736 18.3856 4.93257 18.4284 4.97651C18.4711 5.02045 18.5293 5.04242 18.6029 5.04242ZM19.4686 3.83473V4.61848H18.9236L19.4686 3.83473Z" fill="#51ABFF"/>
<path d="M6.27569 11.2676C6.23056 11.2676 6.1884 11.2801 6.14922 11.305C6.11003 11.33 6.07856 11.3674 6.05481 11.4172L5.62019 12.3755L5.182 11.4172C5.15825 11.3674 5.12619 11.33 5.08581 11.305C5.04544 11.2801 5.00031 11.2676 4.95044 11.2676C4.88156 11.2676 4.81922 11.2902 4.76341 11.3353C4.70759 11.3804 4.67969 11.435 4.67969 11.4992C4.67969 11.53 4.68681 11.5621 4.70106 11.5954L5.34231 12.9099C5.36844 12.9622 5.40525 13.002 5.45275 13.0293C5.50025 13.0566 5.55131 13.0702 5.60594 13.0702C5.66056 13.0702 5.71162 13.0566 5.75912 13.0293C5.80662 13.002 5.84225 12.9622 5.866 12.9099L6.50725 11.5954C6.52387 11.5621 6.53219 11.5277 6.53219 11.492C6.53219 11.4303 6.50606 11.3775 6.45381 11.3335C6.40156 11.2899 6.34219 11.2676 6.27569 11.2676Z" fill="#51ABFF"/>
<path d="M6.89067 11.186C6.91917 11.186 6.94411 11.1813 6.96548 11.1718C6.98686 11.1623 7.01773 11.1457 7.05811 11.1219C7.15786 11.0625 7.24573 11.0174 7.32173 10.9865C7.39773 10.9557 7.48086 10.9402 7.57111 10.9402C7.67561 10.9402 7.75517 10.9658 7.8098 11.0168C7.86442 11.0679 7.89173 11.1421 7.89173 11.2395C7.89173 11.3962 7.80386 11.5672 7.62811 11.7525L6.84436 12.5825C6.77548 12.6538 6.74105 12.7322 6.74105 12.8177C6.74105 12.8842 6.76302 12.9394 6.80695 12.9833C6.85089 13.0273 6.90967 13.0492 6.9833 13.0492H8.30855C8.4843 13.0492 8.57217 12.9744 8.57217 12.8248C8.57217 12.6775 8.4843 12.6039 8.30855 12.6039H7.48205L8.04136 12.0161C8.18386 11.8641 8.28539 11.7263 8.34595 11.6028C8.40652 11.4793 8.4368 11.3452 8.4368 11.2003C8.4368 11.0625 8.40236 10.9408 8.33348 10.8351C8.26461 10.7294 8.16664 10.6481 8.03958 10.5911C7.91252 10.5341 7.76467 10.5056 7.59605 10.5056C7.45592 10.5056 7.31639 10.5288 7.17745 10.5751C7.03852 10.6214 6.91561 10.6837 6.80873 10.7621C6.77311 10.7858 6.74758 10.8126 6.73214 10.8423C6.7167 10.8719 6.70898 10.9094 6.70898 10.9545C6.70898 11.0162 6.7268 11.0703 6.76242 11.1166C6.79805 11.1626 6.8408 11.186 6.89067 11.186Z" fill="#51ABFF"/>
<path d="M34.1956 11.9984C34.1956 9.78851 32.3977 7.99063 30.1878 7.99063C27.9778 7.99063 26.1799 9.78851 26.1799 11.9984C26.1799 13.6425 27.1757 15.0568 28.5947 15.6743V18.3195C28.5947 18.6775 28.3819 18.9993 28.0526 19.1395L19.8912 22.6091V15.5488C19.8912 15.3846 19.7582 15.2519 19.5944 15.2519C19.4305 15.2519 19.2975 15.3846 19.2975 15.5488V23.0579C19.2975 23.1577 19.3474 23.2503 19.4305 23.3055C19.4798 23.3382 19.5368 23.3548 19.5944 23.3548C19.6339 23.3548 19.6733 23.3471 19.7104 23.3311L28.2848 19.6857C28.8337 19.4527 29.1885 18.9162 29.1885 18.3195V15.875C29.5085 15.9576 29.8422 16.0063 30.1878 16.0063C30.4555 16.0063 30.7168 15.9786 30.9697 15.9285V18.3195C30.9697 19.632 30.1895 20.8118 28.9816 21.3251L19.4783 25.3652C19.3687 25.4116 19.2975 25.519 19.2975 25.6384V28.6321C19.0107 28.5667 18.7132 28.5287 18.4069 28.5287C18.1005 28.5287 17.803 28.5664 17.5162 28.6321V25.6384C17.5162 25.5193 17.445 25.4116 17.3354 25.3652L7.83159 21.3248C6.6242 20.8115 5.84371 19.632 5.84371 18.3195V15.9285C6.09694 15.9786 6.35819 16.0063 6.62568 16.0063C6.97124 16.0063 7.30493 15.9576 7.62496 15.875V18.3195C7.62496 18.9162 7.97943 19.4524 8.52835 19.6854L17.103 23.3311C17.1401 23.3471 17.1796 23.3548 17.2191 23.3548C17.2764 23.3548 17.3337 23.3382 17.3829 23.3055C17.4664 23.2506 17.5162 23.1577 17.5162 23.0579V8.18033C17.803 8.24565 18.1005 8.28365 18.4069 8.28365C18.7132 8.28365 19.0107 8.24594 19.2975 8.18033V10.9638C19.2975 11.128 19.4305 11.2607 19.5944 11.2607C19.7582 11.2607 19.8912 11.128 19.8912 10.9638V7.99538C21.3679 7.404 22.4147 5.96119 22.4147 4.27583C22.4147 2.0659 20.6168 0.268021 18.4069 0.268021C16.1969 0.268021 14.3991 2.0659 14.3991 4.27583C14.3991 5.96119 15.4458 7.404 16.9225 7.99538V22.6093L8.7608 19.1389C8.43157 18.9991 8.21901 18.6775 8.21901 18.3195V15.6743C9.63837 15.0568 10.6338 13.6425 10.6338 11.9984C10.6338 9.78851 8.83591 7.99063 6.62598 7.99063C4.41604 7.99063 2.61816 9.78851 2.61816 11.9984C2.61816 13.7245 3.7169 15.1949 5.25026 15.7578V18.3195C5.25026 19.8707 6.17235 21.2648 7.59973 21.871L16.9225 25.8346V28.817C15.4458 29.4084 14.3991 30.8512 14.3991 32.5366C14.3991 34.7465 16.1969 36.5444 18.4069 36.5444C20.6168 36.5444 22.4147 34.7465 22.4147 32.5366C22.4147 30.8512 21.3679 29.4084 19.8912 28.817V25.8346L29.2137 21.8713C30.6411 21.2648 31.5635 19.871 31.5635 18.3195V15.7578C33.0965 15.1949 34.1956 13.7245 34.1956 11.9984ZM14.9928 4.27554C14.9928 2.39305 16.5244 0.861474 18.4069 0.861474C20.2893 0.861474 21.8209 2.39305 21.8209 4.27554C21.8209 6.15802 20.2893 7.6896 18.4069 7.6896C16.5244 7.6896 14.9928 6.15802 14.9928 4.27554ZM3.21191 11.9984C3.21191 10.116 4.74349 8.58438 6.62598 8.58438C8.50846 8.58438 10.04 10.116 10.04 11.9984C10.04 13.8809 8.50846 15.4125 6.62598 15.4125C4.74349 15.4125 3.21191 13.8809 3.21191 11.9984ZM21.8209 32.5366C21.8209 34.419 20.2893 35.9506 18.4069 35.9506C16.5244 35.9506 14.9928 34.419 14.9928 32.5366C14.9928 30.6541 16.5244 29.1225 18.4069 29.1225C20.2893 29.1225 21.8209 30.6541 21.8209 32.5366ZM30.1878 15.4125C28.3053 15.4125 26.7737 13.8809 26.7737 11.9984C26.7737 10.116 28.3053 8.58438 30.1878 8.58438C32.0702 8.58438 33.6018 10.116 33.6018 11.9984C33.6018 13.8809 32.0702 15.4125 30.1878 15.4125Z" fill="#51ABFF"/>
<path d="M29.8714 11.2607C29.8263 11.2607 29.7841 11.2731 29.7449 11.2981C29.7057 11.323 29.6743 11.3604 29.6505 11.4103L29.2159 12.3686L28.7777 11.4103C28.754 11.3604 28.7219 11.323 28.6815 11.2981C28.6411 11.2731 28.596 11.2607 28.5461 11.2607C28.4773 11.2607 28.4149 11.2832 28.3591 11.3283C28.3033 11.3735 28.2754 11.4281 28.2754 11.4922C28.2754 11.5231 28.2825 11.5552 28.2968 11.5884L28.938 12.903C28.9641 12.9552 29.001 12.995 29.0485 13.0223C29.096 13.0496 29.147 13.0633 29.2016 13.0633C29.2563 13.0633 29.3073 13.0496 29.3548 13.0223C29.4023 12.995 29.438 12.9552 29.4617 12.903L30.103 11.5884C30.1196 11.5552 30.1279 11.5207 30.1279 11.4851C30.1279 11.4233 30.1018 11.3705 30.0495 11.3266C29.9973 11.2826 29.9379 11.2607 29.8714 11.2607Z" fill="#51ABFF"/>
<path d="M31.6391 11.7487C31.7626 11.7036 31.8594 11.6305 31.9295 11.5296C31.9995 11.4287 32.0346 11.3105 32.0346 11.1751C32.0346 11.0398 32.0001 10.921 31.9313 10.8189C31.8624 10.7168 31.7638 10.6378 31.6356 10.582C31.5073 10.5262 31.3589 10.4983 31.1903 10.4983C31.0454 10.4983 30.9035 10.5208 30.7645 10.5659C30.6256 10.6111 30.5063 10.674 30.4065 10.7548C30.3709 10.7809 30.3454 10.8088 30.3299 10.8385C30.3145 10.8682 30.3068 10.9044 30.3068 10.9471C30.3068 11.0089 30.3246 11.0617 30.3602 11.1057C30.3958 11.1496 30.4386 11.1716 30.4885 11.1716C30.517 11.1716 30.5431 11.1674 30.5668 11.1591C30.5906 11.1508 30.6203 11.1359 30.6559 11.1146C30.7556 11.0552 30.8435 11.0101 30.9195 10.9792C30.9955 10.9483 31.0775 10.9329 31.1653 10.9329C31.2722 10.9329 31.3553 10.9608 31.4147 11.0166C31.4741 11.0724 31.5038 11.1502 31.5038 11.2499C31.5038 11.3544 31.4687 11.4316 31.3987 11.4815C31.3286 11.5314 31.2211 11.5563 31.0763 11.5563H30.9266C30.8649 11.5563 30.8162 11.5777 30.7806 11.6204C30.745 11.6632 30.7271 11.7131 30.7271 11.7701C30.7271 11.8294 30.745 11.8805 30.7806 11.9233C30.8162 11.966 30.8649 11.9874 30.9266 11.9874H31.1368C31.2888 11.9874 31.3993 12.0123 31.4681 12.0622C31.537 12.1121 31.5715 12.1928 31.5715 12.3044C31.5715 12.4184 31.5382 12.5022 31.4717 12.5556C31.4052 12.609 31.2995 12.6358 31.1546 12.6358C31.0525 12.6358 30.9635 12.6203 30.8875 12.5894C30.8115 12.5586 30.7212 12.5134 30.6167 12.4541C30.5811 12.4327 30.5514 12.4179 30.5276 12.4095C30.5039 12.4012 30.4778 12.3971 30.4493 12.3971C30.3994 12.3971 30.3566 12.419 30.321 12.463C30.2854 12.5069 30.2676 12.5598 30.2676 12.6215C30.2676 12.6619 30.2753 12.6975 30.2907 12.7284C30.3062 12.7593 30.3317 12.7878 30.3673 12.8139C30.4695 12.8946 30.5912 12.9576 30.7325 13.0027C30.8738 13.0478 31.0216 13.0704 31.176 13.0704C31.3613 13.0704 31.524 13.0413 31.6641 12.9831C31.8042 12.9249 31.9117 12.8424 31.9865 12.7355C32.0613 12.6286 32.0987 12.5028 32.0987 12.3579C32.0987 12.2059 32.0589 12.077 31.9794 11.9714C31.8998 11.8657 31.7864 11.7914 31.6391 11.7487Z" fill="#51ABFF"/>
</svg>
