<svg width="38" height="38" viewBox="0 0 38 38" fill="none" xmlns="http://www.w3.org/2000/svg">
<g clip-path="url(#clip0)">
<path d="M30.0832 19.0731C29.2077 19.0731 28.5 19.7825 28.5 20.6563V33.3231C28.5 34.1954 27.7906 34.9063 26.9168 34.9063H4.75C3.8759 34.9063 3.16676 34.1954 3.16676 33.3231V11.1563C3.16676 10.2839 3.8759 9.57306 4.75 9.57306H17.4168C18.2923 9.57306 19 8.86363 19 7.98982C19 7.11572 18.2923 6.4063 17.4168 6.4063H4.75C2.13118 6.4063 0 8.53748 0 11.1563V33.3231C0 35.9419 2.13118 38.0731 4.75 38.0731H26.9168C29.5356 38.0731 31.6668 35.9419 31.6668 33.3231V20.6563C31.6668 19.7807 30.9588 19.0731 30.0832 19.0731Z" fill="#FF7966"/>
<path d="M14.8448 17.6307C14.7341 17.7415 14.6595 17.8824 14.6279 18.0343L13.5086 23.6332C13.4564 23.8926 13.5387 24.1602 13.7254 24.3487C13.8759 24.4991 14.0786 24.5797 14.2861 24.5797C14.3366 24.5797 14.3891 24.5751 14.4412 24.5641L20.0384 23.4447C20.1935 23.4128 20.3344 23.3386 20.4437 23.2276L32.971 10.7003L27.3739 5.10341L14.8448 17.6307Z" fill="#FF7966"/>
<path d="M36.8411 1.23215C35.2975 -0.311657 32.7863 -0.311657 31.2439 1.23215L29.0527 3.42334L34.6499 9.02048L36.8411 6.829C37.5885 6.08333 38.0002 5.08892 38.0002 4.0313C38.0002 2.97368 37.5885 1.97927 36.8411 1.23215Z" fill="#FF7966"/>
</g>
<defs>
<clipPath id="clip0">
<rect width="38" height="38" fill="white"/>
</clipPath>
</defs>
</svg>
