<svg width="36" height="36" viewBox="0 0 36 36" fill="none" xmlns="http://www.w3.org/2000/svg">
<g clip-path="url(#clip0)">
<path d="M28.3382 17.4165C25.9952 13.5555 22.1311 11.25 18.0001 11.25C13.8691 11.25 10.0051 13.5555 7.66215 17.4165C7.44465 17.775 7.44465 18.225 7.66215 18.582C10.0051 22.4445 13.8691 24.75 18.0001 24.75C22.1311 24.75 25.9952 22.4445 28.3382 18.5835C28.5542 18.225 28.5542 17.775 28.3382 17.4165ZM18.0001 21C16.3456 21 15.0001 19.6545 15.0001 18C15.0001 16.3455 16.3456 15 18.0001 15C19.6546 15 21.0002 16.3455 21.0002 18C21.0002 19.6545 19.6546 21 18.0001 21Z" fill="#FE65C3"/>
<path d="M18 36C17.1705 36 16.5 35.328 16.5 34.5V30.9135C16.5 30.0855 17.1705 29.4135 18 29.4135C18.8295 29.4135 19.5 30.0855 19.5 30.9135V34.5C19.5 35.328 18.8295 36 18 36Z" fill="#FE65C3"/>
<path d="M18 6.5865C17.1705 6.5865 16.5 5.9145 16.5 5.0865V1.5C16.5 0.672 17.1705 0 18 0C18.8295 0 19.5 0.672 19.5 1.5V5.0865C19.5 5.9145 18.8295 6.5865 18 6.5865Z" fill="#FE65C3"/>
<path d="M5.088 19.5H1.5C0.6705 19.5 0 18.828 0 18C0 17.172 0.6705 16.5 1.5 16.5H5.088C5.9175 16.5 6.588 17.172 6.588 18C6.588 18.828 5.916 19.5 5.088 19.5Z" fill="#FE65C3"/>
<path d="M34.5001 19.5H30.9121C30.0826 19.5 29.4121 18.828 29.4121 18C29.4121 17.172 30.0826 16.5 30.9121 16.5H34.5001C35.3296 16.5 36.0001 17.172 36.0001 18C36.0001 18.828 35.3296 19.5 34.5001 19.5Z" fill="#FE65C3"/>
<path d="M18 33.375C9.522 33.375 2.625 26.478 2.625 18C2.625 9.52202 9.522 2.62502 18 2.62502C26.478 2.62502 33.375 9.52202 33.375 18C33.375 26.478 26.478 33.375 18 33.375ZM18 5.62502C11.1765 5.62502 5.625 11.1765 5.625 18C5.625 24.8235 11.1765 30.375 18 30.375C24.8235 30.375 30.375 24.8235 30.375 18C30.375 11.1765 24.8235 5.62502 18 5.62502Z" fill="#FE65C3"/>
</g>
<defs>
<clipPath id="clip0">
<rect width="36" height="36" fill="white"/>
</clipPath>
</defs>
</svg>
