<svg width="40" height="40" viewBox="0 0 40 40" fill="none" xmlns="http://www.w3.org/2000/svg">
<g clip-path="url(#clip0)">
<path d="M38.7487 19.7334C37.4113 18.6312 35.2974 18.5367 33.91 20.0256L30.4657 23.7231C30.0204 22.2919 28.6838 21.2498 27.1081 21.2498H20.9616C20.4952 21.2498 20.3391 21.0717 19.5289 20.4475C16.44 17.7547 11.8005 17.7633 8.72094 20.4733L6.46172 22.4622C5.44617 21.9247 4.26031 21.9114 3.23922 22.4216L0.647969 23.7168C0.0690631 24.0067 -0.165234 24.7105 0.123751 25.2894L7.15461 39.351C7.44445 39.9299 8.14828 40.1642 8.72719 39.8752L11.3184 38.5792C12.5957 37.941 13.3066 36.6379 13.2605 35.3115H27.108C29.6759 35.3115 32.1296 34.085 33.6702 32.0305L39.2956 24.5294C40.387 23.0755 40.2143 20.9435 38.7487 19.7334ZM10.27 36.4832L8.72711 37.255L2.74391 25.2894L4.28758 24.5176C4.86649 24.2285 5.56953 24.4621 5.85938 25.0418L10.7942 34.9115C11.0833 35.4903 10.8489 36.1934 10.27 36.4832ZM37.4207 23.1231L31.7953 30.6242C30.6946 32.0921 28.9423 32.9678 27.1081 32.9678H12.4426L8.05141 24.1848L10.2692 22.2326C12.4761 20.2913 15.8041 20.2913 18.0109 22.2326C19.3109 23.377 20.1194 23.5934 20.9616 23.5934H27.108C27.7541 23.5934 28.2798 24.1192 28.2798 24.7652C28.2798 25.4113 27.7541 25.937 27.108 25.937H21.1233C20.4764 25.937 19.9515 26.462 19.9515 27.1088C19.9515 27.7556 20.4765 28.2806 21.1233 28.2806H27.8932C28.8658 28.2806 29.8033 27.8728 30.4657 27.1612L35.6248 21.6232C36.0966 21.117 36.82 21.1592 37.2638 21.5474C37.7277 21.9536 37.7778 22.6481 37.4207 23.1231Z" fill="#FDCB6E"/>
<path d="M24.6399 7.9975C25.4422 7.15618 25.9367 6.01875 25.9367 4.76641C25.9367 2.18688 23.8525 0.00109863 21.2495 0.00109863C18.6661 0.00109863 16.4842 2.18297 16.4842 4.76641C16.4842 5.98039 16.96 7.12641 17.824 8.00688C15.6812 9.20836 14.1406 11.5145 14.1406 14.219V15.3908C14.1406 16.0376 14.6656 16.5626 15.3124 16.5626H27.1086C27.7554 16.5626 28.2804 16.0376 28.2804 15.3908V14.219C28.2803 11.5676 26.822 9.22555 24.6399 7.9975ZM21.2495 2.34477C22.5198 2.34477 23.5931 3.45407 23.5931 4.76649C23.5931 6.0586 22.5416 7.11008 21.2495 7.11008C19.9371 7.11008 18.8278 6.03672 18.8278 4.76649C18.8278 3.47672 19.9598 2.34477 21.2495 2.34477ZM16.4842 14.219C16.4842 11.6356 18.6661 9.45368 21.2495 9.45368C23.8337 9.45368 25.9367 11.591 25.9367 14.219H16.4842Z" fill="#FDCB6E"/>
</g>
<defs>
<clipPath id="clip0">
<rect width="40" height="40" fill="white"/>
</clipPath>
</defs>
</svg>
