<svg width="40" height="40" viewBox="0 0 40 40" fill="none" xmlns="http://www.w3.org/2000/svg">
<path d="M31.573 18.52C30.8447 12.7833 25.933 8.33331 19.9997 8.33331C15.4063 8.33331 11.4163 11.0166 9.59467 15.2483C6.01467 16.32 3.33301 19.7 3.33301 23.3333C3.33301 27.7616 6.81468 31.3583 11.1797 31.6183V31.6666H29.983V31.6616L29.9997 31.6666C33.6763 31.6666 36.6663 28.6766 36.6663 25C36.6644 23.5058 36.1615 22.0555 35.2382 20.8808C34.3149 19.7061 33.0244 18.8749 31.573 18.52ZM13.333 20H18.333V15H21.6663V20H26.6663L19.9997 28.3333L13.333 20Z" fill="#07DAB1"/>
</svg>
