<svg width="38" height="38" viewBox="0 0 38 38" fill="none" xmlns="http://www.w3.org/2000/svg">
<path d="M27.0996 20.0814L19.3066 17.8548C19.1066 17.7983 18.8935 17.7983 18.6934 17.8548L10.9004 20.0814C10.4242 20.2184 10.0938 20.6555 10.0938 21.1523V26.5551C10.0938 31.8258 13.6315 36.5148 18.6956 37.9576C18.7956 37.9858 18.8978 38 19 38C19.1022 38 19.2044 37.9858 19.3044 37.9576C24.3685 36.5148 27.9062 31.8258 27.9062 26.5551V21.1523C27.9062 20.6555 27.5758 20.2184 27.0996 20.0814ZM23.1269 26.5409L18.6738 30.9941C18.4563 31.2115 18.1715 31.3203 17.8867 31.3203C17.6019 31.3203 17.317 31.2115 17.0996 30.9941L14.8731 28.7675C14.4382 28.3327 14.4382 27.6281 14.8731 27.1933C15.3079 26.7584 16.0125 26.7584 16.4473 27.1933L17.8867 28.6327L21.5528 24.9667C21.9876 24.5318 22.6922 24.5318 23.127 24.9667C23.5619 25.4015 23.5619 26.1061 23.1269 26.5409Z" fill="#F79F1A"/>
<path d="M30.1328 6.67969C29.5827 6.67969 29.0413 6.73624 28.5085 6.85039C27.1648 2.81801 23.3422 0 19 0C14.6578 0 10.8352 2.81801 9.49146 6.85039C8.95872 6.73624 8.4173 6.67969 7.86719 6.67969C3.57059 6.67969 0 10.1761 0 14.4727C0 18.7693 3.57059 22.2656 7.86719 22.2656V21.1523C7.86719 19.6716 8.8609 18.3518 10.2851 17.9419L18.0824 15.7142C18.3847 15.6283 18.6912 15.5859 19 15.5859C19.3088 15.5859 19.6153 15.6283 19.911 15.712L27.7105 17.9408C29.1391 18.3518 30.1328 19.6716 30.1328 21.1523V22.2656C34.4294 22.2656 38 18.7693 38 14.4727C38 10.1761 34.4294 6.67969 30.1328 6.67969Z" fill="#F79F1A"/>
</svg>
