<svg width="40" height="40" viewBox="0 0 40 40" fill="none" xmlns="http://www.w3.org/2000/svg">
<path d="M39.8559 36.466C38.9587 36.1295 38.1335 35.9135 37.38 35.8172C36.6269 35.7526 36.0736 35.5688 35.7212 35.2643C35.5129 35.1356 35.2322 34.6791 34.8796 33.8937C34.2224 32.5799 33.7018 31.3858 33.3174 30.3122C32.692 28.6131 32.1709 27.2989 31.7543 26.3694C30.8412 24.2383 30.0719 22.3551 29.4472 20.7205C29.1103 19.8393 28.1172 17.4595 26.4663 13.5811L21.5384 2.04293L21.2739 1.53809H20.0001H18.1971L11.4665 18.9417L5.76936 33.7496C5.3206 34.5828 4.93582 35.1281 4.61537 35.3845C4.27892 35.6242 3.39739 35.8732 1.9712 36.129C1.0415 36.306 0.400605 36.45 0.0480759 36.5618L0 38.4616H0.504839C1.88313 38.4616 3.22134 38.3493 4.51922 38.1251L5.67321 37.9332C10.2087 38.2537 13.0052 38.4138 14.0627 38.4138C14.0947 38.2537 14.1107 38.037 14.1107 37.765C14.1107 37.2838 14.1028 36.8194 14.0866 36.3705C13.7501 36.3226 13.4256 36.2742 13.1132 36.2264C12.8007 36.178 12.5603 36.1383 12.3921 36.1059C12.2239 36.0745 12.1156 36.0581 12.0675 36.0581C10.8334 35.8818 10.008 35.6253 9.59152 35.2891C9.31907 35.0969 9.18284 34.7523 9.18284 34.2553C9.18284 33.9348 9.36723 33.2621 9.73575 32.2361C10.9378 28.8871 11.7709 26.6913 12.2357 25.65L23.0535 25.6978L25.2652 31.1786L26.3944 33.9184C26.4907 34.1913 26.5384 34.4474 26.5384 34.6878C26.5384 34.9282 26.4424 35.1448 26.25 35.3367C26.0576 35.4971 25.513 35.6813 24.6151 35.8893L21.4659 36.5624C21.4016 37.0914 21.3702 37.716 21.3702 38.4375L22.7645 38.3891L27.5723 38.1249C28.4695 38.0929 29.5518 38.0765 30.8178 38.0765C32.3556 38.0765 33.87 38.1407 35.3608 38.2686C37.1553 38.3968 38.694 38.4608 39.9763 38.4608C39.9925 38.2686 40 38.0605 40 37.8358C40 37.5477 39.9521 37.0914 39.8559 36.466ZM21.1538 22.8121C20.9294 22.8121 20.5087 22.8077 19.8918 22.7999C19.2749 22.7924 18.3216 22.7803 17.0314 22.7641C15.7415 22.7477 14.5114 22.7319 13.3416 22.7158L17.4281 11.8986C18.0531 13.1646 18.7902 14.8553 19.6394 16.9707C20.6013 19.3105 21.3384 21.2417 21.8515 22.7641L21.1538 22.8121Z" fill="#6E7191"/>
</svg>
