<svg width="46" height="43" viewBox="0 0 46 43" fill="none" xmlns="http://www.w3.org/2000/svg">
<g clip-path="url(#clip0)">
<path d="M5.43307 5.77224C5.43307 6.22979 5.02767 6.60069 4.52756 6.60069C4.02744 6.60069 3.62205 6.22979 3.62205 5.77224C3.62205 5.31469 4.02744 4.94379 4.52756 4.94379C5.02767 4.94379 5.43307 5.31469 5.43307 5.77224ZM9.50787 5.77224C9.50787 6.22979 9.10248 6.60069 8.60236 6.60069C8.10225 6.60069 7.69685 6.22979 7.69685 5.77224C7.69685 5.31469 8.10225 4.94379 8.60236 4.94379C9.10248 4.94379 9.50787 5.31469 9.50787 5.77224ZM13.5827 5.77224C13.5827 6.22979 13.1773 6.60069 12.6772 6.60069C12.1771 6.60069 11.7717 6.22979 11.7717 5.77224C11.7717 5.31469 12.1771 4.94379 12.6772 4.94379C13.1773 4.94379 13.5827 5.31469 13.5827 5.77224ZM19.4685 31.1227C18.9686 31.1227 18.563 31.4947 18.563 31.9512C18.563 32.4076 18.9686 32.7796 19.4685 32.7796C19.9674 32.7796 20.374 32.4076 20.374 31.9512C20.374 31.4947 19.9674 31.1227 19.4685 31.1227ZM18.1102 12.3998V24.578C18.1102 25.0355 17.7047 25.4064 17.2047 25.4064H4.52756C4.02754 25.4064 3.62205 25.0355 3.62205 24.578V12.3998C3.62205 11.9423 4.02754 11.5714 4.52756 11.5714H17.2047C17.7047 11.5714 18.1102 11.9423 18.1102 12.3998ZM16.2992 13.2283H5.43307V23.7495H16.2992V13.2283ZM20.8268 13.8082H30.1535C30.6536 13.8082 31.0591 13.4372 31.0591 12.9797C31.0591 12.5223 30.6536 12.1513 30.1535 12.1513H20.8268C20.3267 12.1513 19.9213 12.5223 19.9213 12.9797C19.9213 13.4372 20.3267 13.8082 20.8268 13.8082ZM20.8268 17.122H28.3425C28.8425 17.122 29.248 16.751 29.248 16.2935C29.248 15.836 28.8425 15.4651 28.3425 15.4651H20.8268C20.3267 15.4651 19.9213 15.836 19.9213 16.2935C19.9213 16.751 20.3267 17.122 20.8268 17.122ZM4.52756 27.0633C4.02754 27.0633 3.62205 27.4343 3.62205 27.8918C3.62205 28.3492 4.02754 28.7202 4.52756 28.7202H10.8661C11.3662 28.7202 11.7717 28.3492 11.7717 27.8918C11.7717 27.4343 11.3662 27.0633 10.8661 27.0633H4.52756ZM41.0948 25.486C40.6629 26.606 40.6647 27.8462 41.0948 28.9721C41.2651 29.4178 41.8084 29.6688 42.3598 29.4459L43.3867 29.0085C44.601 28.4932 46 29.2305 46 30.4939V34.0223C46 34.9374 45.1892 35.6792 44.189 35.6792H39.0719L39.5745 36.6625C40.3043 38.0817 39.4471 39.6153 38.0061 40.0641C36.3403 40.5831 34.6051 40.5884 32.9858 40.0638C31.5516 39.5992 30.6881 38.0817 31.4172 36.6629L31.92 35.6791L26.8032 35.6792C25.8046 35.6792 24.9921 34.9359 24.9921 34.0223V32.7796H23.5433C23.0434 32.7796 22.6378 32.4076 22.6378 31.9512C22.6378 31.4947 23.0434 31.1227 23.5433 31.1227H24.9921V30.4943C24.9921 29.2306 26.3913 28.4931 27.6051 29.0082L28.6322 29.4457C29.1838 29.669 29.7271 29.4177 29.8973 28.9722C30.3273 27.8465 30.3289 26.6064 29.8973 25.4857C29.7434 25.0862 29.2042 24.7757 28.6571 25.0017L27.5678 25.4658C26.3913 25.949 24.9921 25.2328 24.9921 23.926V20.4358C24.9921 19.5206 25.8029 18.7789 26.8032 18.7789H31.92L31.4172 17.7952C30.6209 16.0664 31.8396 14.7766 32.9858 14.3941C34.8944 13.7574 36.5899 14.0564 37.126 14.1643V9.91447H1.81102V31.1227H15.3613C15.8429 31.1227 16.2644 31.4541 16.2971 31.8937C16.333 32.376 15.9135 32.7796 15.3938 32.7796H0.905512C0.405398 32.7796 0 32.4087 0 31.9512V4.11535C0 2.74269 1.21619 1.63 2.71654 1.63H36.2205C37.7208 1.63 38.937 2.74269 38.937 4.11535V14.9108C39.6768 15.5245 40.1495 16.5479 39.5745 17.7955L39.0719 18.7789H44.189C45.1892 18.7789 46 19.5206 46 20.4358V23.926C46 25.2325 44.601 25.9491 43.4247 25.4661L42.3354 25.0013C41.7876 24.776 41.2488 25.0858 41.0948 25.486ZM37.126 8.25758V4.11535C37.126 3.65854 36.7198 3.2869 36.2205 3.2869H2.71654C2.21724 3.2869 1.81102 3.65854 1.81102 4.11535V8.25758H37.126ZM39.387 24.9334C39.9919 23.3676 41.8844 22.9501 43.0996 23.4993L44.189 23.9641V20.4358H39.0719C37.6575 20.4358 36.8996 19.0846 37.432 18.0772L37.9346 17.093C38.1746 16.5636 37.8565 16.1097 37.4049 15.9572C36.2088 15.5533 34.7454 15.5773 33.587 15.9571C33.1341 16.1055 32.8175 16.5635 33.0577 17.0933L33.5605 18.077C34.0925 19.0849 33.3345 20.4358 31.92 20.4358H26.8032V23.9639L27.8925 23.4997C29.1078 22.9505 31.0007 23.3675 31.6046 24.9332C32.1759 26.4142 32.1851 28.047 31.6046 29.525C31.1408 30.7059 29.6044 31.6466 27.8925 30.9584L26.8032 30.4943L26.8032 34.0223H31.92C33.3316 34.0223 34.097 35.3718 33.5605 36.381L33.0577 37.3647C32.8 37.8786 33.1508 38.38 33.587 38.5009C34.9089 38.8674 35.9547 38.9155 37.4049 38.5009C37.8403 38.3764 38.1918 37.8788 37.9346 37.3651L37.432 36.381C36.8951 35.3719 37.6602 34.0224 39.0719 34.0224H44.189V30.494L43.0996 30.9588C41.3873 31.6464 39.8516 30.7061 39.387 29.5247C38.8066 28.0467 38.8166 26.4138 39.387 24.9334Z" fill="#FDCB6E"/>
</g>
<defs>
<clipPath id="clip0">
<rect width="46" height="42.0851" fill="white"/>
</clipPath>
</defs>
</svg>
