<svg width="758" height="647" viewBox="0 0 758 647" fill="none" xmlns="http://www.w3.org/2000/svg">
<g opacity="0.6">
<rect x="1.5" y="69.5" width="262" height="164" rx="19.5" stroke="#E8EAFF"/>
<rect x="177.5" y="142.5" width="262" height="141" rx="19.5" stroke="#E8EAFF"/>
<rect x="315.5" y="67.5" width="262" height="166" rx="19.5" stroke="#E8EAFF"/>
<rect x="495.5" y="135.5" width="262" height="137" rx="19.5" stroke="#E8EAFF"/>
<rect x="357.5" y="193.5" width="262" height="178" rx="19.5" stroke="#E8EAFF"/>
<rect x="25.5" y="263.5" width="262" height="99" rx="19.5" stroke="#E8EAFF"/>
<rect x="192.5" y="334.5" width="262" height="138" rx="19.5" stroke="#E8EAFF"/>
<rect x="-105.5" y="321.5" width="262" height="138" rx="19.5" stroke="#E8EAFF"/>
<rect x="29.5" y="414.5" width="262" height="138" rx="19.5" stroke="#E8EAFF"/>
<rect x="338.5" y="417.5" width="262" height="138" rx="19.5" stroke="#E8EAFF"/>
<rect x="183.5" y="513.5" width="262" height="133" rx="19.5" stroke="#E8EAFF"/>
<rect x="504.5" y="466.5" width="170" height="116" rx="19.5" stroke="#E8EAFF"/>
<rect x="-97.5" y="513.5" width="262" height="100" rx="19.5" stroke="#E8EAFF"/>
<rect x="177.5" y="0.5" width="192" height="96" rx="19.5" stroke="#E8EAFF"/>
</g>
</svg>
