<svg width="246" height="59" viewBox="0 0 246 59" fill="none" xmlns="http://www.w3.org/2000/svg">
<path d="M46.875 9.25H3.125C1.40186 9.25 0 10.6519 0 12.375V43.625C0 45.3481 1.40186 46.75 3.125 46.75H46.875C48.5981 46.75 50 45.3481 50 43.625V12.375C50 10.6519 48.5981 9.25 46.875 9.25Z" fill="#7ACEF9"/>
<path d="M50 12.375V43.625C50 45.3486 48.5977 46.75 46.875 46.75H42.1875C43.9102 46.75 45.3125 45.3486 45.3125 43.625V12.375C45.3125 10.6514 43.9102 9.25 42.1875 9.25H46.875C48.5977 9.25 50 10.6514 50 12.375Z" fill="#6CB9E7"/>
<path d="M49.2188 15.5H0.78125C0.349805 15.5 0 15.8498 0 16.2812V22.5312C0 22.9627 0.349805 23.3125 0.78125 23.3125H49.2188C49.6502 23.3125 50 22.9627 50 22.5312V16.2812C50 15.8498 49.6502 15.5 49.2188 15.5Z" fill="#595965"/>
<path d="M50 16.2812V22.5312C50 22.9629 49.6504 23.3125 49.2188 23.3125H44.5312C44.9629 23.3125 45.3125 22.9629 45.3125 22.5312V16.2812C45.3125 15.8496 44.9629 15.5 44.5312 15.5H49.2188C49.6504 15.5 50 15.8496 50 16.2812Z" fill="#44454E"/>
<path d="M21.0938 30.3438H4.6875C4.25605 30.3438 3.90625 29.9939 3.90625 29.5625C3.90625 29.1311 4.25605 28.7812 4.6875 28.7812H21.0938C21.5252 28.7812 21.875 29.1311 21.875 29.5625C21.875 29.9939 21.5252 30.3438 21.0938 30.3438Z" fill="#EDEBFD"/>
<path d="M16.4062 35.0312H4.6875C4.25605 35.0312 3.90625 34.6814 3.90625 34.25C3.90625 33.8186 4.25605 33.4688 4.6875 33.4688H16.4062C16.8377 33.4688 17.1875 33.8186 17.1875 34.25C17.1875 34.6814 16.8377 35.0312 16.4062 35.0312Z" fill="#EDEBFD"/>
<path d="M45.3125 42.0625H4.6875C4.25605 42.0625 3.90625 41.7127 3.90625 41.2812C3.90625 40.8498 4.25605 40.5 4.6875 40.5H45.3125C45.7439 40.5 46.0938 40.8498 46.0938 41.2812C46.0938 41.7127 45.7439 42.0625 45.3125 42.0625Z" fill="#EDEBFD"/>
<path d="M41.8945 35.8125H37.793C36.7698 35.8125 35.9375 34.9802 35.9375 33.957V29.8555C35.9375 28.8323 36.7698 28 37.793 28H41.8945C42.9177 28 43.75 28.8323 43.75 29.8555V33.957C43.75 34.9802 42.9177 35.8125 41.8945 35.8125Z" fill="#F1CC76"/>
<path d="M41.8945 28H39.5508C40.5742 28 41.4062 28.832 41.4062 29.8555V33.957C41.4062 34.9805 40.5742 35.8125 39.5508 35.8125H41.8945C42.918 35.8125 43.75 34.9805 43.75 33.957V29.8555C43.75 28.832 42.918 28 41.8945 28Z" fill="#EBB15D"/>
<path d="M113 42.2853C113 43.9177 111.677 45.241 110.044 45.241H65.9556C64.3232 45.2411 63 43.9177 63 42.2853V13.7146C63 12.0822 64.3232 10.7589 65.9556 10.7589H110.044C111.677 10.7589 113 12.0823 113 13.7146V42.2853Z" fill="white"/>
<path d="M74.0975 28.1987L72.9234 22.5667C72.7228 21.7901 72.1388 21.559 71.4091 21.5284H66.0265L65.9785 21.7858C70.1708 22.8021 72.9447 25.2538 74.0975 28.1987Z" fill="#F79F1A"/>
<path d="M86.5698 21.6418H83.092L80.9199 34.3886H84.392L86.5698 21.6418Z" fill="#059BBF"/>
<path d="M76.2177 34.3758L81.6874 21.6505H78.0066L74.604 30.3447L74.2408 29.032C73.5738 27.4528 71.6676 25.1798 69.4297 23.7489L72.54 34.3801L76.2177 34.3758Z" fill="#059BBF"/>
<path d="M96.4897 30.2217C96.5026 28.7745 95.5734 27.6707 93.5711 26.759C92.3542 26.1701 91.6125 25.7774 91.6214 25.1799C91.6214 24.6519 92.2495 24.0848 93.6105 24.0848C94.7492 24.0674 95.5691 24.316 96.2105 24.5734L96.5247 24.7175L96.996 21.956C96.3066 21.6985 95.229 21.4237 93.8813 21.4237C90.448 21.4237 88.0313 23.1513 88.0094 25.6292C87.9875 27.4615 89.7371 28.4823 91.0544 29.0929C92.4066 29.7154 92.8604 30.1137 92.8517 30.6721C92.843 31.526 91.774 31.9153 90.7751 31.9153C89.3835 31.9153 88.6462 31.7234 87.5027 31.247L87.0584 31.0429L86.5703 33.8993C87.3812 34.2537 88.8816 34.5635 90.4393 34.5763C94.0903 34.5763 96.4636 32.8707 96.4897 30.2217Z" fill="#059BBF"/>
<path d="M100.62 32.4781C101.017 32.4781 104.563 32.4825 105.07 32.4825C105.174 32.9263 105.493 34.3931 105.493 34.3931H108.717L105.903 21.655H103.22C102.387 21.655 101.767 21.8819 101.401 22.7106L96.2402 34.3931H99.8918C99.8915 34.3931 100.485 32.8229 100.62 32.4781ZM103.002 26.3052C102.984 26.3401 103.29 25.568 103.464 25.0881L103.7 26.1874C103.7 26.1874 104.363 29.2325 104.502 29.8694H101.619C101.907 29.1366 103.002 26.3052 103.002 26.3052Z" fill="#059BBF"/>
<path d="M110.044 10.7589H65.9556C64.3232 10.7589 63 12.0822 63 13.7146V16.7822H113V13.7146C113 12.0822 111.677 10.7589 110.044 10.7589Z" fill="#059BBF"/>
<path d="M110.044 45.2411H65.9556C64.3232 45.2411 63 43.9178 63 42.2855V39.2179H113V42.2855C113 43.9178 111.677 45.2411 110.044 45.2411Z" fill="#F79F1A"/>
<path opacity="0.15" d="M65.1013 42.2853V13.7146C65.1013 12.0822 66.4246 10.7589 68.057 10.7589H65.9555C64.3232 10.7589 63 12.0822 63 13.7146V42.2854C63 43.9178 64.3232 45.2411 65.9556 45.2411H68.0571C66.4247 45.2411 65.1013 43.9177 65.1013 42.2853Z" fill="#202121"/>
<g clip-path="url(#clip0)">
<rect x="125.59" y="9.04724" width="52.4095" height="38.4882" rx="4.09449" fill="#F1F2FC"/>
<path d="M143.674 41.837C151.075 41.837 157.076 35.8366 157.076 28.4348C157.076 21.033 151.075 15.0326 143.674 15.0326C136.272 15.0326 130.271 21.033 130.271 28.4348C130.271 35.8366 136.272 41.837 143.674 41.837Z" fill="#EE0005"/>
<path d="M160.324 41.837C167.726 41.837 173.726 35.8366 173.726 28.4348C173.726 21.033 167.726 15.0326 160.324 15.0326C152.922 15.0326 146.922 21.033 146.922 28.4348C146.922 35.8366 152.922 41.837 160.324 41.837Z" fill="#F9A000"/>
<path d="M146.924 28.4346C146.924 32.6901 148.908 36.482 152 38.9369C155.093 36.4818 157.077 32.6901 157.077 28.4346C157.077 24.1792 155.093 20.3873 152 17.9324C148.908 20.3875 146.924 24.1793 146.924 28.4346Z" fill="#FF6300"/>
</g>
<path d="M202.804 24.2096C202.581 24.0635 202.249 23.9895 201.813 23.9895L201.44 23.9914C201.195 23.9895 200.945 24.1862 200.897 24.4238L200.554 25.904C200.5 26.1435 200.653 26.3393 200.9 26.3393H201.179C201.797 26.3393 202.276 26.2137 202.62 25.9605C202.964 25.7092 203.14 25.3518 203.132 24.8893C203.134 24.5835 203.024 24.3547 202.804 24.2096Z" fill="#449DF0"/>
<path d="M208.89 27.6207C208.823 27.6227 208.308 27.6811 208.047 27.7132C207.755 27.7551 207.501 27.8135 207.296 27.8827L206.813 28.2118C206.7 28.354 206.646 28.5351 206.646 28.7679L206.867 29.1944C207.016 29.2781 207.236 29.319 207.516 29.319C207.701 29.319 207.902 29.2742 208.112 29.1885L208.56 28.9577L208.737 28.7221C208.807 28.4475 208.952 27.8369 208.969 27.761L208.89 27.6207Z" fill="#449DF0"/>
<path d="M244.584 9.67859H192.416C191.633 9.67859 191 10.3125 191 11.0945V43.9056C191 44.6875 191.633 45.3224 192.416 45.3224H244.584C245.367 45.3224 246 44.6885 246 43.9065V11.0945C246 10.3125 245.367 9.67859 244.584 9.67859ZM204.131 26.9693C203.356 27.54 202.277 27.8243 200.882 27.8263H200.557C200.307 27.8263 200.062 28.023 200.011 28.2586L199.619 29.9511C199.564 30.1926 199.319 30.3854 199.072 30.3854H197.932C197.685 30.3854 197.53 30.1867 197.589 29.9511L199.191 22.9758C199.249 22.7362 199.492 22.5444 199.739 22.5405L202.119 22.5395C202.633 22.5444 203.078 22.5755 203.464 22.6457C203.843 22.7177 204.174 22.8385 204.455 23.0099C204.724 23.1793 204.941 23.4062 205.077 23.6808C205.229 23.9554 205.296 24.2992 205.296 24.7082C205.296 25.643 204.912 26.3987 204.131 26.9693ZM211.202 26.0793L211.16 26.3724L210.328 29.9676C210.279 30.1838 210.065 30.3679 209.838 30.3941L209.823 30.4H209.658H208.783H208.763L208.759 30.3961C208.542 30.3757 208.408 30.1916 208.454 29.9696V29.9676L208.456 29.9608L208.499 29.7777L208.493 29.7709L208.064 30.0543L207.596 30.3153L207.045 30.5042C206.876 30.5451 206.637 30.5694 206.329 30.5694C205.844 30.5694 205.437 30.436 205.129 30.1604C204.823 29.879 204.665 29.5197 204.665 29.0795C204.665 28.6121 204.773 28.2167 204.991 27.8876C205.215 27.5604 205.537 27.3053 205.971 27.1144C206.375 26.9304 206.861 26.794 207.416 26.7171C207.983 26.6353 208.45 26.5759 209.098 26.535L209.262 26.4337L209.282 26.273C209.282 26.0257 209.167 25.8553 208.938 25.755C208.707 25.6576 208.358 25.6089 207.902 25.6089C207.593 25.605 207.203 25.6683 206.834 25.7521C206.447 25.8397 206.341 25.8972 206.152 25.9536C206.065 25.9838 205.853 25.9984 205.932 25.6323L206.071 25.0587C206.071 25.0587 206.14 24.6254 206.573 24.5309C206.782 24.4842 206.815 24.4754 207.157 24.4228C207.62 24.3517 208.077 24.3157 208.536 24.3157C209.464 24.3157 210.144 24.4365 210.573 24.6789C211.005 24.9204 211.225 25.2983 211.223 25.8056L211.202 26.0793ZM213.034 33.1627L211.854 33.1646C211.608 33.1646 211.528 32.9698 211.678 32.7303L212.687 30.9697C212.687 30.9697 212.768 30.8694 212.696 30.2948C212.54 29.2568 211.765 24.8435 211.765 24.8435C211.709 24.6049 211.861 24.4092 212.106 24.4092L213.128 24.4073C213.44 24.4073 213.691 24.6127 213.748 24.8542L214.256 27.9149L214.445 27.9168C214.604 27.6354 216.236 24.8348 216.236 24.8348C216.392 24.5991 216.707 24.3995 216.953 24.3995C216.953 24.3995 218.05 24.4024 218.32 24.3995C218.725 24.3936 218.289 25.05 218.289 25.05L213.747 32.7303C213.601 32.9698 213.278 33.1627 213.034 33.1627ZM224.834 26.9995C224.056 27.5672 222.972 27.8545 221.577 27.8545H221.252C221.007 27.8506 220.761 28.0502 220.705 28.2859L220.319 29.9813C220.263 30.2179 220.013 30.4127 219.772 30.4097L218.63 30.4127C218.387 30.4136 218.227 30.2169 218.286 29.9803L219.889 23.0011C219.947 22.7645 220.187 22.5716 220.434 22.5678L222.817 22.5658C223.328 22.5678 223.778 22.6038 224.156 22.671C224.54 22.7411 224.872 22.8618 225.148 23.0342C225.42 23.2085 225.633 23.4315 225.775 23.7081C225.921 23.9807 225.992 24.3255 225.994 24.7344C225.994 25.6683 225.604 26.422 224.834 26.9995ZM231.901 26.0841L231.86 26.3792L231.026 29.9715C230.979 30.1887 230.764 30.3727 230.54 30.4L230.524 30.4058H230.361C230.125 30.4058 229.629 30.4058 229.485 30.4058H229.465L229.463 30.4C229.242 30.3795 229.106 30.1965 229.159 29.9735L229.157 29.9706L229.162 29.9667L229.2 29.7836L229.193 29.7748L228.767 30.0621L228.296 30.3221L227.746 30.5081C227.577 30.5519 227.337 30.5704 227.032 30.5753C226.546 30.5753 226.142 30.437 225.833 30.1634C225.525 29.8849 225.366 29.5236 225.366 29.0815C225.366 28.617 225.474 28.2197 225.692 27.8925C225.915 27.5653 226.242 27.3111 226.672 27.1183C227.079 26.9333 227.568 26.7989 228.12 26.721C228.683 26.6392 229.15 26.5798 229.803 26.5399L229.966 26.4366L229.984 26.276C229.984 26.0306 229.871 25.8582 229.639 25.7589C229.407 25.6605 229.059 25.6118 228.605 25.6118C228.293 25.6099 227.903 25.6722 227.535 25.755C227.15 25.8446 227.046 25.9001 226.858 25.9566C226.763 25.9848 226.557 26.0014 226.635 25.6352L226.774 25.0626C226.774 25.0626 226.84 24.6283 227.275 24.5348C227.486 24.4891 227.52 24.4783 227.861 24.4287C228.321 24.3547 228.781 24.3186 229.24 24.3186C230.164 24.3186 230.843 24.4413 231.276 24.6838C231.711 24.9253 231.928 25.3012 231.928 25.8085L231.901 26.0841ZM235.553 23.0585L234.026 29.9735L233.973 30.0553C233.882 30.25 233.689 30.4078 233.48 30.4078H232.42L232.401 30.3834C232.199 30.3523 232.068 30.1897 232.116 29.9774L232.114 29.9725L232.159 29.7729L233.587 23.2854L233.638 23.0595L233.695 22.9709C233.788 22.78 233.977 22.6252 234.186 22.6252H235.205C235.454 22.6252 235.603 22.819 235.55 23.0566L235.553 23.0585ZM237.577 22.3107H237.195V22.818L237.198 22.9544L237.224 23.0459L237.285 23.1043L237.401 23.1228L237.497 23.1092L237.568 23.0878H237.577V23.2543L237.463 23.2767L237.355 23.2854L237.096 23.1929L237.007 22.9008V22.3107H236.878V22.1529H237.007V21.8364H237.195V22.1529H237.577V22.3107ZM239.422 22.5434V23.2611H239.238V22.6281L239.226 22.4928L239.202 22.3857L239.138 22.3224L239.014 22.3L238.859 22.3399L238.7 22.4402L238.703 22.4947L238.705 22.5531V23.263H238.52V22.6301L238.512 22.4928L238.486 22.3866L238.424 22.3233L238.298 22.3009L238.145 22.3389L237.991 22.4353V23.263H237.807V22.1539H237.991V22.2776L238.168 22.1646L238.351 22.1237L238.544 22.1695L238.662 22.3019L238.867 22.1646L239.067 22.1237L239.336 22.2337L239.424 22.5434H239.422Z" fill="#449DF0"/>
<path d="M229.589 27.6266C229.522 27.6256 229.009 27.686 228.752 27.7191C228.457 27.761 228.205 27.8184 228.001 27.8885C227.793 27.9703 227.623 28.0804 227.513 28.2177C227.404 28.3599 227.35 28.541 227.35 28.7747L227.573 29.2003C227.715 29.285 227.932 29.3259 228.221 29.3259C228.403 29.3259 228.604 29.2811 228.813 29.1964L229.258 28.9656L229.441 28.7299C229.509 28.4524 229.658 27.8438 229.669 27.7678L229.589 27.6266Z" fill="#449DF0"/>
<path d="M223.498 24.2358C223.273 24.0888 222.946 24.0167 222.508 24.0148L222.137 24.0167C221.892 24.0148 221.643 24.2134 221.592 24.4501L221.247 25.9293C221.192 26.1669 221.351 26.3655 221.597 26.3636H221.88C222.497 26.3636 222.975 26.237 223.32 25.9896C223.66 25.7355 223.834 25.381 223.832 24.9146C223.826 24.6107 223.72 24.3819 223.498 24.2358Z" fill="#449DF0"/>
<defs>
<clipPath id="clip0">
<rect width="52" height="52" fill="white" transform="translate(126 7)"/>
</clipPath>
</defs>
</svg>
