<svg width="41" height="41" viewBox="0 0 41 41" fill="none" xmlns="http://www.w3.org/2000/svg">
<path d="M35.7441 18.9354H34.7412V5.96899L28.7722 0H6.25784V14.1213H5.2549C3.5958 14.1213 2.24609 15.471 2.24609 17.1301V37.9912C2.24609 39.6503 3.5958 41 5.2549 41H35.7441C37.4032 41 38.7529 39.6503 38.7529 37.9912V22.7466C38.7529 21.2293 37.5529 18.9354 35.7441 18.9354ZM29.1248 2.05449L32.6867 5.61644H29.1248V2.05449ZM7.46136 1.20352H27.9212V6.81996H33.5377V18.9354H22.9931C22.2218 18.9354 21.4652 18.67 20.8628 18.1882L17.043 15.1323C16.2281 14.4804 15.2046 14.1213 14.161 14.1213H7.46136V1.20352ZM37.5494 37.9912C37.5494 38.9867 36.7396 39.7965 35.7441 39.7965H5.2549C4.25943 39.7965 3.44962 38.9867 3.44962 37.9912V17.1301C3.44962 16.1347 4.25943 15.3249 5.2549 15.3249H14.161C14.9323 15.3249 15.6889 15.5903 16.2912 16.0721L20.111 19.128C20.926 19.7799 21.9495 20.1389 22.9931 20.1389H35.7441C36.6397 20.1389 37.5494 21.6561 37.5494 22.7466V37.9912Z" fill="#51ABFF"/>
<path d="M9.62207 27.4002L14.2823 29.2238V34.9427L14.4488 35.1171C14.5186 35.1902 16.2077 36.908 20.5005 36.908C24.7933 36.908 26.4824 35.1902 26.5522 35.1171L26.7187 34.9427V29.2238L28.8048 28.4075V33.819H30.0083V27.9365L31.3789 27.4002L20.5005 23.1434L9.62207 27.4002ZM25.5151 34.4229C25.0361 34.7828 23.5144 35.7045 20.5005 35.7045C17.4816 35.7045 15.9598 34.7797 15.4858 34.4236V29.6947L20.5005 31.6569L25.5151 29.6947V34.4229ZM20.5005 30.3646L12.9249 27.4002L20.5005 24.4359L28.0761 27.4002L20.5005 30.3646Z" fill="#51ABFF"/>
<path d="M18.4536 11.273C18.4536 9.62289 17.5911 8.13446 16.2067 7.31125C16.361 6.97851 16.4477 6.60839 16.4477 6.21821V5.41586C16.4477 3.97805 15.2779 2.80823 13.8401 2.80823C12.4023 2.80823 11.2324 3.97805 11.2324 5.41586V6.21821C11.2324 6.60839 11.3192 6.97851 11.4735 7.31125C10.089 8.13446 9.22656 9.62289 9.22656 11.273V12.6771H18.4536V11.273ZM12.436 5.41586C12.436 4.64167 13.0659 4.01175 13.8401 4.01175C14.6143 4.01175 15.2442 4.64167 15.2442 5.41586V6.21821C15.2442 6.99239 14.6143 7.62232 13.8401 7.62232C13.0659 7.62232 12.436 6.99239 12.436 6.21821V5.41586ZM17.25 11.4736H10.4301V11.273C10.4301 9.99919 11.1253 8.85585 12.2293 8.26652C12.6731 8.61635 13.2324 8.82584 13.8401 8.82584C14.4477 8.82584 15.007 8.61635 15.4509 8.26652C16.5548 8.85585 17.25 9.99919 17.25 11.273V11.4736Z" fill="#51ABFF"/>
<path d="M20.8203 8.98633H31.5718V10.1899H20.8203V8.98633Z" fill="#51ABFF"/>
<path d="M20.8203 6.57922H26.4368V7.78275H20.8203V6.57922Z" fill="#51ABFF"/>
<path d="M20.8203 4.17212H26.4368V5.37564H20.8203V4.17212Z" fill="#51ABFF"/>
<path d="M20.8203 11.3933H31.5718V12.5968H20.8203V11.3933Z" fill="#51ABFF"/>
<path d="M20.8203 13.8004H28.3624V15.0039H20.8203V13.8004Z" fill="#51ABFF"/>
</svg>
