<svg width="40" height="40" viewBox="0 0 40 40" fill="none" xmlns="http://www.w3.org/2000/svg">
<g clip-path="url(#clip0)">
<path d="M32.8003 0H7.20114C4.99456 0 3.2002 1.79415 3.2002 3.99962V36.001C3.2002 38.2059 4.99434 39.9998 7.20114 39.9998H32.8003C35.0064 39.9998 36.8006 38.2059 36.8006 36.001V4.00095C36.8017 1.79525 35.0077 0 32.8003 0ZM35.2014 36.001C35.2014 37.3249 34.1244 38.4013 32.8003 38.4013H7.20114C5.8775 38.4013 4.80115 37.3249 4.80115 36.001V4.00095C4.80115 2.67731 5.8775 1.60095 7.20114 1.60095H32.8003C34.1233 1.60095 35.1996 2.67731 35.1996 4.00095V36.0013H35.2014V36.001Z" fill="#8F00FF"/>
<path d="M28.4371 17.4893H11.5669C11.1609 17.4893 10.833 17.8185 10.833 18.2245C10.833 18.6303 11.1609 18.9597 11.5669 18.9597H28.4369C28.8434 18.9597 29.1712 18.6305 29.1712 18.2245C29.1714 17.8187 28.8434 17.4893 28.4371 17.4893Z" fill="#8F00FF"/>
<path d="M28.4371 20.8396H11.5669C11.1609 20.8396 10.833 21.1695 10.833 21.5755C10.833 21.9815 11.1609 22.3098 11.5669 22.3098H28.4369C28.8434 22.3098 29.1712 21.9815 29.1712 21.5755C29.1703 21.1673 28.8434 20.8396 28.4371 20.8396Z" fill="#8F00FF"/>
<path d="M28.4371 24.1887H11.5669C11.1609 24.1887 10.833 24.5186 10.833 24.9242C10.833 25.3302 11.1609 25.659 11.5669 25.659H28.4369C28.8434 25.659 29.1712 25.3302 29.1712 24.9242C29.1714 24.5186 28.8434 24.1887 28.4371 24.1887Z" fill="#8F00FF"/>
<path d="M28.4371 27.5388H20.0014C19.596 27.5388 19.2666 27.8674 19.2666 28.2734C19.2666 28.6794 19.596 29.0093 20.0014 29.0093H28.4369C28.8434 29.0093 29.1702 28.6794 29.1702 28.2734C29.1702 27.8674 28.8434 27.5388 28.4371 27.5388Z" fill="#8F00FF"/>
<path d="M28.4367 34.1548H22.5312C22.1239 34.1548 21.7969 34.4835 21.7969 34.8896C21.7969 35.2952 22.1239 35.6239 22.5312 35.6239H28.4367C28.8432 35.6239 29.17 35.2952 29.17 34.8896C29.17 34.4835 28.843 34.1548 28.4367 34.1548Z" fill="#8F00FF"/>
<path d="M20.8205 14.2594C20.8205 12.8688 19.2196 10.9932 17.0585 10.4452C17.9613 9.83805 18.5835 8.63894 18.5835 7.55905C18.5835 6.03604 17.3501 4.80005 15.8258 4.80005C14.3032 4.80005 13.0681 6.03604 13.0681 7.55905C13.0681 8.63783 13.6903 9.83695 14.5911 10.4452C12.4331 10.993 10.8311 12.87 10.8311 14.2594C10.8328 15.9025 20.8205 15.9025 20.8205 14.2594ZM15.6034 11.2456H15.5909L15.1343 10.7212C15.3575 10.8003 15.5851 10.8486 15.826 10.8486C16.0673 10.8486 16.2952 10.8016 16.518 10.7223L16.06 11.2454H16.0492L17.2276 14.0925L15.826 15.4905L14.426 14.0925L15.6034 11.2456Z" fill="#8F00FF"/>
</g>
<defs>
<clipPath id="clip0">
<rect width="40" height="40" fill="white"/>
</clipPath>
</defs>
</svg>
