<svg width="180" height="180" viewBox="0 0 180 180" fill="none" xmlns="http://www.w3.org/2000/svg">
<g filter="url(#filter0_d)">
<rect x="10" y="10" width="140" height="140" rx="10" fill="#FDCB6E"/>
</g>
<g clip-path="url(#clip0)">
<path d="M94.0274 84.1232C93.2878 84.8628 93.292 86.0628 94.0358 86.8065L94.7087 87.4795C94.8316 87.6024 94.8337 87.8045 94.7108 87.9274C94.5878 88.0503 94.3878 88.0503 94.2628 87.9253L92.6941 86.3565C91.9503 85.6128 90.7503 85.6107 90.0108 86.3482C89.2712 87.0878 89.2753 88.2878 90.0191 89.0315L91.5878 90.6003C91.7108 90.7232 91.7128 90.9253 91.5899 91.0482C91.467 91.1711 91.267 91.1711 91.142 91.0461L88.6753 88.5795C87.9316 87.8357 86.7316 87.8336 85.992 88.5711C85.2524 89.3107 85.2566 90.5107 86.0003 91.2545L88.467 93.7211C88.5899 93.844 88.592 94.0461 88.4691 94.169C88.3462 94.292 88.1462 94.292 88.0212 94.167L79.2774 85.4232C78.5337 84.6795 77.3337 84.6774 76.5941 85.4149C75.8545 86.1545 75.8587 87.3545 76.6024 88.0982L87.1253 98.6211C85.7462 98.4065 83.4253 98.3149 82.0003 99.7378C80.6628 101.075 80.6983 102 81.1128 102.417C82.2441 103.548 83.1149 101.761 88.2691 104.223C93.4233 106.688 96.7358 106.484 99.0003 104.257L102.121 101.136C102.138 101.119 102.105 101.152 102.121 101.136C105.294 97.9628 106.202 93.6253 103 90.4253C102.994 90.419 102.99 90.4149 102.984 90.4086L96.7066 84.1315C95.967 83.3878 94.767 83.3857 94.0274 84.1232Z" fill="white"/>
<path d="M94.5833 56H61.25C57.7979 56 55 58.7979 55 62.25C55 65.7021 57.7979 68.5 61.25 68.5H94.5833C98.0354 68.5 100.833 65.7021 100.833 62.25C100.833 58.7979 98.0354 56 94.5833 56ZM61.25 64.3333C60.1 64.3333 59.1667 63.4 59.1667 62.25C59.1667 61.1 60.1 60.1667 61.25 60.1667C62.4 60.1667 63.3333 61.1 63.3333 62.25C63.3333 63.4 62.4 64.3333 61.25 64.3333ZM69.5833 64.3333C68.4333 64.3333 67.5 63.4 67.5 62.25C67.5 61.1 68.4333 60.1667 69.5833 60.1667C70.7333 60.1667 71.6667 61.1 71.6667 62.25C71.6667 63.4 70.7333 64.3333 69.5833 64.3333Z" fill="white"/>
<path d="M94.5833 72.6669H61.25C57.7917 72.6669 55 75.4585 55 78.9169C55 82.3752 57.7917 85.1669 61.25 85.1669H72.0833C72.3542 84.1669 72.8958 83.2294 73.6458 82.4794C76.0208 80.1044 79.8542 80.1044 82.2292 82.4794L84.375 84.6252C85.0625 84.2294 85.8333 83.9794 86.625 83.896C87.4604 82.7835 88.9146 81.8856 90.6458 81.6669C92.4604 79.246 96.5938 78.1148 100.167 81.6877C100.604 80.8544 100.833 79.9169 100.833 78.9169C100.833 75.4585 98.0417 72.6669 94.5833 72.6669ZM61.25 81.0002C60.1042 81.0002 59.1667 80.0627 59.1667 78.9169C59.1667 77.771 60.1042 76.8335 61.25 76.8335C62.3958 76.8335 63.3333 77.771 63.3333 78.9169C63.3333 80.0627 62.3958 81.0002 61.25 81.0002ZM69.5833 81.0002C68.4375 81.0002 67.5 80.0627 67.5 78.9169C67.5 77.771 68.4375 76.8335 69.5833 76.8335C70.7292 76.8335 71.6667 77.771 71.6667 78.9169C71.6667 80.0627 70.7292 81.0002 69.5833 81.0002Z" fill="white"/>
<path d="M73.6667 91.0415C73.1667 90.5415 72.75 89.9581 72.4583 89.3331H61.25C57.7917 89.3331 55 92.1248 55 95.5831C55 99.0415 57.7917 101.833 61.25 101.833H76.6875C76.6875 99.7498 78.1271 97.3581 79.2292 96.6248L73.6667 91.0415ZM61.25 97.6665C60.1042 97.6665 59.1667 96.729 59.1667 95.5831C59.1667 94.4373 60.1042 93.4998 61.25 93.4998C62.3958 93.4998 63.3333 94.4373 63.3333 95.5831C63.3333 96.729 62.3958 97.6665 61.25 97.6665ZM69.5833 97.6665C68.4375 97.6665 67.5 96.729 67.5 95.5831C67.5 94.4373 68.4375 93.4998 69.5833 93.4998C70.7292 93.4998 71.6667 94.4373 71.6667 95.5831C71.6667 96.729 70.7292 97.6665 69.5833 97.6665Z" fill="white"/>
</g>
<defs>
<filter id="filter0_d" x="0" y="0" width="180" height="180" filterUnits="userSpaceOnUse" color-interpolation-filters="sRGB">
<feFlood flood-opacity="0" result="BackgroundImageFix"/>
<feColorMatrix in="SourceAlpha" type="matrix" values="0 0 0 0 0 0 0 0 0 0 0 0 0 0 0 0 0 0 127 0"/>
<feOffset dx="10" dy="10"/>
<feGaussianBlur stdDeviation="10"/>
<feColorMatrix type="matrix" values="0 0 0 0 0.831373 0 0 0 0 0.858824 0 0 0 0 1 0 0 0 0.5 0"/>
<feBlend mode="normal" in2="BackgroundImageFix" result="effect1_dropShadow"/>
<feBlend mode="normal" in="SourceGraphic" in2="effect1_dropShadow" result="shape"/>
</filter>
<clipPath id="clip0">
<rect width="50" height="50" fill="white" transform="translate(55 56)"/>
</clipPath>
</defs>
</svg>
