<svg width="180" height="180" viewBox="0 0 180 180" fill="none" xmlns="http://www.w3.org/2000/svg">
<g filter="url(#filter0_d)">
<rect x="10" y="10" width="140" height="140" rx="10" fill="#07DAB1"/>
</g>
<path d="M64.7656 66.0352C64.7656 64.9564 65.64 64.082 66.7188 64.082H93.2812C94.36 64.082 95.2344 64.9564 95.2344 66.0352C95.2344 67.114 94.36 67.9883 93.2812 67.9883H66.7188C65.64 67.9883 64.7656 67.114 64.7656 66.0352ZM95.2344 73.8477C95.2344 72.7689 94.36 71.8945 93.2812 71.8945H66.7188C65.64 71.8945 64.7656 72.7689 64.7656 73.8477C64.7656 74.9265 65.64 75.8008 66.7188 75.8008H93.2812C94.36 75.8008 95.2344 74.9265 95.2344 73.8477ZM66.7188 79.707C65.64 79.707 64.7656 80.5814 64.7656 81.6602C64.7656 82.739 65.64 83.6133 66.7188 83.6133H75.7031C76.7819 83.6133 77.6562 82.739 77.6562 81.6602C77.6562 80.5814 76.7819 79.707 75.7031 79.707H66.7188ZM103.285 94.999C105.568 97.2821 105.568 100.999 103.284 103.284C102.142 104.426 100.641 104.997 99.1406 104.997C97.6403 104.997 96.1396 104.426 94.9975 103.284L84.3171 92.5835C84.0791 92.3451 83.907 92.0495 83.8174 91.7249L81.6335 83.8418C81.4435 83.1551 81.6418 82.4197 82.1519 81.9222C82.6615 81.4252 83.4016 81.2444 84.0833 81.4515L91.7714 83.7868C92.0792 83.8803 92.3592 84.0482 92.5862 84.2759L103.285 94.999ZM87.4444 90.1871L94.6236 97.3798L97.3862 94.6172L90.1669 87.3818L86.3457 86.221L87.4444 90.1871ZM100.522 97.7597L100.145 97.3824L97.3832 100.145L97.7608 100.523C98.5211 101.283 99.7601 101.283 100.522 100.522C101.283 99.7601 101.283 98.5211 100.522 97.7597ZM97.1875 55H62.8125C58.5046 55 55 58.5046 55 62.8125V97.1875C55 101.495 58.5046 105 62.8125 105H86.7383C87.8171 105 88.6914 104.126 88.6914 103.047C88.6914 101.968 87.8171 101.094 86.7383 101.094H62.8125C60.6587 101.094 58.9062 99.3413 58.9062 97.1875V62.8125C58.9062 60.6587 60.6587 58.9062 62.8125 58.9062H97.1875C99.3413 58.9062 101.094 60.6587 101.094 62.8125V86.8359C101.094 87.9147 101.968 88.7891 103.047 88.7891C104.126 88.7891 105 87.9147 105 86.8359V62.8125C105 58.5046 101.495 55 97.1875 55Z" fill="white"/>
<defs>
<filter id="filter0_d" x="0" y="0" width="180" height="180" filterUnits="userSpaceOnUse" color-interpolation-filters="sRGB">
<feFlood flood-opacity="0" result="BackgroundImageFix"/>
<feColorMatrix in="SourceAlpha" type="matrix" values="0 0 0 0 0 0 0 0 0 0 0 0 0 0 0 0 0 0 127 0"/>
<feOffset dx="10" dy="10"/>
<feGaussianBlur stdDeviation="10"/>
<feColorMatrix type="matrix" values="0 0 0 0 0.831373 0 0 0 0 0.858824 0 0 0 0 1 0 0 0 0.5 0"/>
<feBlend mode="normal" in2="BackgroundImageFix" result="effect1_dropShadow"/>
<feBlend mode="normal" in="SourceGraphic" in2="effect1_dropShadow" result="shape"/>
</filter>
</defs>
</svg>
