<svg width="180" height="180" viewBox="0 0 180 180" fill="none" xmlns="http://www.w3.org/2000/svg">
<g filter="url(#filter0_d)">
<rect x="10" y="10" width="140" height="140" rx="10" fill="#FF7966"/>
</g>
<g clip-path="url(#clip0)">
<path d="M101.354 89.4074H100.833V86.2824C100.833 83.4119 98.4959 81.0742 95.625 81.0742C92.7541 81.0742 90.4168 83.4119 90.4168 86.2824V89.4074H89.8957C87.8854 89.4074 86.25 91.0428 86.25 93.0535V100.345C86.25 102.356 87.8854 103.991 89.8957 103.991H101.354C103.365 103.991 105 102.356 105 100.345V93.0535C105 91.0428 103.365 89.4074 101.354 89.4074ZM93.5418 86.2824C93.5418 85.1346 94.4772 84.1992 95.625 84.1992C96.7728 84.1992 97.7082 85.1346 97.7082 86.2824V89.4074H93.5418V86.2824Z" fill="white"/>
<path d="M83.125 93.0535C83.125 90.2409 84.8481 87.8262 87.2918 86.8035V86.2824C87.2918 85.0159 87.5977 83.8284 88.1062 82.7512C86.5311 81.6949 84.6394 81.0742 82.6043 81.0742H64.8957C59.4395 81.0742 55 85.5138 55 90.9699V98.2617C55 99.1242 55.7 99.8242 56.5625 99.8242H83.125V93.0535Z" fill="white"/>
<path d="M84.1666 66.491C84.1666 72.244 79.5027 76.9074 73.7498 76.9074C67.9969 76.9074 63.333 72.244 63.333 66.491C63.333 60.7381 67.9969 56.0742 73.7498 56.0742C79.5027 56.0742 84.1666 60.7381 84.1666 66.491Z" fill="white"/>
</g>
<defs>
<filter id="filter0_d" x="0" y="0" width="180" height="180" filterUnits="userSpaceOnUse" color-interpolation-filters="sRGB">
<feFlood flood-opacity="0" result="BackgroundImageFix"/>
<feColorMatrix in="SourceAlpha" type="matrix" values="0 0 0 0 0 0 0 0 0 0 0 0 0 0 0 0 0 0 127 0"/>
<feOffset dx="10" dy="10"/>
<feGaussianBlur stdDeviation="10"/>
<feColorMatrix type="matrix" values="0 0 0 0 0.831373 0 0 0 0 0.858824 0 0 0 0 1 0 0 0 0.5 0"/>
<feBlend mode="normal" in2="BackgroundImageFix" result="effect1_dropShadow"/>
<feBlend mode="normal" in="SourceGraphic" in2="effect1_dropShadow" result="shape"/>
</filter>
<clipPath id="clip0">
<rect width="50" height="50" fill="white" transform="translate(55 55)"/>
</clipPath>
</defs>
</svg>
