<svg width="68" height="28" viewBox="0 0 68 28" fill="none" xmlns="http://www.w3.org/2000/svg">
<path d="M4.77889 10.9427C4.77889 10.2157 5.38333 9.93605 6.38444 9.93605C7.82 9.93605 9.63333 10.3648 11.0689 11.1291V6.74831C9.50111 6.13313 7.95222 5.89079 6.38444 5.89079C2.55 5.89079 0 7.86682 0 11.1664C0 16.3115 7.17778 15.4913 7.17778 17.7097C7.17778 18.5672 6.42222 18.8468 5.36444 18.8468C3.79667 18.8468 1.79444 18.213 0.207778 17.3555V21.7922C1.96444 22.5379 3.74 22.8548 5.36444 22.8548C9.29333 22.8548 11.9944 20.9347 11.9944 17.5978C11.9756 12.0426 4.77889 13.0306 4.77889 10.9427ZM17.5478 2.16244L12.9389 3.13181L12.92 18.0639C12.92 20.8228 15.0167 22.8548 17.8122 22.8548C19.3611 22.8548 20.4944 22.5752 21.1178 22.2396V18.4553C20.5133 18.6977 17.5289 19.5552 17.5289 16.7962V10.1784H21.1178V6.2077H17.5289L17.5478 2.16244ZM26.9922 7.58719L26.69 6.2077H22.61V22.5192H27.3322V11.4647C28.4467 10.0293 30.3356 10.2902 30.9211 10.4953V6.2077C30.3167 5.984 28.1067 5.57388 26.9922 7.58719ZM32.0733 6.2077H36.8144V22.5192H32.0733V6.2077ZM32.0733 4.79093L36.8144 3.78427V0L32.0733 0.988012V4.79093ZM46.6744 5.89079C44.8233 5.89079 43.6333 6.74831 42.9722 7.34485L42.7267 6.18906H38.5711V27.9253L43.2933 26.9373L43.3122 21.6617C43.9922 22.1464 44.9933 22.8361 46.6556 22.8361C50.0367 22.8361 53.1156 20.1517 53.1156 14.2423C53.0967 8.83619 49.98 5.89079 46.6744 5.89079ZM45.5411 18.735C44.4267 18.735 43.7656 18.3435 43.3122 17.8588L43.2933 10.9427C43.7844 10.4021 44.4644 10.0293 45.5411 10.0293C47.26 10.0293 48.45 11.9307 48.45 14.3728C48.45 16.8708 47.2789 18.735 45.5411 18.735ZM68 14.4287C68 9.65642 65.6578 5.89079 61.1811 5.89079C56.6856 5.89079 53.9656 9.65642 53.9656 14.3914C53.9656 20.0026 57.1767 22.8361 61.7856 22.8361C64.0333 22.8361 65.7333 22.3328 67.0178 21.6244V17.8961C65.7333 18.5299 64.26 18.9214 62.39 18.9214C60.5578 18.9214 58.9333 18.2876 58.7256 16.0878H67.9622C67.9622 15.8455 68 14.8761 68 14.4287ZM58.6689 12.6577C58.6689 10.5512 59.9722 9.67507 61.1622 9.67507C62.3144 9.67507 63.5422 10.5512 63.5422 12.6577H58.6689Z" fill="#6772E5"/>
</svg>
