<svg width="30" height="30" viewBox="0 0 30 30" fill="none" xmlns="http://www.w3.org/2000/svg">
<g clip-path="url(#clip0)">
<path d="M28.1244 17.8171C28.1244 20.4419 26.5495 20.6294 26.2495 20.6294H3.19748L8.15661 15.6703L6.8348 14.3391L0.272623 20.9013C-0.0908745 21.267 -0.0908745 21.8574 0.272623 22.2231L6.8348 28.7853L8.15661 27.4635L3.19748 22.5043H26.2495C27.5432 22.5043 29.9993 21.5669 29.9993 17.8171V15.0047H28.1244V17.8171Z" fill="#6E7191"/>
<path d="M1.87686 12.1924C1.87686 9.56756 3.45178 9.38007 3.75177 9.38007H26.8038L21.8446 14.3392L23.1664 15.661L29.7286 9.09883C30.0921 8.73317 30.0921 8.14269 29.7286 7.77702L23.1664 1.21484L21.8353 2.54603L26.8038 7.50516H3.75177C2.45808 7.50516 0.00195312 8.44262 0.00195312 12.1924V15.0048H1.87686V12.1924Z" fill="#6E7191"/>
</g>
<defs>
<clipPath id="clip0">
<rect width="30" height="30" fill="white"/>
</clipPath>
</defs>
</svg>
