<svg width="30" height="30" viewBox="0 0 30 30" fill="none" xmlns="http://www.w3.org/2000/svg">
<path d="M27.1372 11.6125L22.1372 6.61249C22.0206 6.49594 21.8823 6.40349 21.73 6.34041C21.5777 6.27734 21.4145 6.24487 21.2497 6.24487C20.9168 6.24487 20.5976 6.37711 20.3622 6.61249C20.1268 6.84787 19.9946 7.16711 19.9946 7.49999C19.9946 7.83286 20.1268 8.15211 20.3622 8.38749L23.2372 11.25H8.74969C8.41817 11.25 8.10022 11.3817 7.8658 11.6161C7.63138 11.8505 7.49969 12.1685 7.49969 12.5C7.49969 12.8315 7.63138 13.1495 7.8658 13.3839C8.10022 13.6183 8.41817 13.75 8.74969 13.75H26.2497C26.4965 13.7488 26.7374 13.6745 26.942 13.5366C27.1467 13.3987 27.3059 13.2033 27.3997 12.975C27.4954 12.7474 27.5216 12.4965 27.4748 12.254C27.4281 12.0115 27.3106 11.7883 27.1372 11.6125ZM21.2497 16.25H3.74969C3.5029 16.2512 3.26201 16.3255 3.05736 16.4634C2.85271 16.6013 2.69346 16.7967 2.59969 17.025C2.50396 17.2526 2.47781 17.5035 2.52453 17.746C2.57124 17.9885 2.68874 18.2117 2.86219 18.3875L7.86219 23.3875C7.97839 23.5046 8.11664 23.5976 8.26897 23.6611C8.42129 23.7246 8.58467 23.7572 8.74969 23.7572C8.9147 23.7572 9.07808 23.7246 9.23041 23.6611C9.38273 23.5976 9.52098 23.5046 9.63719 23.3875C9.75435 23.2713 9.84734 23.133 9.9108 22.9807C9.97426 22.8284 10.0069 22.665 10.0069 22.5C10.0069 22.335 9.97426 22.1716 9.9108 22.0193C9.84734 21.8669 9.75435 21.7287 9.63719 21.6125L6.76219 18.75H21.2497C21.5812 18.75 21.8992 18.6183 22.1336 18.3839C22.368 18.1495 22.4997 17.8315 22.4997 17.5C22.4997 17.1685 22.368 16.8505 22.1336 16.6161C21.8992 16.3817 21.5812 16.25 21.2497 16.25Z" fill="black"/>
</svg>
